<svg fill="none" viewBox="0 0 335 200" xmlns="http://www.w3.org/2000/svg"><path d="m0 0h335v200h-335z" fill="#1a1a1a"/><path d="m58.122 111.393c-7.0854 4.159-15.4318 6.759-24.8969 7.781 4.635 4.977 10.9103 8.118 17.6758 8.849 6.7655.73 13.5679-.999 19.1606-4.872 5.5927-3.872 9.601-9.628 11.2902-16.213s.9463-13.5572-2.0927-19.6393c-.8816 1.99-1.875 3.9287-2.9756 5.8067-4.37 7.5616-10.6273 13.8616-18.1614 18.2876z" fill="#00b4ff"/><path d="m25.8244 96.5387c7.9405-.4675 15.7781-2.03 23.2899-4.643 6.9876-2.4441 13.5104-6.0526 19.2917-10.6724 1.2879-1.0408 2.4643-2.0777 3.5408-3.0992-3.9154-3.2398-8.6326-5.3657-13.6552-6.1538-5.0227-.7882-10.1651-.2096-14.8864 1.6749s-8.8469 5.0053-11.9427 9.034-5.0475 8.8164-5.6496 13.8595z" fill="#00b4ff"/><path d="m81.7964 80.5474c-.3768 1.2135-.8099 2.4668-1.2995 3.7597 3.7992 6.4561 5.1121 14.0743 3.6928 21.4279-1.4192 7.353-5.4732 13.938-11.4028 18.521-5.9296 4.582-13.3281 6.848-20.8101 6.374-7.4819-.475-14.5341-3.657-19.8359-8.952-.7151-.715-1.3917-1.46-2.026-2.228-1.2495.085-2.5182.15-3.8061.181 5.1884 7.35 13.0872 12.34 21.9589 13.873 8.8717 1.532 17.9895-.518 25.3476-5.701s12.3538-13.073 13.888-21.935c1.5343-8.8624-.5186-17.9704-5.7069-25.3206z" fill="#00b4ff"/><path d="m32.1409 78.1471c5.4508-5.4442 12.7465-8.6496 20.4473-8.9838 7.7008-.3341 15.2473 2.2273 21.1501 7.1789.7689-.7988 1.4686-1.5746 2.1106-2.3234-4.7376-4.0027-10.483-6.6317-16.6116-7.6013s-12.406-.2427-18.15 2.1017c-5.744 2.3443-10.7349 6.2165-14.4303 11.1957s-5.9539 10.875-6.5301 17.0465c1.061 0 2.1144-.0423 3.1563-.0883.7269-7.0105 3.856-13.555 8.8577-18.526z" fill="#00b4ff"/><path d="m30.8415 116.255c9.8419-.799 18.4535-3.318 25.6235-7.519 7.0661-4.133 12.9403-10.0234 17.0503-17.0977 1.4508-2.4658 2.7054-5.0416 3.7523-7.7037.3819-.9678.7291-1.9164 1.0418-2.8457l.0961-.2804-.1384.2228c-.4536.745-.938 1.4977-1.4532 2.2658-1.2269 1.8124-2.5527 3.556-3.9714 5.2229-5.3616 6.2724-12.0085 11.3223-19.4915 14.808-7.639 3.587-16.343 5.761-25.9504 6.448-.8688.062-1.7428.112-2.6219.15-1.0816.049-2.1709.08-3.2678.092.7073 2.27 1.6532 4.458 2.8218 6.529 1.2111 0 2.4105-.038 3.5908-.092.9842-.062 1.9492-.119 2.918-.2z" fill="#00b4ff"/><path d="m26.4472 106.7c9.4728-.61 18.0192-2.688 25.4775-6.144 7.0709-3.2753 13.3569-8.0263 18.4343-13.9332 1.5834-1.8498 3.0424-3.8024 4.3674-5.845.4869-.7527.9431-1.4926 1.3686-2.2197l.1807-.3149c-.0807.0844-.1576.1689-.2422.2534-.5613.5838-1.1534 1.179-1.7839 1.7781-1.1533 1.1176-2.4604 2.262-3.8752 3.4026-6.0541 4.8411-12.8848 8.6235-20.2028 11.1869-7.4699 2.6461-15.6856 4.2667-24.5279 4.8159-.8304.0537-1.6659.0973-2.5066.1305-1.038.0423-2.0837.0653-3.1371.0807v.0192c-.0003 2.3445.2406 4.6825.7189 6.9775 1.0765 0 2.1414-.02 3.1948-.061.8381-.027 1.6916-.069 2.5335-.127z" fill="#00b4ff"/><g fill="#e6e6e6"><path d="m130.431 120.762-3.938-10.33h-15.741l-3.872 10.33h-7.88l15.257-39.2604h8.677l15.419 39.2604zm-17.522-16.545h11.373l-5.712-14.9141z"/><path d="m142.609 78.5h7.442v42.262h-7.442z"/><path d="m166.76 91.7784h8.085v6.0563h-8.085v11.7003c0 3.898 2.532 5.428 5.983 5.428.887-.015 1.772-.104 2.644-.265v6.219c-1.399.296-2.828.437-4.259.42-7.388 0-11.59-4.319-11.59-11.435v-12.0635h-4.325v-6.0563h4.376v-6.7528h7.171z"/><path d="m180.344 82.9249c0-1.0832.44-2.1221 1.223-2.888.784-.7659 1.847-1.1962 2.955-1.1962s2.171.4303 2.954 1.1962c.784.7659 1.224 1.8048 1.224 2.888s-.44 2.122-1.224 2.888c-.783.7659-1.846 1.1962-2.954 1.1962s-2.171-.4303-2.955-1.1962c-.783-.766-1.223-1.8048-1.223-2.888zm.488 8.8535h7.438v28.9836h-7.438z"/><path d="m204.979 91.7784h8.089v6.0563h-8.089v11.7003c0 3.898 2.536 5.428 5.986 5.428.887-.015 1.77-.104 2.641-.265v6.219c-1.399.296-2.828.437-4.259.42-7.385 0-11.59-4.319-11.59-11.435v-12.0635h-4.314v-6.0563h4.364v-6.7528h7.168z"/><path d="m218.617 109.221v-17.4426h7.458v17.4426c0 3.637 2.048 5.639 5.552 5.639 3.505 0 5.712-2.002 5.712-5.677v-17.4046h7.442v17.3896c0 7.218-5.014 12.332-13.165 12.332s-12.999-5.114-12.999-12.279z"/><path d="m250.47 106.268c0-9.2736 6.362-15.1747 13.316-15.1747 1.913-.0285 3.8.4331 5.474 1.3389s3.076 2.2242 4.067 3.8241v-17.7563h7.439v42.262h-6.246l-.775-4.743c-1.02 1.679-2.472 3.069-4.212 4.03-1.739.962-3.706 1.462-5.704 1.451-6.881 0-13.359-5.954-13.359-15.232zm22.966 0c0-5.057-3.292-8.5885-7.656-8.5885-4.476 0-7.818 3.5845-7.818 8.5885s3.342 8.592 7.818 8.592c4.372 0 7.663-3.531 7.663-8.592z"/><path d="m314.787 108.376h-20.809c1.026 4.637 4.852 7.223 9.758 7.223 3.291 0 6.524-1.162 9.436-3.165v6.219c-3.088 1.88-6.658 2.867-10.296 2.847-10.029 0-16.012-6.272-16.012-15.141 0-9.2737 6.63-15.2808 14.715-15.2808 7.384 0 13.421 5.057 13.421 14.6488-.007.887-.079 1.772-.213 2.649zm-6.9-4.583c-.109-4.4783-2.908-6.8516-6.358-6.8516-3.667 0-6.796 2.6497-7.602 6.8516z"/></g></svg>
