<svg fill="none" viewBox="0 0 1400 500" width="1400" xmlns="http://www.w3.org/2000/svg"><rect fill="#fcfcfc" height="500" width="1400"/><g fill="#000"><path d="m583.254 311.187-12.37-33.193h-49.442l-12.163 33.193h-24.751l47.922-126.154h27.257l48.433 126.154zm-55.037-53.164h35.722l-17.94-47.922z"/><path d="m621.507 175.388h23.377v135.799h-23.377z"/><path d="m697.367 218.055h25.396v19.461h-25.396v37.596c0 12.527 7.954 17.441 18.792 17.441 2.788-.047 5.567-.332 8.307-.851v19.983c-4.395.952-8.883 1.405-13.379 1.351-23.207 0-36.404-13.878-36.404-36.745v-38.763h-13.586v-19.461h13.744v-21.698h22.526z"/><path d="m740.034 189.606c0-3.48 1.383-6.819 3.844-9.28s5.799-3.844 9.28-3.844 6.819 1.383 9.28 3.844 3.844 5.8 3.844 9.28c0 3.481-1.383 6.819-3.844 9.28s-5.799 3.844-9.28 3.844-6.819-1.383-9.28-3.844-3.844-5.799-3.844-9.28zm1.533 28.449h23.365v93.132h-23.365z"/><path d="m817.415 218.055h25.408v19.461h-25.408v37.596c0 12.527 7.967 17.441 18.804 17.441 2.784-.048 5.559-.333 8.295-.851v19.983c-4.395.952-8.883 1.405-13.379 1.351-23.195 0-36.404-13.878-36.404-36.745v-38.763h-13.55v-19.461h13.708v-21.698h22.514z"/><path d="m860.253 274.102v-56.047h23.425v56.047c0 11.689 6.435 18.123 17.442 18.123 11.008 0 17.94-6.434 17.94-18.245v-55.925h23.377v55.877c0 23.194-15.751 39.627-41.353 39.627-25.603 0-40.831-16.433-40.831-39.457z"/><path d="m960.305 264.615c0-29.799 19.984-48.761 41.825-48.761 6.01-.092 11.94 1.392 17.2 4.302 5.26 2.911 9.66 7.147 12.77 12.288v-57.056h23.37v135.799h-19.62l-2.43-15.24c-3.21 5.397-7.77 9.862-13.23 12.951-5.47 3.09-11.65 4.696-17.92 4.661-21.617 0-41.965-19.133-41.965-48.944zm72.135 0c0-16.25-10.34-27.598-24.04-27.598-14.063 0-24.56 11.519-24.56 27.598s10.497 27.61 24.56 27.61c13.73 0 24.07-11.348 24.07-27.61z"/><path d="m1162.33 271.39h-65.36c3.22 14.899 15.24 23.207 30.65 23.207 10.34 0 20.49-3.734 29.64-10.169v19.984c-9.7 6.04-20.91 9.211-32.34 9.147-31.5 0-50.3-20.154-50.3-48.652 0-29.799 20.83-49.102 46.22-49.102 23.2 0 42.16 16.25 42.16 47.071-.02 2.85-.25 5.695-.67 8.514zm-21.67-14.73c-.34-14.388-9.14-22.015-19.97-22.015-11.52 0-21.35 8.515-23.88 22.015z"/></g><path d="m357.608 285.766c-22.417 13.172-48.822 21.407-78.768 24.642 14.664 15.763 34.518 25.713 55.922 28.027 21.404 2.313 42.925-3.164 60.619-15.429s30.375-30.495 35.719-51.35 2.994-42.937-6.621-62.2c-2.789 6.302-5.932 12.442-9.414 18.39-13.825 23.948-33.621 43.903-57.457 57.92z" fill="#00b4ff"/><path d="m255.427 238.72c25.121-1.481 49.917-6.429 73.683-14.705 22.107-7.741 42.743-19.169 61.033-33.801 4.075-3.296 7.797-6.58 11.202-9.815-12.387-10.261-27.311-16.994-43.201-19.49-15.89-2.497-32.16-.664-47.096 5.304-14.937 5.969-27.989 15.853-37.784 28.612-9.794 12.76-15.969 27.923-17.874 43.895z" fill="#00b4ff"/><path d="m432.507 188.073c-1.192 3.844-2.562 7.813-4.111 11.908 12.019 20.447 16.173 44.575 11.683 67.865-4.49 23.289-17.316 44.143-36.076 58.657-18.759 14.513-42.166 21.691-65.837 20.188s-45.982-11.583-62.755-28.353c-2.263-2.262-4.403-4.622-6.41-7.054-3.953.267-7.967.474-12.042.572 16.415 23.279 41.405 39.084 69.472 43.937 28.068 4.854 56.914-1.64 80.193-18.055 23.279-16.414 39.084-41.404 43.938-69.472 4.854-28.067-1.641-56.914-18.055-80.193z" fill="#00b4ff"/><path d="m275.411 180.472c17.244-17.243 40.326-27.395 64.689-28.453 24.363-1.059 48.238 7.054 66.913 22.736 2.433-2.53 4.647-4.987 6.678-7.359-14.989-12.677-33.166-21.003-52.555-24.074s-39.249-.768-57.421 6.656c-18.173 7.425-33.963 19.689-45.654 35.459s-18.837 34.442-20.66 53.988c3.357 0 6.69-.133 9.986-.279 2.3-22.204 12.199-42.931 28.024-58.674z" fill="#00b4ff"/><path d="m271.299 301.164c31.138-2.53 58.382-10.508 81.066-23.815 22.356-13.088 40.94-31.744 53.943-54.149 4.59-7.81 8.559-15.968 11.871-24.399 1.208-3.065 2.307-6.069 3.296-9.013l.304-.888-.438.706c-1.435 2.36-2.967 4.743-4.597 7.176-3.882 5.74-8.076 11.262-12.565 16.542-16.962 19.865-37.991 35.859-61.666 46.9-24.167 11.36-51.704 18.244-82.099 20.421-2.749.195-5.514.353-8.295.475-3.422.154-6.868.251-10.339.292 2.238 7.188 5.23 14.119 8.928 20.677 3.831 0 7.626-.122 11.36-.292 3.113-.195 6.166-.377 9.231-.633z" fill="#00b4ff"/><path d="m257.397 270.903c29.97-1.934 57.008-8.514 80.604-19.461 22.37-10.372 42.258-25.419 58.321-44.127 5.01-5.859 9.625-12.043 13.817-18.512 1.541-2.384 2.984-4.727 4.33-7.03l.572-.997c-.256.267-.499.535-.766.802-1.776 1.849-3.649 3.734-5.644 5.632-3.649 3.539-7.784 7.164-12.26 10.776-19.154 15.333-40.764 27.312-63.916 35.431-23.633 8.38-49.625 13.513-77.6 15.252-2.627.17-5.27.308-7.93.414-3.284.133-6.592.206-9.925.255v.061c-.001 7.425.761 14.831 2.274 22.1 3.406 0 6.775-.065 10.108-.195 2.651-.085 5.352-.219 8.015-.401z" fill="#00b4ff"/></svg>
