<svg fill="none" viewBox="0 0 1400 500" xmlns="http://www.w3.org/2000/svg" xmlns:xlink="http://www.w3.org/1999/xlink"><mask id="a" fill="#fff"><path d="m583.254 311.504-12.369-33.192h-49.443l-12.163 33.192h-24.751l47.922-126.154h27.257l48.433 126.154zm-55.037-53.164h35.723l-17.941-47.922z" fill="#fff"/><path d="m621.507 175.705h23.377v135.799h-23.377z" fill="#fff"/><path d="m697.367 218.373h25.396v19.46h-25.396v37.596c0 12.528 7.954 17.442 18.792 17.442 2.788-.048 5.567-.333 8.307-.852v19.984c-4.395.951-8.883 1.404-13.379 1.35-23.207 0-36.404-13.878-36.404-36.744v-38.764h-13.586v-19.46h13.744v-21.699h22.526z" fill="#fff"/><path d="m740.034 189.924c0-3.481 1.383-6.819 3.844-9.28 2.461-2.462 5.8-3.844 9.28-3.844 3.481 0 6.819 1.382 9.28 3.844 2.461 2.461 3.844 5.799 3.844 9.28 0 3.48-1.383 6.818-3.844 9.279-2.461 2.462-5.799 3.844-9.28 3.844-3.48 0-6.819-1.382-9.28-3.844-2.461-2.461-3.844-5.799-3.844-9.279zm1.533 28.449h23.365v93.131h-23.365z" fill="#fff"/><path d="m817.415 218.373h25.408v19.46h-25.408v37.596c0 12.528 7.967 17.442 18.804 17.442 2.784-.049 5.559-.333 8.295-.852v19.984c-4.395.951-8.883 1.404-13.379 1.35-23.195 0-36.404-13.878-36.404-36.744v-38.764h-13.549v-19.46h13.707v-21.699h22.514z" fill="#fff"/><path d="m860.253 274.419v-56.046h23.426v56.046c0 11.689 6.434 18.123 17.441 18.123 11.008 0 17.941-6.434 17.941-18.244v-55.925h23.377v55.876c0 23.195-15.751 39.627-41.354 39.627s-40.831-16.432-40.831-39.457z" fill="#fff"/><path d="m960.305 264.932c0-29.799 19.984-48.761 41.825-48.761 6.01-.091 11.94 1.392 17.2 4.302 5.26 2.911 9.66 7.147 12.77 12.288v-57.056h23.37v135.799h-19.62l-2.43-15.24c-3.21 5.397-7.77 9.862-13.23 12.952-5.47 3.089-11.65 4.696-17.92 4.66-21.616 0-41.965-19.132-41.965-48.944zm72.135 0c0-16.249-10.34-27.597-24.04-27.597-14.063 0-24.56 11.518-24.56 27.597 0 16.08 10.497 27.61 24.56 27.61 13.73 0 24.07-11.348 24.07-27.61z" fill="#fff"/><path d="m1162.33 271.707h-65.36c3.22 14.9 15.24 23.207 30.65 23.207 10.34 0 20.49-3.734 29.64-10.168v19.983c-9.7 6.04-20.91 9.211-32.34 9.147-31.5 0-50.3-20.154-50.3-48.652 0-29.799 20.83-49.102 46.22-49.102 23.2 0 42.16 16.25 42.16 47.071-.02 2.85-.25 5.695-.67 8.514zm-21.67-14.729c-.34-14.389-9.14-22.015-19.97-22.015-11.52 0-21.35 8.514-23.88 22.015z" fill="#fff"/></mask><mask id="b" fill="#fff"><path d="m357.608 286.083c-22.417 13.173-48.822 21.407-78.768 24.643 14.664 15.762 34.518 25.712 55.922 28.026s42.925-3.164 60.619-15.428c17.694-12.265 30.375-30.496 35.719-51.351s2.994-42.937-6.621-62.2c-2.789 6.303-5.932 12.443-9.414 18.391-13.825 23.947-33.621 43.903-57.457 57.919z" fill="#fff"/><path d="m255.427 239.037c25.121-1.48 49.917-6.429 73.683-14.705 22.107-7.74 42.743-19.169 61.033-33.801 4.075-3.296 7.797-6.58 11.202-9.815-12.387-10.261-27.311-16.994-43.201-19.49s-32.16-.664-47.096 5.305c-14.937 5.968-27.989 15.852-37.784 28.612-9.794 12.759-15.969 27.922-17.874 43.894z" fill="#fff"/><path d="m432.507 188.391c-1.192 3.843-2.562 7.812-4.111 11.907 12.019 20.448 16.173 44.575 11.683 67.865s-17.316 44.144-36.076 58.657c-18.759 14.514-42.166 21.691-65.837 20.188s-45.982-11.583-62.755-28.352c-2.263-2.263-4.403-4.622-6.41-7.055-3.953.268-7.967.475-12.042.572 16.415 23.279 41.405 39.084 69.472 43.938 28.068 4.854 56.914-1.641 80.193-18.055 23.279-16.415 39.084-41.405 43.938-69.472 4.854-28.068-1.641-56.914-18.055-80.193z" fill="#fff"/><path d="m275.411 180.789c17.244-17.243 40.326-27.395 64.689-28.453s48.238 7.054 66.913 22.736c2.433-2.529 4.647-4.986 6.678-7.358-14.989-12.677-33.166-21.004-52.555-24.074-19.389-3.071-39.249-.769-57.421 6.656-18.173 7.425-33.963 19.689-45.654 35.458-11.691 15.77-18.837 34.443-20.66 53.989 3.357 0 6.69-.134 9.986-.28 2.3-22.203 12.199-42.93 28.024-58.674z" fill="#fff"/><path d="m271.299 301.482c31.138-2.53 58.382-10.509 81.066-23.815 22.356-13.089 40.94-31.745 53.943-54.15 4.59-7.809 8.559-15.967 11.871-24.398 1.208-3.066 2.307-6.07 3.296-9.013l.304-.888-.438.705c-1.435 2.36-2.967 4.744-4.597 7.176-3.882 5.741-8.076 11.263-12.565 16.542-16.962 19.866-37.991 35.859-61.666 46.9-24.167 11.36-51.704 18.245-82.099 20.422-2.749.194-5.514.353-8.295.474-3.422.154-6.868.252-10.339.292 2.238 7.188 5.23 14.119 8.928 20.677 3.831 0 7.626-.122 11.36-.292 3.113-.194 6.166-.377 9.231-.632z" fill="#fff"/><path d="m257.397 271.22c29.97-1.934 57.008-8.514 80.604-19.46 22.37-10.372 42.258-25.42 58.321-44.127 5.01-5.859 9.625-12.043 13.817-18.512 1.541-2.384 2.984-4.728 4.33-7.031l.572-.997c-.256.268-.499.535-.766.803-1.776 1.849-3.649 3.734-5.644 5.631-3.649 3.54-7.784 7.164-12.26 10.777-19.154 15.332-40.764 27.311-63.916 35.43-23.633 8.38-49.625 13.513-77.6 15.253-2.627.17-5.27.308-7.93.413-3.284.134-6.592.207-9.925.255v.061c-.001 7.425.761 14.831 2.274 22.1 3.406 0 6.775-.065 10.108-.194 2.651-.085 5.352-.219 8.015-.402z" fill="#fff"/></mask><path d="m0 0h1400v500h-1400z" fill="#1a1a1a"/><g fill="#e6e6e6"><path d="m583.254 311.504-12.369-33.192h-49.443l-12.163 33.192h-24.751l47.922-126.154h27.257l48.433 126.154zm-55.037-53.164h35.723l-17.941-47.922z"/><path d="m621.507 175.705h23.377v135.799h-23.377z"/><path d="m697.367 218.373h25.396v19.46h-25.396v37.596c0 12.528 7.954 17.442 18.792 17.442 2.788-.048 5.567-.333 8.307-.852v19.984c-4.395.951-8.883 1.404-13.379 1.35-23.207 0-36.404-13.878-36.404-36.744v-38.764h-13.586v-19.46h13.744v-21.699h22.526z"/><path d="m740.034 189.924c0-3.481 1.383-6.819 3.844-9.28 2.461-2.462 5.8-3.844 9.28-3.844 3.481 0 6.819 1.382 9.28 3.844 2.461 2.461 3.844 5.799 3.844 9.28 0 3.48-1.383 6.818-3.844 9.279-2.461 2.462-5.799 3.844-9.28 3.844-3.48 0-6.819-1.382-9.28-3.844-2.461-2.461-3.844-5.799-3.844-9.279zm1.533 28.449h23.365v93.131h-23.365z"/><path d="m817.415 218.373h25.408v19.46h-25.408v37.596c0 12.528 7.967 17.442 18.804 17.442 2.784-.049 5.559-.333 8.295-.852v19.984c-4.395.951-8.883 1.404-13.379 1.35-23.195 0-36.404-13.878-36.404-36.744v-38.764h-13.549v-19.46h13.707v-21.699h22.514z"/><path d="m860.253 274.419v-56.046h23.426v56.046c0 11.689 6.434 18.123 17.441 18.123 11.008 0 17.941-6.434 17.941-18.244v-55.925h23.377v55.876c0 23.195-15.751 39.627-41.354 39.627s-40.831-16.432-40.831-39.457z"/><path d="m960.305 264.932c0-29.799 19.984-48.761 41.825-48.761 6.01-.091 11.94 1.392 17.2 4.302 5.26 2.911 9.66 7.147 12.77 12.288v-57.056h23.37v135.799h-19.62l-2.43-15.24c-3.21 5.397-7.77 9.862-13.23 12.952-5.47 3.089-11.65 4.696-17.92 4.66-21.616 0-41.965-19.132-41.965-48.944zm72.135 0c0-16.249-10.34-27.597-24.04-27.597-14.063 0-24.56 11.518-24.56 27.597 0 16.08 10.497 27.61 24.56 27.61 13.73 0 24.07-11.348 24.07-27.61z"/><path d="m1162.33 271.707h-65.36c3.22 14.9 15.24 23.207 30.65 23.207 10.34 0 20.49-3.734 29.64-10.168v19.983c-9.7 6.04-20.91 9.211-32.34 9.147-31.5 0-50.3-20.154-50.3-48.652 0-29.799 20.83-49.102 46.22-49.102 23.2 0 42.16 16.25 42.16 47.071-.02 2.85-.25 5.695-.67 8.514zm-21.67-14.729c-.34-14.389-9.14-22.015-19.97-22.015-11.52 0-21.35 8.514-23.88 22.015z"/></g><g stroke="#1f1f1f" stroke-width="2"><path d="m583.254 311.504-12.369-33.192h-49.443l-12.163 33.192h-24.751l47.922-126.154h27.257l48.433 126.154zm-55.037-53.164h35.723l-17.941-47.922z" mask="url(#a)"/><path d="m621.507 175.705h23.377v135.799h-23.377z" mask="url(#a)"/><path d="m697.367 218.373h25.396v19.46h-25.396v37.596c0 12.528 7.954 17.442 18.792 17.442 2.788-.048 5.567-.333 8.307-.852v19.984c-4.395.951-8.883 1.404-13.379 1.35-23.207 0-36.404-13.878-36.404-36.744v-38.764h-13.586v-19.46h13.744v-21.699h22.526z" mask="url(#a)"/><path d="m740.034 189.924c0-3.481 1.383-6.819 3.844-9.28 2.461-2.462 5.8-3.844 9.28-3.844 3.481 0 6.819 1.382 9.28 3.844 2.461 2.461 3.844 5.799 3.844 9.28 0 3.48-1.383 6.818-3.844 9.279-2.461 2.462-5.799 3.844-9.28 3.844-3.48 0-6.819-1.382-9.28-3.844-2.461-2.461-3.844-5.799-3.844-9.279zm1.533 28.449h23.365v93.131h-23.365z" mask="url(#a)"/><path d="m817.415 218.373h25.408v19.46h-25.408v37.596c0 12.528 7.967 17.442 18.804 17.442 2.784-.049 5.559-.333 8.295-.852v19.984c-4.395.951-8.883 1.404-13.379 1.35-23.195 0-36.404-13.878-36.404-36.744v-38.764h-13.549v-19.46h13.707v-21.699h22.514z" mask="url(#a)"/><path d="m860.253 274.419v-56.046h23.426v56.046c0 11.689 6.434 18.123 17.441 18.123 11.008 0 17.941-6.434 17.941-18.244v-55.925h23.377v55.876c0 23.195-15.751 39.627-41.354 39.627s-40.831-16.432-40.831-39.457z" mask="url(#a)"/><path d="m960.305 264.932c0-29.799 19.984-48.761 41.825-48.761 6.01-.091 11.94 1.392 17.2 4.302 5.26 2.911 9.66 7.147 12.77 12.288v-57.056h23.37v135.799h-19.62l-2.43-15.24c-3.21 5.397-7.77 9.862-13.23 12.952-5.47 3.089-11.65 4.696-17.92 4.66-21.616 0-41.965-19.132-41.965-48.944zm72.135 0c0-16.249-10.34-27.597-24.04-27.597-14.063 0-24.56 11.518-24.56 27.597 0 16.08 10.497 27.61 24.56 27.61 13.73 0 24.07-11.348 24.07-27.61z" mask="url(#a)"/><path d="m1162.33 271.707h-65.36c3.22 14.9 15.24 23.207 30.65 23.207 10.34 0 20.49-3.734 29.64-10.168v19.983c-9.7 6.04-20.91 9.211-32.34 9.147-31.5 0-50.3-20.154-50.3-48.652 0-29.799 20.83-49.102 46.22-49.102 23.2 0 42.16 16.25 42.16 47.071-.02 2.85-.25 5.695-.67 8.514zm-21.67-14.729c-.34-14.389-9.14-22.015-19.97-22.015-11.52 0-21.35 8.514-23.88 22.015z" mask="url(#a)"/></g><path d="m357.608 286.083c-22.417 13.173-48.822 21.407-78.768 24.643 14.664 15.762 34.518 25.712 55.922 28.026s42.925-3.164 60.619-15.428c17.694-12.265 30.375-30.496 35.719-51.351s2.994-42.937-6.621-62.2c-2.789 6.303-5.932 12.443-9.414 18.391-13.825 23.947-33.621 43.903-57.457 57.919z" fill="#00b4ff"/><path d="m255.427 239.037c25.121-1.48 49.917-6.429 73.683-14.705 22.107-7.74 42.743-19.169 61.033-33.801 4.075-3.296 7.797-6.58 11.202-9.815-12.387-10.261-27.311-16.994-43.201-19.49s-32.16-.664-47.096 5.305c-14.937 5.968-27.989 15.852-37.784 28.612-9.794 12.759-15.969 27.922-17.874 43.894z" fill="#00b4ff"/><path d="m432.507 188.391c-1.192 3.843-2.562 7.812-4.111 11.907 12.019 20.448 16.173 44.575 11.683 67.865s-17.316 44.144-36.076 58.657c-18.759 14.514-42.166 21.691-65.837 20.188s-45.982-11.583-62.755-28.352c-2.263-2.263-4.403-4.622-6.41-7.055-3.953.268-7.967.475-12.042.572 16.415 23.279 41.405 39.084 69.472 43.938 28.068 4.854 56.914-1.641 80.193-18.055 23.279-16.415 39.084-41.405 43.938-69.472 4.854-28.068-1.641-56.914-18.055-80.193z" fill="#00b4ff"/><path d="m275.411 180.789c17.244-17.243 40.326-27.395 64.689-28.453s48.238 7.054 66.913 22.736c2.433-2.529 4.647-4.986 6.678-7.358-14.989-12.677-33.166-21.004-52.555-24.074-19.389-3.071-39.249-.769-57.421 6.656-18.173 7.425-33.963 19.689-45.654 35.458-11.691 15.77-18.837 34.443-20.66 53.989 3.357 0 6.69-.134 9.986-.28 2.3-22.203 12.199-42.93 28.024-58.674z" fill="#00b4ff"/><path d="m271.299 301.482c31.138-2.53 58.382-10.509 81.066-23.815 22.356-13.089 40.94-31.745 53.943-54.15 4.59-7.809 8.559-15.967 11.871-24.398 1.208-3.066 2.307-6.07 3.296-9.013l.304-.888-.438.705c-1.435 2.36-2.967 4.744-4.597 7.176-3.882 5.741-8.076 11.263-12.565 16.542-16.962 19.866-37.991 35.859-61.666 46.9-24.167 11.36-51.704 18.245-82.099 20.422-2.749.194-5.514.353-8.295.474-3.422.154-6.868.252-10.339.292 2.238 7.188 5.23 14.119 8.928 20.677 3.831 0 7.626-.122 11.36-.292 3.113-.194 6.166-.377 9.231-.632z" fill="#00b4ff"/><path d="m257.397 271.22c29.97-1.934 57.008-8.514 80.604-19.46 22.37-10.372 42.258-25.42 58.321-44.127 5.01-5.859 9.625-12.043 13.817-18.512 1.541-2.384 2.984-4.728 4.33-7.031l.572-.997c-.256.268-.499.535-.766.803-1.776 1.849-3.649 3.734-5.644 5.631-3.649 3.54-7.784 7.164-12.26 10.777-19.154 15.332-40.764 27.311-63.916 35.43-23.633 8.38-49.625 13.513-77.6 15.253-2.627.17-5.27.308-7.93.413-3.284.134-6.592.207-9.925.255v.061c-.001 7.425.761 14.831 2.274 22.1 3.406 0 6.775-.065 10.108-.194 2.651-.085 5.352-.219 8.015-.402z" fill="#00b4ff"/><path d="m357.608 286.083c-22.417 13.173-48.822 21.407-78.768 24.643 14.664 15.762 34.518 25.712 55.922 28.026s42.925-3.164 60.619-15.428c17.694-12.265 30.375-30.496 35.719-51.351s2.994-42.937-6.621-62.2c-2.789 6.303-5.932 12.443-9.414 18.391-13.825 23.947-33.621 43.903-57.457 57.919z" mask="url(#b)" stroke="#1f1f1f" stroke-width="2"/><path d="m255.427 239.037c25.121-1.48 49.917-6.429 73.683-14.705 22.107-7.74 42.743-19.169 61.033-33.801 4.075-3.296 7.797-6.58 11.202-9.815-12.387-10.261-27.311-16.994-43.201-19.49s-32.16-.664-47.096 5.305c-14.937 5.968-27.989 15.852-37.784 28.612-9.794 12.759-15.969 27.922-17.874 43.894z" mask="url(#b)" stroke="#1f1f1f" stroke-width="2"/><path d="m432.507 188.391c-1.192 3.843-2.562 7.812-4.111 11.907 12.019 20.448 16.173 44.575 11.683 67.865s-17.316 44.144-36.076 58.657c-18.759 14.514-42.166 21.691-65.837 20.188s-45.982-11.583-62.755-28.352c-2.263-2.263-4.403-4.622-6.41-7.055-3.953.268-7.967.475-12.042.572 16.415 23.279 41.405 39.084 69.472 43.938 28.068 4.854 56.914-1.641 80.193-18.055 23.279-16.415 39.084-41.405 43.938-69.472 4.854-28.068-1.641-56.914-18.055-80.193z" mask="url(#b)" stroke="#1f1f1f" stroke-width="2"/><path d="m275.411 180.789c17.244-17.243 40.326-27.395 64.689-28.453s48.238 7.054 66.913 22.736c2.433-2.529 4.647-4.986 6.678-7.358-14.989-12.677-33.166-21.004-52.555-24.074-19.389-3.071-39.249-.769-57.421 6.656-18.173 7.425-33.963 19.689-45.654 35.458-11.691 15.77-18.837 34.443-20.66 53.989 3.357 0 6.69-.134 9.986-.28 2.3-22.203 12.199-42.93 28.024-58.674z" mask="url(#b)" stroke="#1f1f1f" stroke-width="2"/><path d="m271.299 301.482c31.138-2.53 58.382-10.509 81.066-23.815 22.356-13.089 40.94-31.745 53.943-54.15 4.59-7.809 8.559-15.967 11.871-24.398 1.208-3.066 2.307-6.07 3.296-9.013l.304-.888-.438.705c-1.435 2.36-2.967 4.744-4.597 7.176-3.882 5.741-8.076 11.263-12.565 16.542-16.962 19.866-37.991 35.859-61.666 46.9-24.167 11.36-51.704 18.245-82.099 20.422-2.749.194-5.514.353-8.295.474-3.422.154-6.868.252-10.339.292 2.238 7.188 5.23 14.119 8.928 20.677 3.831 0 7.626-.122 11.36-.292 3.113-.194 6.166-.377 9.231-.632z" mask="url(#b)" stroke="#1f1f1f" stroke-width="2"/><path d="m257.397 271.22c29.97-1.934 57.008-8.514 80.604-19.46 22.37-10.372 42.258-25.42 58.321-44.127 5.01-5.859 9.625-12.043 13.817-18.512 1.541-2.384 2.984-4.728 4.33-7.031l.572-.997c-.256.268-.499.535-.766.803-1.776 1.849-3.649 3.734-5.644 5.631-3.649 3.54-7.784 7.164-12.26 10.777-19.154 15.332-40.764 27.311-63.916 35.43-23.633 8.38-49.625 13.513-77.6 15.253-2.627.17-5.27.308-7.93.413-3.284.134-6.592.207-9.925.255v.061c-.001 7.425.761 14.831 2.274 22.1 3.406 0 6.775-.065 10.108-.194 2.651-.085 5.352-.219 8.015-.402z" mask="url(#b)" stroke="#1f1f1f" stroke-width="2"/></svg>
