<svg fill="none" viewBox="0 0 335 285" xmlns="http://www.w3.org/2000/svg"><path d="m0 0h335v285h-335z" fill="#1a1a1a"/><path d="m221.159 109.589c.01 6.288-1.069 12.53-3.188 18.45-.511 1.42-1.077 2.814-1.698 4.181-2.904.618-9.717 2.059-11.462 2.492-1.666.528-2.22-.554-2.777-1.666-.557-1.111-3.329-7.167-3.329-7.167s-11.676 13.276-12.227 13.841c-2.244 1.663-4.462 0-3.91-2.22 0-2.223 6.127-28.774 6.127-28.774s-6.679 3.859-8.899 4.968c-1.689 1.111-2.798 1.111-3.907-1.109-1.056-1.584-8.695-16.2902-9.384-17.6154.031-.0634.05-.0951.05-.0951h-.1s.018.0317.05.0951c-.689 1.3199-8.326 16.0294-9.385 17.6154-1.108 2.22-2.22 2.22-3.907 1.109-2.22-1.109-8.901-4.968-8.901-4.968s6.127 26.543 6.127 28.774c.554 2.22-1.666 3.883-3.907 2.22-.554-.557-12.23-13.83-12.23-13.83s-2.783 6.058-3.329 7.167c-.547 1.109-1.109 2.199-2.775 1.666-1.745-.433-8.537-1.875-11.459-2.492-.607-1.331-1.161-2.688-1.66-4.071-2.715-7.504-3.754-15.511-3.044-23.459.71-7.9482 3.151-15.6446 7.152-22.5489 4.001-6.9042 9.464-12.849 16.007-17.4167 6.544-4.5677 14.007-7.6478 21.867-9.0238 7.861-1.3761 15.927-1.0148 23.632 1.0585 7.706 2.0733 14.864 5.8083 20.973 10.9427 6.108 5.1345 11.019 11.5439 14.387 18.7782 3.367 7.2343 5.11 15.118 5.106 23.098z" fill="#333"/><path d="m216.273 132.231c-4.354 9.541-11.36 17.63-20.183 23.302-8.822 5.671-19.089 8.687-29.578 8.687-10.488 0-20.755-3.016-29.577-8.687-8.823-5.672-15.829-13.761-20.183-23.302 2.922.617 9.714 2.059 11.459 2.492 1.666.528 2.22-.555 2.775-1.666.554-1.111 3.329-7.167 3.329-7.167s11.676 13.273 12.23 13.83c2.241 1.663 4.461 0 3.907-2.22 0-2.223-6.127-28.774-6.127-28.774s6.681 3.859 8.901 4.968c1.687 1.111 2.798 1.111 3.907-1.109 1.056-1.584 8.696-16.2901 9.385-17.6153.689 1.3199 8.326 16.0293 9.384 17.6153 1.109 2.22 2.218 2.22 3.907 1.109 2.22-1.109 8.899-4.968 8.899-4.968s-6.127 26.543-6.127 28.774c-.552 2.22 1.666 3.883 3.91 2.22.551-.557 12.227-13.83 12.227-13.83s2.756 6.058 3.316 7.167c.559 1.109 1.111 2.199 2.777 1.666 1.745-.433 8.542-1.875 11.462-2.492z" fill="#eb0000"/><g fill="#e6e6e6"><path d="m186.147 77.7791-28.668 61.5099 5.728 10.404 10.705-5.142z"/><path d="m124.584 130.742c1.836 0 3.324-1.488 3.324-3.324 0-1.835-1.488-3.323-3.324-3.323-1.835 0-3.323 1.488-3.323 3.323 0 1.836 1.488 3.324 3.323 3.324z"/><path d="m124.407 95.5318c1.836 0 3.324-1.488 3.324-3.3235 0-1.8356-1.488-3.3236-3.324-3.3236-1.835 0-3.323 1.488-3.323 3.3236 0 1.8355 1.488 3.3235 3.323 3.3235z"/><path d="m149.179 70.509c1.836 0 3.324-1.488 3.324-3.3236 0-1.8355-1.488-3.3235-3.324-3.3235-1.835 0-3.323 1.488-3.323 3.3235 0 1.8356 1.488 3.3236 3.323 3.3236z"/><path d="m184.389 70.3348c1.836 0 3.324-1.488 3.324-3.3235s-1.488-3.3235-3.324-3.3235c-1.835 0-3.323 1.488-3.323 3.3235s1.488 3.3235 3.323 3.3235z"/><path d="m209.412 95.1068c1.835 0 3.323-1.488 3.323-3.3235 0-1.8356-1.488-3.3235-3.323-3.3235-1.836 0-3.324 1.4879-3.324 3.3235 0 1.8355 1.488 3.3235 3.324 3.3235z"/><path d="m209.586 130.314c1.836 0 3.324-1.488 3.324-3.323 0-1.836-1.488-3.324-3.324-3.324-1.835 0-3.323 1.488-3.323 3.324 0 1.835 1.488 3.323 3.323 3.323z"/><path d="m120.994 113.155c1.835 0 3.323-1.488 3.323-3.323 0-1.836-1.488-3.324-3.323-3.324-1.836 0-3.324 1.488-3.324 3.324 0 1.835 1.488 3.323 3.324 3.323z"/><path d="m134.307 80.5561c1.835 0 3.323-1.488 3.323-3.3235s-1.488-3.3235-3.323-3.3235c-1.836 0-3.324 1.488-3.324 3.3235s1.488 3.3235 3.324 3.3235z"/><path d="m166.766 66.9215c1.835 0 3.323-1.488 3.323-3.3235 0-1.8356-1.488-3.3236-3.323-3.3236-1.836 0-3.324 1.488-3.324 3.3236 0 1.8355 1.488 3.3235 3.324 3.3235z"/><path d="m199.365 80.2314c1.835 0 3.323-1.488 3.323-3.3235s-1.488-3.3235-3.323-3.3235c-1.836 0-3.324 1.488-3.324 3.3235s1.488 3.3235 3.324 3.3235z"/><path d="m212.999 112.693c1.836 0 3.324-1.488 3.324-3.323 0-1.836-1.488-3.324-3.324-3.324-1.835 0-3.323 1.488-3.323 3.324 0 1.835 1.488 3.323 3.323 3.323z"/><path d="m166.504 49.665c-33.1 0-59.923 26.8338-59.923 59.924 0 15.896 6.314 31.141 17.554 42.381s26.485 17.555 42.381 17.555 31.141-6.315 42.381-17.555 17.555-26.485 17.555-42.381c-.013-33.0902-26.847-59.924-59.948-59.924zm49.769 82.566c-4.355 9.541-11.36 17.63-20.183 23.301-8.822 5.672-19.089 8.688-29.578 8.688-10.488 0-20.755-3.016-29.578-8.688-8.822-5.671-15.828-13.76-20.182-23.301-.607-1.331-1.161-2.688-1.661-4.071-2.962-8.245-3.898-17.08-2.73-25.763 1.169-8.6817 4.407-16.9557 9.443-24.124s11.721-13.0208 19.493-17.0641 16.401-6.1589 25.162-6.1683c8.76-.0094 17.394 2.0875 25.175 6.114 7.78 4.0266 14.478 9.8646 19.529 17.0221s8.308 15.4245 9.495 24.1043c1.187 8.679.27 17.517-2.675 25.768-.519 1.42-1.089 2.814-1.71 4.182z"/></g><path d="m166.916 141.808c2.228 0 4.034-1.806 4.034-4.034s-1.806-4.034-4.034-4.034c-2.227 0-4.033 1.806-4.033 4.034s1.806 4.034 4.033 4.034z" fill="#333"/><path d="m92.9778 208.262c.006.476-.0932.947-.2904 1.381-.1812.399-.4137.774-.6916 1.114-.244.304-.5202.581-.8237.826-.2152.177-.4468.334-.6916.467-.2376-.237-.5719-.55-1.0031-.937-.509-.439-1.0702-.813-1.671-1.114-.776-.393-1.5897-.706-2.4286-.934-1.0385-.281-2.1108-.416-3.1863-.402-1.3311-.018-2.6516.24-3.8779.758-1.1373.49-2.1556 1.219-2.9856 2.138-.859.968-1.5175 2.097-1.9377 3.321-.4786 1.398-.7126 2.868-.6916 4.345 0 3.416.8694 6.016 2.6082 7.801 1.7387 1.784 4.0609 2.676 6.9664 2.674 1.101.012 2.1999-.099 3.276-.333.8411-.186 1.6677-.432 2.4735-.736.5737-.21 1.1255-.475 1.6473-.792.4171-.264.6837-.444.7919-.528l2.8537 4.812c-.3287.278-.6821.524-1.056.737-.7404.422-1.5158.78-2.3177 1.069-1.1399.416-2.3102.743-3.5004.979-1.5187.299-3.064.442-4.6118.425-2.1235.017-4.2343-.33-6.2405-1.027-1.8758-.647-3.5875-1.697-5.0156-3.075-1.4524-1.427-2.5907-3.142-3.342-5.034-.8184-1.99-1.2267-4.308-1.2249-6.953-.0381-2.295.3782-4.575 1.2249-6.708.7611-1.904 1.9152-3.625 3.3868-5.053 1.4611-1.395 3.1898-2.48 5.0817-3.189 2.026-.755 4.1734-1.133 6.3355-1.114 2.4375 0 4.3989.253 5.8842.758s2.5844 1.01 3.2971 1.515c.5152.365.9545.827 1.2935 1.36.2865.43.4482.932.4673 1.449z" fill="#e6e6e6"/><path d="m96.758 234.557c.6511-1.76 1.3551-3.572 2.1118-5.438.7568-1.865 1.5142-3.713 2.2732-5.543.758-1.827 1.502-3.602 2.23-5.325.729-1.723 1.405-3.307 2.028-4.752.623-1.441 1.18-2.712 1.671-3.811.491-1.1.884-1.947 1.18-2.54.654-1.397 1.382-2.349 2.183-2.854.875-.525 1.883-.788 2.904-.757 1.158 0 2.038.163 2.639.491.466.226.898.515 1.286.858.528.922 1.167 2.163 1.917 3.722.749 1.559 1.53 3.282 2.341 5.169.815 1.888 1.639 3.848 2.474 5.881.834 2.033 1.621 4.001 2.362 5.905.741 1.905 1.417 3.643 2.028 5.217.61 1.573 1.092 2.836 1.446 3.788h-6.863c-.238-.655-.571-1.524-1.001-2.608-.429-1.084-.941-2.388-1.536-3.91h-14.572c-.597 1.515-1.102 2.808-1.515 3.878-.414 1.07-.756 1.95-1.027 2.64zm16.399-24.656c-.148.296-.393.86-.734 1.692-.342.833-.743 1.828-1.204 2.986-.461 1.16-.974 2.43-1.539 3.812s-1.117 2.759-1.655 4.131h10.205c-.528-1.364-1.07-2.737-1.626-4.12-.556-1.384-1.069-2.646-1.539-3.789-.475-1.143-.883-2.132-1.225-2.964-.341-.833-.569-1.415-.683-1.748z" fill="#e6e6e6"/><path d="m142.342 205.01c.357.412.692.843 1.003 1.291.528.704 1.16 1.584 1.896 2.639l2.473 3.519c.905 1.294 1.818 2.631 2.74 4.013.923 1.381 1.826 2.745 2.712 4.092.879 1.335 1.66 2.553 2.341 3.653v-17.423c0-1.04.304-1.774.913-2.207.61-.432 1.431-.646 2.474-.646.656-.014 1.31.075 1.938.264.549.177.897.295 1.055.356v29.996h-6.346c-1.04-1.605-2.213-3.41-3.518-5.417-1.306-2.006-2.615-3.981-3.926-5.926-1.307-1.945-2.548-3.771-3.722-5.48s-2.132-3.084-2.875-4.124v20.947h-6.335v-27.364c.001-.397.077-.79.224-1.159.149-.393.376-.753.668-1.056.328-.332.723-.59 1.159-.757.525-.203 1.084-.301 1.647-.291.761-.035 1.521.095 2.228.38.436.199.854.433 1.251.7z" fill="#e6e6e6"/><path d="m167.217 234.557c.651-1.76 1.355-3.572 2.112-5.438.757-1.865 1.514-3.713 2.273-5.543.758-1.827 1.502-3.602 2.231-5.325.728-1.723 1.404-3.307 2.027-4.752.623-1.441 1.18-2.712 1.671-3.811.491-1.1.884-1.947 1.18-2.54.655-1.397 1.382-2.349 2.183-2.854.876-.525 1.883-.788 2.904-.757 1.159 0 2.041.163 2.64.491.459.224.886.509 1.269.847.528.922 1.167 2.163 1.917 3.722.75 1.56 1.532 3.282 2.347 5.169.815 1.888 1.639 3.849 2.473 5.882.834 2.032 1.621 4.001 2.36 5.905.745 1.904 1.421 3.643 2.03 5.216s1.091 2.836 1.447 3.788h-6.864c-.237-.654-.571-1.524-1-2.608s-.942-2.384-1.539-3.899h-14.572c-.596 1.515-1.102 2.808-1.518 3.878-.415 1.07-.757 1.95-1.024 2.64zm16.399-24.656c-.148.296-.393.86-.734 1.692-.341.833-.744 1.832-1.206 2.997-.462 1.159-.975 2.43-1.539 3.812-.565 1.381-1.114 2.755-1.648 4.12h10.208c-.528-1.364-1.07-2.737-1.626-4.12-.556-1.384-1.069-2.646-1.539-3.789-.475-1.143-.883-2.132-1.225-2.964-.341-.833-.572-1.415-.691-1.748z" fill="#e6e6e6"/><path d="m233.263 219.225c.03 2.156-.356 4.297-1.135 6.307-.72 1.83-1.831 3.48-3.255 4.836-1.476 1.375-3.221 2.429-5.124 3.096-2.17.756-4.455 1.126-6.753 1.093h-11.351v-27.142c0-2.318 1.204-3.477 3.611-3.477h7.392c1.918-.032 3.832.163 5.704.581 1.635.384 3.192 1.044 4.604 1.951 1.328.854 2.491 1.942 3.432 3.21.958 1.305 1.683 2.768 2.141 4.321.499 1.696.746 3.456.734 5.224zm-6.684 0c0-2.288-.52-4.286-1.56-5.995s-2.689-2.875-4.947-3.498c-.555-.157-1.122-.269-1.695-.335-.635-.073-1.274-.11-1.914-.111h-4.369v19.923h4.636c1.465.028 2.921-.241 4.279-.792 1.162-.479 2.209-1.199 3.073-2.112.843-.909 1.481-1.99 1.871-3.168.423-1.26.635-2.582.626-3.912z" fill="#e6e6e6"/><path d="m235.937 234.557c.653-1.76 1.357-3.572 2.112-5.438.755-1.865 1.512-3.713 2.273-5.543.756-1.827 1.499-3.602 2.228-5.325.728-1.723 1.404-3.307 2.027-4.752.627-1.441 1.184-2.711 1.671-3.811.488-1.1.882-1.947 1.183-2.54.653-1.397 1.38-2.348 2.183-2.854.875-.525 1.883-.788 2.904-.757 1.158 0 2.038.164 2.639.491.459.225.886.51 1.27.847.528.922 1.167 2.163 1.917 3.722.749 1.56 1.529 3.283 2.339 5.169.818 1.888 1.642 3.849 2.473 5.882.831 2.032 1.618 4.001 2.363 5.905.742 1.904 1.418 3.643 2.027 5.216s1.092 2.836 1.449 3.788h-6.863c-.238-.654-.572-1.524-1.003-2.608s-.944-2.384-1.537-3.899h-14.561c-.593 1.515-1.098 2.808-1.515 3.878l-1.024 2.64zm16.401-24.656c-.149.296-.395.86-.736 1.693-.342.832-.743 1.827-1.204 2.985-.459 1.16-.972 2.431-1.537 3.812-.564 1.382-1.114 2.755-1.649 4.121h10.205c-.528-1.364-1.07-2.738-1.626-4.121s-1.068-2.646-1.536-3.788c-.476-1.144-.885-2.132-1.228-2.965-.343-.832-.573-1.411-.689-1.737z" fill="#e6e6e6"/><path d="m91.6314 189.098c.0154 1.125-.1863 2.243-.594 3.291-.3759.954-.9551 1.815-1.6974 2.522-.77.717-1.6806 1.267-2.6741 1.615-1.1315.394-2.3234.587-3.5215.57h-5.9291v-14.16c0-1.207.6283-1.811 1.8849-1.811h3.8594c1-.017 1.9987.084 2.975.301.8533.198 1.6665.54 2.4049 1.011.6931.446 1.3003 1.013 1.7924 1.674.4972.682.874 1.445 1.114 2.254.2624.887.3923 1.808.3855 2.733zm-3.4872 0c.0254-1.098-.2572-2.181-.8157-3.126-.5403-.892-1.4-1.501-2.5791-1.827-.2897-.081-.5854-.139-.8844-.174-.3321-.038-.6661-.057-1.0005-.058h-2.2781v10.393h2.418c.7643.017 1.5241-.121 2.2333-.407.6055-.251 1.1515-.627 1.6024-1.103.44-.475.7731-1.038.9767-1.653.2214-.659.332-1.35.3274-2.045z" fill="#eb0000"/><path d="m98.8381 190.539v3.603h7.8669v2.954h-11.238v-14.16c0-1.207.6274-1.811 1.8822-1.811h7.8828c.589 0 .999.124 1.23.37.25.299.375.683.348 1.072.005.324-.045.646-.15.953-.063.193-.144.379-.243.557h-7.5789v3.511h6.0719c.587 0 .998.124 1.232.372.247.295.372.672.349 1.056.001.529-.135 1.049-.396 1.51z" fill="#eb0000"/><path d="m120.762 185.146c-.177-.192-.364-.374-.56-.547-.271-.233-.572-.428-.895-.58-.417-.197-.853-.349-1.301-.454-.568-.131-1.149-.193-1.732-.185-.466-.012-.932.042-1.383.161-.316.084-.609.235-.861.443-.197.169-.349.386-.441.629-.084.222-.128.458-.129.697.001.215.046.429.132.627s.212.376.37.524c.332.332.924.592 1.776.778l1.977.441c.706.155 1.398.365 2.07.628.572.223 1.107.533 1.584.919.435.359.785.81 1.024 1.32.251.571.373 1.19.359 1.814.012.721-.115 1.438-.372 2.111-.245.625-.641 1.18-1.151 1.616-.584.489-1.265.848-1.998 1.056-.945.266-1.923.391-2.904.372-.927.007-1.852-.089-2.759-.285-.683-.144-1.352-.35-1.998-.615-.446-.182-.874-.404-1.28-.663-.309-.208-.502-.346-.581-.406l1.584-2.418c.152.132.312.257.478.372.322.224.664.418 1.021.581.499.226 1.017.409 1.547.546.66.17 1.34.251 2.022.243.514.013 1.026-.046 1.523-.174.335-.085.647-.239.919-.452.206-.173.363-.398.454-.652.084-.247.127-.507.127-.768.007-.274-.054-.547-.178-.792s-.307-.455-.532-.612c-.597-.406-1.276-.677-1.988-.792l-2.183-.444c-.539-.11-1.065-.274-1.571-.488-.513-.213-.988-.507-1.407-.871-.422-.368-.765-.817-1.011-1.32-.267-.57-.398-1.195-.383-1.824-.006-.666.121-1.327.372-1.943.252-.602.637-1.138 1.128-1.568.556-.478 1.205-.838 1.906-1.056.868-.271 1.775-.4 2.684-.383.669-.007 1.338.035 2.001.127.482.07.959.172 1.428.303.328.09.647.211.953.359.241.124.423.225.547.304.278.167.513.398.686.673.153.228.238.494.246.768.003.246-.053.489-.164.708-.102.2-.227.388-.372.559-.126.15-.271.282-.431.394-.112.081-.23.154-.353.219z" fill="#eb0000"/><path d="m137.063 181.128c.587 0 .998.123 1.232.37.251.299.375.683.349 1.071.005.324-.046.647-.151.953-.062.194-.144.381-.245.557h-5.211v13.02h-3.366v-13.022h-3.696c-.589 0-.999-.124-1.23-.372-.25-.298-.376-.681-.351-1.07-.005-.324.046-.646.153-.953.062-.193.144-.379.243-.557z" fill="#eb0000"/><path d="m141.55 182.612c0-.542.159-.927.478-1.151.384-.243.835-.36 1.288-.336.35-.005.699.041 1.035.138.304.095.494.155.57.187v15.646h-3.371z" fill="#eb0000"/><path d="m153.192 181.682c.188.215.365.439.528.674.273.373.603.834.99 1.383l1.288 1.848c.473.672.95 1.37 1.431 2.093.48.723.949 1.433 1.407 2.128.457.704.864 1.339 1.219 1.906v-9.102c0-.542.159-.927.478-1.151.385-.243.836-.36 1.291-.336.342-.006.683.04 1.011.138.285.095.467.155.547.187v15.646h-3.308c-.544-.837-1.154-1.779-1.848-2.824-.694-1.046-1.362-2.078-2.046-3.092-.684-1.013-1.32-1.969-1.94-2.861s-1.111-1.608-1.5-2.149v10.926h-3.291v-14.276c.001-.206.04-.41.116-.602.08-.203.198-.39.348-.549.172-.172.378-.306.605-.393.274-.105.566-.156.86-.151.398-.017.794.05 1.164.196.226.103.443.224.65.361z" fill="#eb0000"/><path d="m166.164 197.096c.34-.913.71-1.848 1.106-2.835s.792-1.943 1.185-2.904c.394-.961.792-1.879 1.162-2.777.369-.897.734-1.726 1.056-2.476s.615-1.415.871-1.988c.256-.572.462-1.016.618-1.32.339-.728.718-1.224 1.137-1.488.456-.275.981-.412 1.513-.396.475-.023.949.068 1.383.264.24.118.462.267.663.443.277.481.612 1.127.998 1.94.385.813.792 1.714 1.222 2.696s.855 2.009 1.288 3.07.845 2.088 1.233 3.08c.388.993.742 1.898 1.056 2.719s.57 1.481.755 1.978h-3.582c-.124-.34-.3-.793-.528-1.36-.225-.567-.494-1.243-.792-2.035h-7.603l-.792 2.022-.528 1.373zm8.556-12.856c-.077.154-.204.449-.383.882-.18.433-.388.953-.629 1.558-.24.604-.506 1.267-.791 1.987-.286.721-.581 1.439-.858 2.152h5.321c-.277-.713-.562-1.431-.847-2.152-.285-.72-.554-1.378-.792-1.974-.237-.597-.462-1.112-.639-1.547-.177-.436-.319-.737-.382-.906z" fill="#eb0000"/><path d="m194.457 181.128c.592 0 1.001.124 1.233.37.25.299.375.683.349 1.071.005.324-.046.647-.151.953-.062.194-.144.38-.243.557h-5.208v13.02h-3.371v-13.022h-3.696c-.591 0-1-.124-1.233-.372-.249-.299-.374-.682-.348-1.07-.005-.324.046-.646.15-.953.063-.193.144-.379.243-.557z" fill="#eb0000"/><path d="m198.945 182.612c0-.542.159-.927.478-1.151.385-.243.836-.36 1.291-.336.349-.005.697.041 1.032.138.304.095.494.155.57.187v15.646h-3.371z" fill="#eb0000"/><path d="m222.798 189.098c.012 1.137-.194 2.265-.604 3.326-.384.991-.961 1.895-1.697 2.661-.745.763-1.639 1.364-2.627 1.766-2.182.855-4.607.855-6.79 0-.987-.402-1.881-1.003-2.626-1.766-.738-.766-1.316-1.67-1.7-2.661-.806-2.143-.806-4.507 0-6.65.378-.993.957-1.896 1.701-2.655.744-.758 1.637-1.354 2.623-1.751 2.183-.851 4.606-.851 6.789 0 .986.397 1.879.993 2.623 1.751.744.759 1.323 1.662 1.701 2.655.411 1.06.617 2.187.607 3.324zm-3.487 0c.006-.749-.108-1.494-.338-2.207-.201-.641-.524-1.238-.953-1.756-.413-.489-.928-.882-1.51-1.151-.631-.287-1.318-.43-2.011-.419-.701-.012-1.396.131-2.035.419-.585.271-1.104.663-1.524 1.151-.433.516-.76 1.113-.963 1.756-.23.713-.344 1.458-.338 2.207-.006.746.108 1.489.338 2.199.208.643.535 1.242.963 1.766.415.5.935.901 1.524 1.174.639.287 1.334.429 2.035.418.693.01 1.38-.133 2.011-.418.586-.271 1.103-.673 1.51-1.174.423-.526.746-1.124.953-1.766.231-.71.345-1.453.338-2.199z" fill="#eb0000"/><path d="m230.377 181.682c.188.215.364.44.528.674.271.373.6.834.988 1.383l1.291 1.848c.471.672.948 1.37 1.43 2.093.483.723.952 1.433 1.407 2.128.458.704.864 1.339 1.22 1.906v-9.102c0-.542.158-.927.478-1.151.384-.243.834-.36 1.288-.336.342-.007.683.04 1.011.138.288.095.47.155.546.187v15.646h-3.299l-1.848-2.824c-.681-1.046-1.363-2.076-2.046-3.092-.683-1.015-1.33-1.969-1.94-2.861-.613-.891-1.113-1.607-1.5-2.149v10.926h-3.297v-14.276c.002-.206.041-.41.116-.602.078-.204.197-.391.349-.549.171-.172.377-.306.604-.393.275-.105.567-.156.861-.151.396-.017.792.049 1.161.196.227.103.445.224.652.361z" fill="#eb0000"/><path d="m254.743 185.146c-.177-.192-.364-.374-.56-.547-.27-.233-.571-.428-.895-.58-.416-.197-.853-.349-1.301-.454-.568-.131-1.149-.193-1.732-.185-.466-.012-.932.042-1.383.161-.316.084-.609.235-.861.443-.197.169-.349.385-.44.629-.085.222-.129.458-.13.697.001.215.046.429.132.627s.212.376.37.523c.332.333.925.593 1.776.779l1.978.441c.705.155 1.397.365 2.069.628.572.223 1.106.533 1.584.919.435.359.785.81 1.024 1.32.251.571.373 1.19.359 1.813.012.722-.115 1.438-.372 2.112-.245.625-.64 1.18-1.151 1.616-.584.489-1.265.848-1.998 1.056-.945.266-1.923.391-2.904.372-.929.014-1.857-.074-2.767-.264-.683-.144-1.352-.35-1.998-.615-.446-.182-.874-.404-1.28-.663-.309-.208-.502-.345-.581-.406l1.584-2.418c.152.133.312.257.478.372.322.224.664.418 1.021.581.499.226 1.017.409 1.547.546.661.17 1.341.252 2.022.243.514.013 1.026-.046 1.524-.174.334-.085.647-.239.918-.452.207-.173.363-.398.454-.652.084-.247.127-.507.127-.768.012-.276-.046-.551-.167-.8-.122-.248-.304-.463-.53-.623-.597-.406-1.275-.676-1.988-.792l-2.185-.443c-.538-.111-1.063-.275-1.568-.489-.513-.212-.989-.506-1.408-.871-.421-.368-.765-.817-1.011-1.32-.266-.57-.397-1.194-.382-1.824-.006-.666.12-1.326.372-1.943.251-.601.637-1.138 1.127-1.568.557-.478 1.205-.837 1.906-1.056.869-.27 1.775-.399 2.685-.382.669-.007 1.338.035 2.001.126.482.071.959.172 1.428.304.328.09.647.21.953.359.24.124.422.224.546.304.278.168.513.398.687.673.152.228.237.494.245.768.004.246-.052.488-.164.707-.101.201-.226.389-.372.56-.126.149-.27.281-.43.393-.114.081-.234.153-.359.217z" fill="#eb0000"/></svg>