<svg fill="none" viewBox="0 0 1400 500" xmlns="http://www.w3.org/2000/svg"><path d="m0 0h1400v500h-1400z" fill="#fcfcfc"/><path d="m483.78 249.543c.02 13.488-2.294 26.877-6.84 39.576-1.095 3.046-2.309 6.036-3.641 8.969-6.229 1.326-20.844 4.417-24.587 5.346-3.573 1.133-4.763-1.189-5.957-3.573-1.195-2.384-7.141-15.374-7.141-15.374s-25.046 28.477-26.229 29.689c-4.813 3.567-9.57 0-8.387-4.762 0-4.768 13.143-61.723 13.143-61.723s-14.326 8.279-19.088 10.657c-3.624 2.384-6.003 2.384-8.381-2.378-2.265-3.398-18.653-34.944-20.131-37.787.068-.136.108-.204.108-.204h-.215s.039.068.107.204c-1.478 2.832-17.859 34.384-20.13 37.787-2.378 4.762-4.762 4.762-8.381 2.378-4.762-2.378-19.094-10.657-19.094-10.657s13.143 56.938 13.143 61.723c1.189 4.762-3.573 8.329-8.381 4.762-1.189-1.195-26.235-29.666-26.235-29.666s-5.968 12.995-7.14 15.374c-1.173 2.378-2.379 4.716-5.952 3.573-3.743-.929-18.313-4.021-24.581-5.346-1.303-2.854-2.49-5.764-3.562-8.732-5.823-16.096-8.051-33.272-6.529-50.321 1.523-17.05 6.759-33.559 15.341-48.369s20.303-27.562 34.338-37.36c14.036-9.799 30.046-16.406 46.907-19.357 16.86-2.952 34.163-2.177 50.692 2.27 16.529 4.448 31.885 12.46 44.988 23.473 13.103 11.014 23.637 24.763 30.86 40.281 7.224 15.518 10.963 32.43 10.955 49.547z" fill="#fff"/><path d="m473.299 298.111c-9.341 20.468-24.369 37.819-43.294 49.985s-40.948 18.635-63.447 18.635c-22.498 0-44.522-6.469-63.447-18.635s-33.953-29.517-43.293-49.985c6.269 1.325 20.838 4.417 24.581 5.346 3.574 1.132 4.763-1.189 5.952-3.573s7.14-15.374 7.14-15.374 25.046 28.471 26.235 29.666c4.808 3.568 9.57 0 8.381-4.762 0-4.768-13.143-61.722-13.143-61.722s14.332 8.278 19.094 10.657c3.619 2.383 6.003 2.384 8.381-2.379 2.265-3.397 18.653-34.944 20.131-37.786 1.478 2.831 17.86 34.383 20.13 37.786 2.379 4.763 4.757 4.762 8.381 2.379 4.762-2.379 19.089-10.657 19.089-10.657s-13.143 56.937-13.143 61.722c-1.184 4.762 3.573 8.33 8.386 4.762 1.184-1.195 26.229-29.666 26.229-29.666s5.912 12.996 7.113 15.374c1.2 2.378 2.384 4.717 5.957 3.573 3.743-.929 18.324-4.021 24.587-5.346z" fill="#eb0000"/><path d="m367.425 318.653c4.778 0 8.652-3.874 8.652-8.653 0-4.778-3.874-8.652-8.652-8.652-4.779 0-8.653 3.874-8.653 8.652 0 4.779 3.874 8.653 8.653 8.653z" fill="#fff"/><g fill="#333"><path clip-rule="evenodd" d="m347.181 313.252 61.49-131.945-26.24 143.23-22.962 11.031zm28.896-3.251c0 4.779-3.874 8.653-8.652 8.653-4.779 0-8.653-3.874-8.653-8.653 0-4.778 3.874-8.652 8.653-8.652 4.778 0 8.652 3.874 8.652 8.652z" fill-rule="evenodd"/><path d="m276.619 294.916c3.937 0 7.129-3.192 7.129-7.129 0-3.938-3.192-7.129-7.129-7.129s-7.129 3.191-7.129 7.129c0 3.937 3.192 7.129 7.129 7.129z"/><path d="m276.24 219.388c3.937 0 7.129-3.192 7.129-7.129 0-3.938-3.192-7.129-7.129-7.129-3.938 0-7.13 3.191-7.13 7.129 0 3.937 3.192 7.129 7.13 7.129z"/><path d="m329.378 165.712c3.937 0 7.129-3.192 7.129-7.129 0-3.938-3.192-7.129-7.129-7.129-3.938 0-7.13 3.191-7.13 7.129 0 3.937 3.192 7.129 7.13 7.129z"/><path d="m404.906 165.338c3.937 0 7.129-3.192 7.129-7.129s-3.192-7.129-7.129-7.129c-3.938 0-7.13 3.192-7.13 7.129s3.192 7.129 7.13 7.129z"/><path d="m458.576 218.476c3.937 0 7.129-3.192 7.129-7.129s-3.192-7.129-7.129-7.129-7.129 3.192-7.129 7.129 3.192 7.129 7.129 7.129z"/><path d="m458.955 293.998c3.938 0 7.13-3.191 7.13-7.129 0-3.937-3.192-7.129-7.13-7.129-3.937 0-7.129 3.192-7.129 7.129 0 3.938 3.192 7.129 7.129 7.129z"/><path d="m268.918 257.192c3.937 0 7.129-3.192 7.129-7.13 0-3.937-3.192-7.129-7.129-7.129s-7.129 3.192-7.129 7.129c0 3.938 3.192 7.13 7.129 7.13z"/><path d="m297.469 187.264c3.937 0 7.129-3.192 7.129-7.13 0-3.937-3.192-7.129-7.129-7.129-3.938 0-7.129 3.192-7.129 7.129 0 3.938 3.191 7.13 7.129 7.13z"/><path d="m367.102 158.016c3.937 0 7.129-3.192 7.129-7.129s-3.192-7.129-7.129-7.129-7.129 3.192-7.129 7.129 3.192 7.129 7.129 7.129z"/><path d="m437.024 186.568c3.937 0 7.129-3.192 7.129-7.13 0-3.937-3.192-7.129-7.129-7.129s-7.129 3.192-7.129 7.129c0 3.938 3.192 7.13 7.129 7.13z"/><path d="m466.277 256.201c3.937 0 7.129-3.192 7.129-7.13 0-3.937-3.192-7.129-7.129-7.129s-7.129 3.192-7.129 7.129c0 3.938 3.192 7.13 7.129 7.13z"/><path d="m366.541 121c-71.003 0-128.541 57.561-128.541 128.541 0 34.099 13.545 66.8 37.656 90.911s56.813 37.656 90.911 37.656 66.799-13.545 90.91-37.656 37.657-56.812 37.657-90.911c-.028-70.98-57.589-128.541-128.593-128.541zm106.758 177.11c-9.341 20.467-24.369 37.818-43.294 49.984s-40.948 18.635-63.447 18.635c-22.498 0-44.522-6.469-63.447-18.635s-33.953-29.517-43.293-49.984c-1.302-2.854-2.49-5.765-3.562-8.732-6.353-17.685-8.362-36.639-5.856-55.263s9.453-36.372 20.256-51.749c10.802-15.376 25.143-27.93 41.814-36.604 16.67-8.673 35.182-13.211 53.973-13.231 18.792-.02 37.313 4.478 54.002 13.115 16.69 8.637 31.058 21.161 41.893 36.514s17.821 33.087 20.367 51.705c2.546 18.619.579 37.576-5.737 55.275-1.114 3.047-2.337 6.036-3.669 8.97z"/><path d="m624.021 243.498c.019 1.458-.282 2.902-.884 4.23-.561 1.217-1.273 2.358-2.118 3.398-.747.931-1.594 1.778-2.525 2.525-.658.542-1.365 1.022-2.112 1.433-.731-.73-1.756-1.699-3.069-2.865-1.554-1.337-3.265-2.478-5.097-3.398-2.376-1.201-4.867-2.161-7.435-2.865-3.179-.861-6.463-1.274-9.756-1.229-4.082-.06-8.132.731-11.892 2.322-3.484 1.5-6.604 3.735-9.145 6.551-2.631 2.962-4.649 6.417-5.934 10.165-1.466 4.279-2.183 8.779-2.118 13.301 0 10.465 2.661 18.425 7.984 23.88s12.441 8.184 21.354 8.188c3.371.039 6.735-.305 10.028-1.025 2.577-.573 5.109-1.33 7.577-2.265 1.757-.655 3.446-1.478 5.045-2.458 1.276-.819 2.095-1.364 2.458-1.636l8.732 14.723c-1.016.858-2.112 1.616-3.273 2.265-2.264 1.302-4.638 2.401-7.096 3.284-3.489 1.274-7.07 2.277-10.713 3.001-4.649.916-9.38 1.352-14.117 1.303-6.499.052-12.959-1.009-19.1-3.138-5.742-1.983-10.982-5.197-15.352-9.417-4.45-4.369-7.937-9.622-10.238-15.419-2.503-6.093-3.752-13.188-3.748-21.286 0-7.64 1.249-14.485 3.748-20.532 2.339-5.811 5.873-11.064 10.374-15.42 4.472-4.271 9.764-7.59 15.555-9.756 6.219-2.317 12.81-3.469 19.446-3.398 7.456 0 13.458.774 18.007 2.322s7.916 3.093 10.102 4.638c1.582 1.113 2.929 2.527 3.964 4.162.848 1.319 1.315 2.848 1.348 4.416z"/><path d="m635.618 324.009c2.004-5.368 4.165-10.917 6.483-16.648 2.318-5.73 4.638-11.393 6.96-16.988 2.321-5.594 4.586-11.03 6.795-16.308 2.208-5.278 4.285-10.121 6.229-14.53 1.914-4.41 3.612-8.3 5.096-11.671s2.688-5.963 3.613-7.775c2.004-4.273 4.234-7.184 6.687-8.732 2.675-1.605 5.755-2.411 8.874-2.321 3.544 0 6.249.5 8.114 1.5 1.405.691 2.713 1.563 3.89 2.594 1.639 2.82 3.594 6.618 5.867 11.393 2.272 4.776 4.66 10.051 7.163 15.827 2.503 5.784 5.029 11.788 7.577 18.013s4.958 12.252 7.231 18.081c2.265 5.821 4.341 11.142 6.229 15.963 1.887 4.82 3.365 8.688 4.434 11.602h-21.009c-.732-2.004-1.757-4.666-3.075-7.984-1.317-3.318-2.886-7.299-4.705-11.943h-44.622c-1.819 4.644-3.365 8.608-4.637 11.892l-3.137 8.052zm50.216-75.46c-.453.914-1.208 2.643-2.265 5.187-1.057 2.545-2.286 5.591-3.687 9.14-1.412 3.548-2.98 7.437-4.705 11.665-1.726 4.228-3.409 8.435-5.051 12.622h31.246c-1.635-4.179-3.294-8.387-4.978-12.622-1.683-4.236-3.254-8.102-4.711-11.597-1.457-3.5-2.707-6.52-3.748-9.061-1.042-2.54-1.743-4.318-2.101-5.334z"/><path d="m775.213 233.538c.453.46 1.476 1.781 3.069 3.963s3.526 4.889 5.798 8.121c2.265 3.227 4.789 6.814 7.571 10.759 2.782 3.944 5.58 8.037 8.392 12.276 2.82 4.228 5.572 8.381 8.256 12.458s5.072 7.807 7.163 11.189v-53.308c0-3.182.933-5.434 2.798-6.755 1.865-1.322 4.39-1.98 7.576-1.976 2.009-.038 4.011.237 5.935.815 1.683.551 2.752.915 3.205 1.093v91.836h-19.378c-3.182-4.907-6.768-10.434-10.759-16.58-3.99-6.146-7.993-12.195-12.01-18.149-4.005-5.957-7.803-11.551-11.393-16.784-3.59-5.232-6.524-9.439-8.8-12.622v64.135h-19.377v-83.807c.006-1.215.236-2.418.679-3.55.466-1.193 1.162-2.282 2.05-3.205 1.003-1.017 2.211-1.806 3.545-2.316 1.61-.621 3.325-.923 5.051-.889 2.91 0 5.175.387 6.795 1.161 1.333.606 2.616 1.32 3.834 2.135z"/><path d="m851.352 324.009c2.001-5.368 4.16-10.917 6.478-16.648 2.318-5.73 4.638-11.393 6.96-16.988 2.321-5.594 4.586-11.03 6.795-16.308 2.208-5.277 4.284-10.121 6.229-14.53 1.906-4.41 3.605-8.3 5.096-11.671s2.697-5.963 3.618-7.775c2.001-4.273 4.23-7.184 6.688-8.731 2.673-1.607 5.75-2.413 8.868-2.322 3.544 0 6.251.5 8.12 1.501 1.404.688 2.71 1.56 3.884 2.593 1.639 2.82 3.596 6.618 5.872 11.393 2.277 4.776 4.664 10.051 7.164 15.827 2.499 5.784 5.022 11.788 7.571 18.013 2.548 6.225 4.958 12.252 7.231 18.081 2.265 5.821 4.341 11.142 6.229 15.963 1.887 4.82 3.365 8.688 4.433 11.602h-21.014c-.732-2.004-1.755-4.666-3.069-7.984-1.313-3.318-2.884-7.299-4.711-11.942h-44.621c-1.816 4.643-3.362 8.607-4.638 11.891s-2.322 5.969-3.137 8.052zm50.211-75.46c-.453.914-1.209 2.643-2.266 5.187-1.057 2.545-2.285 5.591-3.686 9.14-1.412 3.548-2.98 7.437-4.706 11.665-1.725 4.228-3.408 8.435-5.051 12.622h31.247c-1.635-4.179-3.294-8.387-4.978-12.622-1.683-4.236-3.252-8.102-4.705-11.597-1.461-3.5-2.713-6.52-3.755-9.061-1.042-2.54-1.742-4.318-2.1-5.334z"/><path d="m1053.57 277.066c.09 6.6-1.09 13.156-3.48 19.31-2.2 5.601-5.6 10.653-9.96 14.802-4.51 4.215-9.86 7.445-15.69 9.485-6.14 2.231-13.03 3.347-20.67 3.347h-34.8v-83.099c0-7.101 3.685-10.65 11.054-10.646h22.646c6.83 0 12.65.591 17.47 1.772 5.01 1.166 9.79 3.172 14.13 5.935 4.06 2.617 7.62 5.945 10.5 9.824 2.93 4.001 5.15 8.481 6.55 13.24 1.54 5.203 2.29 10.605 2.25 16.03zm-20.46 0c0-7.006-1.6-13.124-4.78-18.352-3.19-5.229-8.24-8.798-15.15-10.708-1.69-.487-3.43-.83-5.18-1.025-1.95-.229-3.91-.342-5.87-.34h-13.374v60.992h14.194c5 0 9.37-.796 13.1-2.389 3.56-1.474 6.76-3.682 9.41-6.478 2.58-2.784 4.53-6.088 5.73-9.689 1.3-3.87 1.95-7.929 1.92-12.011z"/><path d="m1061.76 324.009c1.99-5.368 4.16-10.917 6.48-16.648 2.33-5.73 4.65-11.393 6.96-16.988 2.32-5.594 4.58-11.03 6.8-16.308 2.21-5.278 4.29-10.121 6.23-14.53 1.91-4.41 3.6-8.3 5.09-11.671s2.69-5.963 3.61-7.775c2-4.273 4.23-7.184 6.69-8.731 2.67-1.607 5.75-2.412 8.87-2.322 3.55 0 6.25.5 8.12 1.5 1.4.691 2.71 1.563 3.89 2.594 1.64 2.82 3.59 6.618 5.87 11.393 2.27 4.776 4.66 10.051 7.16 15.827 2.5 5.784 5.03 11.788 7.57 18.013s4.96 12.252 7.24 18.081c2.26 5.821 4.34 11.142 6.23 15.963 1.88 4.82 3.36 8.688 4.43 11.602h-20.98c-.73-2.004-1.75-4.666-3.07-7.984s-2.89-7.299-4.7-11.942h-44.63c-1.82 4.643-3.37 8.607-4.63 11.891-1.27 3.284-2.32 5.968-3.15 8.052zm50.21-75.46c-.45.914-1.21 2.643-2.26 5.187-1.05 2.545-2.28 5.591-3.68 9.14-1.42 3.548-2.99 7.437-4.71 11.665-1.73 4.228-3.41 8.435-5.05 12.622h31.25c-1.64-4.179-3.3-8.387-4.99-12.622-1.68-4.236-3.25-8.102-4.7-11.597-1.45-3.5-2.71-6.52-3.76-9.061-1.04-2.54-1.74-4.318-2.1-5.334z"/></g><path d="m593.369 183.959c.049 3.519-.581 7.014-1.857 10.294-1.173 2.987-2.984 5.681-5.306 7.894-2.41 2.247-5.26 3.969-8.37 5.057-3.54 1.233-7.27 1.837-11.019 1.784h-18.551v-44.305c0-3.775 1.963-5.662 5.889-5.662h12.079c3.129-.056 6.255.261 9.309.945 2.672.619 5.219 1.69 7.531 3.166 2.17 1.391 4.067 3.166 5.601 5.238 1.568 2.127 2.754 4.51 3.505 7.044.814 2.774 1.214 5.654 1.189 8.545zm-10.912 0c.079-3.436-.804-6.824-2.548-9.785-1.699-2.786-4.39-4.689-8.075-5.708-.904-.264-1.828-.454-2.763-.566-1.038-.121-2.082-.182-3.126-.182h-7.135v32.56h7.571c2.39.053 4.765-.381 6.982-1.274 1.898-.782 3.609-1.96 5.017-3.454 1.376-1.483 2.419-3.244 3.058-5.164.694-2.071 1.039-4.243 1.019-6.427z" fill="#eb0000"/><path d="m615.923 188.472v11.274h24.587v9.241h-35.136v-44.304c0-3.775 1.965-5.663 5.895-5.663h24.66c1.842 0 3.128.378 3.856 1.133.782.933 1.174 2.132 1.093 3.347.017 1.014-.144 2.024-.475 2.984-.196.605-.453 1.189-.765 1.744h-23.715v10.985h18.987c1.842 0 3.128.389 3.856 1.167.782.933 1.174 2.132 1.093 3.346.016 1.015-.145 2.025-.476 2.985-.196.605-.452 1.189-.764 1.744z" fill="#eb0000"/><path d="m684.526 171.591c-.438-.483-1.019-1.049-1.744-1.699-.858-.73-1.81-1.342-2.832-1.817-1.303-.615-2.668-1.089-4.071-1.416-1.779-.406-3.6-.596-5.425-.566-1.459-.036-2.915.136-4.326.509-.987.259-1.905.731-2.69 1.382-.618.528-1.094 1.204-1.381 1.965-.265.696-.401 1.435-.403 2.18.002.675.141 1.343.41 1.962.268.62.661 1.178 1.153 1.639 1.042 1.042 2.898 1.856 5.567 2.441l6.183 1.382c2.207.481 4.371 1.138 6.473 1.965 1.799.693 3.48 1.662 4.983 2.871 1.364 1.111 2.46 2.516 3.205 4.111.787 1.782 1.174 3.715 1.132 5.662.031 2.249-.365 4.484-1.166 6.586-.77 1.954-2.006 3.69-3.602 5.057-1.825 1.512-3.947 2.627-6.228 3.273-2.947.828-6 1.219-9.061 1.16-2.907.04-5.811-.24-8.658-.832-2.13-.456-4.214-1.102-6.229-1.931-1.394-.565-2.732-1.259-3.997-2.072-.974-.657-1.58-1.082-1.824-1.274l4.949-7.566c.474.417.971.807 1.49 1.167 1.011.7 2.084 1.309 3.205 1.817 1.559.707 3.177 1.276 4.835 1.699 2.068.531 4.197.789 6.331.765 1.606.033 3.209-.158 4.763-.567 1.046-.267 2.026-.749 2.876-1.415.648-.539 1.137-1.244 1.416-2.039.266-.772.402-1.584.402-2.401.023-.86-.167-1.712-.555-2.48-.387-.768-.959-1.427-1.665-1.92-1.48-1.094-3.556-1.908-6.229-2.44l-6.84-1.382c-1.682-.35-3.326-.862-4.91-1.529-1.604-.663-3.09-1.583-4.4-2.723-1.323-1.157-2.4-2.569-3.165-4.151-.837-1.784-1.248-3.738-1.2-5.708-.03-2.081.355-4.146 1.132-6.076.787-1.884 1.994-3.563 3.528-4.91 1.743-1.499 3.774-2.626 5.968-3.312 2.718-.843 5.553-1.244 8.398-1.189 2.093-.022 4.184.113 6.257.402 1.51.217 3.005.533 4.474.945 1.027.286 2.026.666 2.984 1.133.747.391 1.319.702 1.699.946.869.527 1.604 1.25 2.146 2.112.475.712.74 1.544.764 2.401.013.768-.162 1.528-.509 2.214-.31.624-.69 1.211-1.133 1.749-.393.47-.846.885-1.348 1.235-.361.255-.739.484-1.132.685z" fill="#eb0000"/><path d="m735.523 159.009c1.846 0 3.132.378 3.857 1.133.784.931 1.175 2.131 1.092 3.346.017 1.015-.144 2.025-.475 2.984-.191.608-.448 1.192-.765 1.744h-16.291v40.743h-10.549v-40.714h-11.569c-1.846 0-3.132-.387-3.856-1.161-.785-.932-1.176-2.132-1.093-3.347-.017-1.015.144-2.024.475-2.984.191-.607.448-1.192.765-1.744z" fill="#eb0000"/><path d="m749.567 163.664c0-1.699.492-2.899 1.489-3.602 1.204-.76 2.615-1.128 4.037-1.053 1.096-.018 2.188.129 3.239.436.944.291 1.539.48 1.784.566v48.965h-10.549z" fill="#eb0000"/><path d="m786.011 160.753c.583.674 1.129 1.379 1.637 2.112.849 1.159 1.88 2.601 3.092 4.326 1.211 1.725 2.557 3.641 4.037 5.748 1.484 2.11 2.977 4.292 4.479 6.546 1.503 2.253 2.969 4.473 4.4 6.659 1.427 2.182 2.699 4.17 3.817 5.963v-28.444c0-1.698.498-2.899 1.495-3.601 1.204-.761 2.615-1.129 4.037-1.053 1.071-.022 2.14.125 3.165.436.895.289 1.467.481 1.699.566v48.965h-10.334c-1.699-2.62-3.615-5.567-5.748-8.84s-4.265-6.498-6.398-9.677c-2.137-3.179-4.162-6.161-6.076-8.947s-3.475-5.025-4.683-6.716v34.191h-10.329v-44.672c.003-.648.126-1.289.362-1.892.248-.633.619-1.211 1.093-1.698.535-.544 1.18-.967 1.892-1.241.858-.327 1.771-.487 2.689-.47 1.244-.056 2.486.154 3.641.618.707.317 1.387.692 2.033 1.121z" fill="#eb0000"/><path d="m826.612 208.988c1.072-2.862 2.224-5.82 3.454-8.874 1.231-3.054 2.469-6.074 3.715-9.06 1.235-2.986 2.446-5.883 3.635-8.692 1.19-2.809 2.294-5.393 3.313-7.752 1.012-2.348 1.92-4.425 2.724-6.229.804-1.795 1.444-3.177 1.931-4.145 1.064-2.265 2.252-3.819 3.562-4.661 1.428-.853 3.07-1.281 4.734-1.234 1.891 0 3.329.266 4.326.798.747.371 1.443.835 2.072 1.382.872 1.51 1.916 3.536 3.132 6.076 1.215 2.541 2.488 5.355 3.816 8.443 1.337 3.081 2.683 6.289 4.038 9.627 1.355 3.337 2.64 6.546 3.856 9.626 1.212 3.103 2.316 5.934 3.313 8.494.996 2.559 1.783 4.621 2.361 6.184h-11.201c-.377-1.065-.923-2.484-1.636-4.259-.708-1.767-1.54-3.89-2.514-6.365h-23.783l-2.475 6.331-1.67 4.293zm26.773-40.205c-.241.487-.642 1.408-1.2 2.763-.559 1.356-1.214 2.981-1.965 4.876-.755 1.887-1.591 3.964-2.509 6.229-.917 2.265-1.814 4.507-2.69 6.727h16.66c-.872-2.231-1.757-4.474-2.656-6.727-.898-2.254-1.735-4.315-2.508-6.184-.782-1.869-1.444-3.482-2.005-4.841s-.94-2.333-1.133-2.871z" fill="#eb0000"/><path d="m915.147 159.009c1.843 0 3.128.378 3.857 1.133.78.933 1.169 2.132 1.087 3.346.018 1.015-.141 2.025-.47 2.984-.196.606-.452 1.19-.764 1.744h-16.298v40.743h-10.549v-40.714h-11.563c-1.846 0-3.131-.387-3.856-1.161-.784-.932-1.176-2.132-1.093-3.347-.016-1.014.143-2.023.47-2.984.196-.605.452-1.189.764-1.744z" fill="#eb0000"/><path d="m929.185 163.663c0-1.698.498-2.899 1.495-3.601 1.204-.761 2.615-1.129 4.037-1.053 1.094-.018 2.184.129 3.234.436.947.29 1.542.479 1.784.566v48.965h-10.55z" fill="#eb0000"/><path d="m1003.85 183.959c.03 3.557-.61 7.088-1.89 10.408-1.2 3.101-3.006 5.932-5.31 8.329-2.332 2.388-5.131 4.269-8.223 5.527-6.829 2.665-14.411 2.665-21.24 0-3.092-1.256-5.891-3.138-8.222-5.527-2.307-2.396-4.112-5.227-5.312-8.329-2.521-6.708-2.521-14.103 0-20.81 1.184-3.107 2.998-5.934 5.327-8.306s5.123-4.237 8.207-5.477c6.828-2.673 14.413-2.673 21.24 0 3.084 1.24 5.878 3.105 8.207 5.477s4.146 5.199 5.326 8.306c1.28 3.317 1.92 6.846 1.89 10.402zm-10.909 0c.02-2.345-.338-4.678-1.059-6.909-.631-2.005-1.643-3.87-2.979-5.492-1.293-1.533-2.907-2.763-4.728-3.602-1.977-.895-4.127-1.341-6.297-1.308-2.192-.038-4.365.409-6.365 1.308-1.829.843-3.453 2.071-4.762 3.602-1.361 1.613-2.389 3.48-3.024 5.492-.717 2.232-1.072 4.565-1.053 6.909-.022 2.333.333 4.655 1.053 6.874.65 2.018 1.676 3.896 3.024 5.533 1.293 1.565 2.92 2.821 4.762 3.675 2 .899 4.173 1.346 6.365 1.308 2.17.033 4.32-.414 6.297-1.308 1.834-.851 3.451-2.108 4.728-3.675 1.323-1.647 2.333-3.522 2.979-5.533.716-2.22 1.066-4.542 1.036-6.874z" fill="#eb0000"/><path d="m1027.54 160.753c.59.674 1.13 1.379 1.64 2.112.85 1.159 1.88 2.601 3.09 4.326s2.56 3.641 4.04 5.748c1.48 2.11 2.97 4.292 4.47 6.546 1.51 2.253 2.97 4.466 4.41 6.636 1.43 2.182 2.7 4.17 3.82 5.963v-28.421c0-1.698.49-2.899 1.49-3.601 1.21-.761 2.62-1.129 4.04-1.053 1.07-.023 2.13.125 3.16.436.9.289 1.46.481 1.7.566v48.965h-10.33c-1.7-2.62-3.62-5.567-5.75-8.84s-4.27-6.498-6.4-9.677c-2.14-3.179-4.16-6.161-6.07-8.947-1.92-2.786-3.48-5.025-4.69-6.716v34.191h-10.33v-44.672c.01-.648.13-1.289.37-1.892.24-.633.62-1.211 1.09-1.698.53-.545 1.18-.968 1.89-1.241.86-.328 1.77-.487 2.69-.47 1.24-.057 2.48.153 3.64.618.7.317 1.39.692 2.03 1.121z" fill="#eb0000"/><path d="m1103.79 171.591c-.44-.483-1.02-1.049-1.75-1.698-.85-.733-1.81-1.344-2.83-1.818-1.3-.615-2.67-1.089-4.07-1.416-1.78-.406-3.6-.596-5.42-.566-1.46-.036-2.92.136-4.33.51-.99.259-1.91.731-2.69 1.381-.62.528-1.1 1.204-1.38 1.965-.26.697-.4 1.436-.41 2.18.01.675.15 1.343.41 1.963.27.619.67 1.177 1.16 1.639 1.04 1.042 2.9 1.855 5.56 2.44l6.19 1.382c2.21.482 4.37 1.139 6.48 1.965 1.79.695 3.48 1.663 4.98 2.871 1.36 1.113 2.45 2.518 3.2 4.111.79 1.781 1.17 3.715 1.13 5.662.04 2.248-.34 4.482-1.13 6.586-.77 1.955-2.01 3.691-3.6 5.057-1.83 1.514-3.95 2.629-6.23 3.273-2.95.828-6 1.219-9.06 1.161-2.91.038-5.81-.241-8.66-.833-2.13-.455-4.22-1.102-6.23-1.931-1.4-.565-2.74-1.259-4-2.072-.97-.657-1.58-1.082-1.82-1.274l4.94-7.566c.48.417.98.806 1.5 1.167 1.01.702 2.08 1.31 3.2 1.818 1.56.706 3.17 1.275 4.83 1.698 2.07.532 4.2.789 6.33.765 1.61.033 3.22-.157 4.77-.566 1.05-.269 2.02-.751 2.87-1.416.65-.54 1.14-1.244 1.42-2.039.27-.772.4-1.584.4-2.401.02-.859-.18-1.709-.58-2.472-.39-.763-.97-1.416-1.68-1.899-1.48-1.095-3.56-1.908-6.23-2.441l-6.84-1.381c-1.69-.351-3.33-.863-4.91-1.529-1.61-.663-3.09-1.583-4.4-2.724-1.32-1.158-2.4-2.57-3.17-4.151-.83-1.785-1.24-3.738-1.2-5.708-.02-2.083.38-4.149 1.17-6.076.78-1.885 1.99-3.565 3.53-4.909 1.74-1.501 3.76-2.628 5.96-3.313 2.72-.846 5.55-1.251 8.4-1.2 2.08-.02 4.17.114 6.23.402 1.51.217 3 .532 4.47.946 1.03.285 2.03.664 2.99 1.132.75.391 1.32.702 1.7.946.86.531 1.6 1.253 2.14 2.112.48.712.74 1.545.77 2.401.01.768-.17 1.528-.51 2.214-.32.626-.71 1.213-1.17 1.75-.39.47-.84.886-1.35 1.234-.34.248-.71.472-1.08.668z" fill="#eb0000"/></svg>