<svg fill="none" viewBox="0 0 1400 500" xmlns="http://www.w3.org/2000/svg"><path d="m0 0h1400v500h-1400z" fill="#1a1a1a"/><path d="m483.28 249.988c.02 13.488-2.294 26.878-6.84 39.576-1.095 3.047-2.309 6.037-3.641 8.97-6.229 1.325-20.845 4.417-24.588 5.345-3.573 1.133-4.762-1.189-5.957-3.573-1.194-2.384-7.14-15.374-7.14-15.374s-25.046 28.477-26.229 29.689c-4.814 3.568-9.57 0-8.387-4.762 0-4.768 13.143-61.723 13.143-61.723s-14.326 8.279-19.089 10.658c-3.624 2.383-6.002 2.383-8.38-2.379-2.265-3.397-18.653-34.944-20.131-37.786.068-.136.108-.204.108-.204h-.215s.039.068.107.204c-1.478 2.831-17.86 34.383-20.13 37.786-2.379 4.762-4.763 4.762-8.381 2.379-4.762-2.379-19.094-10.658-19.094-10.658s13.142 56.938 13.142 61.723c1.19 4.762-3.573 8.33-8.38 4.762-1.189-1.195-26.235-29.666-26.235-29.666s-5.969 12.996-7.141 15.374-2.378 4.717-5.951 3.573c-3.743-.929-18.313-4.021-24.582-5.346-1.302-2.854-2.489-5.764-3.561-8.731-5.823-16.097-8.051-33.273-6.529-50.322s6.759-33.559 15.341-48.369 20.303-27.562 34.338-37.36 30.046-16.405 46.906-19.357c16.861-2.952 34.164-2.177 50.693 2.271 16.529 4.447 31.885 12.459 44.988 23.473 13.103 11.013 23.636 24.762 30.86 40.28 7.224 15.519 10.963 32.43 10.955 49.547z" fill="#333"/><path d="m472.799 298.557c-9.341 20.467-24.369 37.818-43.294 49.984s-40.949 18.635-63.447 18.635-44.522-6.469-63.447-18.635-33.953-29.517-43.293-49.984c6.268 1.325 20.838 4.417 24.581 5.345 3.573 1.133 4.763-1.189 5.952-3.573s7.14-15.374 7.14-15.374 25.046 28.472 26.235 29.667c4.808 3.567 9.57 0 8.381-4.763 0-4.768-13.143-61.722-13.143-61.722s14.332 8.279 19.094 10.657c3.619 2.384 6.003 2.384 8.381-2.378 2.265-3.398 18.653-34.944 20.131-37.787 1.477 2.831 17.859 34.383 20.13 37.787 2.378 4.762 4.757 4.762 8.381 2.378 4.762-2.378 19.089-10.657 19.089-10.657s-13.143 56.937-13.143 61.722c-1.184 4.763 3.573 8.33 8.386 4.763 1.183-1.195 26.229-29.667 26.229-29.667s5.912 12.996 7.112 15.374c1.201 2.378 2.384 4.717 5.957 3.573 3.743-.928 18.325-4.02 24.588-5.345z" fill="#eb0000"/><path d="m366.925 319.098c4.779 0 8.652-3.874 8.652-8.653 0-4.778-3.873-8.652-8.652-8.652s-8.653 3.874-8.653 8.652c0 4.779 3.874 8.653 8.653 8.653z" fill="#333"/><g fill="#e6e6e6"><path clip-rule="evenodd" d="m346.681 313.697 61.49-131.945-26.24 143.23-22.962 11.031zm28.896-3.25c0 4.778-3.874 8.652-8.652 8.652-4.779 0-8.653-3.874-8.653-8.652 0-4.779 3.874-8.653 8.653-8.653 4.778 0 8.652 3.874 8.652 8.653z" fill-rule="evenodd"/><path d="m276.119 295.361c3.937 0 7.129-3.191 7.129-7.129 0-3.937-3.192-7.129-7.129-7.129s-7.129 3.192-7.129 7.129c0 3.938 3.192 7.129 7.129 7.129z"/><path d="m275.74 219.833c3.937 0 7.129-3.192 7.129-7.129s-3.192-7.129-7.129-7.129c-3.938 0-7.13 3.192-7.13 7.129s3.192 7.129 7.13 7.129z"/><path d="m328.878 166.157c3.937 0 7.129-3.192 7.129-7.129s-3.192-7.129-7.129-7.129c-3.938 0-7.13 3.192-7.13 7.129s3.192 7.129 7.13 7.129z"/><path d="m404.406 165.784c3.937 0 7.129-3.192 7.129-7.13 0-3.937-3.192-7.129-7.129-7.129-3.938 0-7.13 3.192-7.13 7.129 0 3.938 3.192 7.13 7.13 7.13z"/><path d="m458.076 218.922c3.937 0 7.129-3.192 7.129-7.13 0-3.937-3.192-7.129-7.129-7.129s-7.129 3.192-7.129 7.129c0 3.938 3.192 7.13 7.129 7.13z"/><path d="m458.455 294.444c3.938 0 7.13-3.192 7.13-7.129 0-3.938-3.192-7.13-7.13-7.13-3.937 0-7.129 3.192-7.129 7.13 0 3.937 3.192 7.129 7.129 7.129z"/><path d="m268.418 257.637c3.937 0 7.129-3.192 7.129-7.129 0-3.938-3.192-7.129-7.129-7.129s-7.129 3.191-7.129 7.129c0 3.937 3.192 7.129 7.129 7.129z"/><path d="m296.969 187.709c3.937 0 7.129-3.192 7.129-7.129 0-3.938-3.192-7.129-7.129-7.129-3.938 0-7.129 3.191-7.129 7.129 0 3.937 3.191 7.129 7.129 7.129z"/><path d="m366.602 158.462c3.937 0 7.129-3.192 7.129-7.13 0-3.937-3.192-7.129-7.129-7.129s-7.129 3.192-7.129 7.129c0 3.938 3.192 7.13 7.129 7.13z"/><path d="m436.524 187.013c3.937 0 7.129-3.192 7.129-7.129 0-3.938-3.192-7.129-7.129-7.129s-7.129 3.191-7.129 7.129c0 3.937 3.192 7.129 7.129 7.129z"/><path d="m465.777 256.646c3.937 0 7.129-3.192 7.129-7.129 0-3.938-3.192-7.129-7.129-7.129s-7.129 3.191-7.129 7.129c0 3.937 3.192 7.129 7.129 7.129z"/><path d="m366.041 121.445c-71.003 0-128.541 57.561-128.541 128.542 0 34.098 13.545 66.799 37.656 90.91s56.813 37.657 90.911 37.657 66.799-13.546 90.91-37.657 37.657-56.812 37.657-90.91c-.028-70.981-57.589-128.542-128.593-128.542zm106.758 177.11c-9.341 20.468-24.369 37.818-43.294 49.985-18.925 12.166-40.948 18.634-63.447 18.634-22.498 0-44.522-6.468-63.447-18.634-18.925-12.167-33.953-29.517-43.293-49.985-1.302-2.854-2.49-5.765-3.562-8.732-6.353-17.685-8.362-36.638-5.856-55.262s9.453-36.373 20.256-51.749c10.802-15.377 25.143-27.931 41.814-36.604 16.67-8.673 35.182-13.211 53.973-13.232 18.792-.02 37.313 4.478 54.002 13.115 16.69 8.638 31.058 21.161 41.893 36.514s17.821 33.087 20.367 51.705c2.546 18.619.578 37.577-5.737 55.275-1.114 3.047-2.337 6.037-3.669 8.97z"/><path d="m623.521 243.944c.019 1.457-.282 2.902-.884 4.23-.562 1.216-1.273 2.357-2.118 3.397-.747.932-1.594 1.779-2.525 2.526-.658.542-1.365 1.021-2.112 1.432-.731-.73-1.756-1.698-3.069-2.865-1.554-1.336-3.266-2.477-5.097-3.397-2.376-1.202-4.867-2.161-7.435-2.866-3.179-.86-6.463-1.274-9.757-1.229-4.082-.06-8.131.731-11.891 2.322-3.484 1.5-6.604 3.735-9.145 6.552-2.632 2.962-4.649 6.417-5.935 10.164-1.466 4.279-2.182 8.779-2.117 13.302 0 10.464 2.661 18.424 7.984 23.879s12.441 8.184 21.354 8.188c3.37.039 6.735-.305 10.028-1.025 2.576-.573 5.108-1.33 7.577-2.265 1.757-.655 3.446-1.478 5.045-2.457 1.276-.82 2.095-1.365 2.458-1.637l8.731 14.723c-1.015.858-2.111 1.617-3.273 2.265-2.263 1.303-4.637 2.402-7.095 3.284-3.489 1.274-7.071 2.278-10.714 3.001-4.648.916-9.379 1.352-14.116 1.303-6.5.053-12.96-1.008-19.1-3.137-5.742-1.983-10.982-5.197-15.352-9.417-4.45-4.37-7.937-9.622-10.238-15.42-2.503-6.092-3.752-13.188-3.748-21.285 0-7.641 1.249-14.485 3.748-20.533 2.339-5.81 5.873-11.064 10.374-15.419 4.472-4.271 9.764-7.591 15.555-9.757 6.218-2.317 12.81-3.469 19.446-3.398 7.456 0 13.458.774 18.007 2.322s7.916 3.094 10.102 4.638c1.582 1.113 2.929 2.528 3.964 4.162.848 1.319 1.315 2.848 1.348 4.417z"/><path d="m635.117 324.455c2.005-5.369 4.166-10.918 6.484-16.649 2.318-5.73 4.638-11.393 6.96-16.987 2.321-5.595 4.586-11.031 6.795-16.309 2.208-5.277 4.284-10.121 6.229-14.53 1.914-4.409 3.612-8.3 5.096-11.671s2.688-5.962 3.613-7.774c2.004-4.274 4.233-7.184 6.687-8.732 2.675-1.606 5.755-2.412 8.874-2.322 3.544 0 6.249.5 8.114 1.501 1.405.69 2.713 1.562 3.89 2.593 1.639 2.82 3.594 6.618 5.867 11.393 2.272 4.776 4.66 10.052 7.163 15.827 2.503 5.784 5.028 11.788 7.577 18.013 2.548 6.225 4.958 12.252 7.231 18.081 2.265 5.821 4.341 11.142 6.229 15.963 1.887 4.821 3.365 8.688 4.433 11.603h-21.008c-.732-2.005-1.757-4.666-3.075-7.985-1.317-3.318-2.886-7.299-4.705-11.942h-44.622c-1.819 4.643-3.365 8.607-4.637 11.891l-3.138 8.053zm50.217-75.46c-.453.913-1.208 2.642-2.265 5.186-1.057 2.545-2.286 5.591-3.687 9.14-1.412 3.548-2.98 7.437-4.705 11.665-1.726 4.228-3.409 8.435-5.052 12.622h31.247c-1.635-4.179-3.294-8.386-4.978-12.622-1.683-4.236-3.254-8.101-4.711-11.597-1.457-3.5-2.707-6.52-3.749-9.06-1.042-2.541-1.742-4.319-2.1-5.334z"/><path d="m774.712 233.983c.453.46 1.477 1.782 3.07 3.964s3.526 4.888 5.798 8.12c2.265 3.228 4.789 6.814 7.571 10.759s5.58 8.037 8.392 12.276c2.82 4.228 5.572 8.381 8.256 12.458s5.072 7.807 7.163 11.189v-53.307c0-3.183.933-5.435 2.798-6.756s4.39-1.98 7.576-1.976c2.009-.037 4.011.238 5.935.815 1.683.551 2.752.916 3.205 1.093v91.836h-19.378c-3.182-4.907-6.768-10.434-10.759-16.58-3.99-6.145-7.993-12.195-12.01-18.148-4.006-5.957-7.803-11.552-11.393-16.784-3.59-5.233-6.524-9.44-8.8-12.622v64.134h-19.378v-83.806c.006-1.216.237-2.419.68-3.551.466-1.193 1.162-2.282 2.05-3.205 1.002-1.016 2.211-1.806 3.545-2.316 1.61-.621 3.325-.923 5.051-.889 2.91 0 5.175.387 6.795 1.161 1.333.607 2.615 1.321 3.833 2.135z"/><path d="m850.852 324.455c2.001-5.368 4.16-10.918 6.478-16.648 2.318-5.731 4.638-11.394 6.959-16.988 2.322-5.595 4.587-11.031 6.796-16.309 2.208-5.277 4.284-10.121 6.228-14.53 1.907-4.409 3.606-8.299 5.097-11.671 1.491-3.371 2.697-5.962 3.618-7.774 2.001-4.274 4.23-7.184 6.688-8.732 2.672-1.607 5.75-2.413 8.867-2.322 3.545 0 6.252.5 8.121 1.501 1.404.688 2.71 1.56 3.884 2.593 1.639 2.82 3.596 6.618 5.872 11.394 2.277 4.775 4.664 10.051 7.163 15.827 2.5 5.783 5.023 11.787 7.571 18.012 2.549 6.225 4.959 12.252 7.232 18.081 2.265 5.821 4.341 11.142 6.228 15.963 1.888 4.821 3.366 8.688 4.434 11.603h-21.014c-.732-2.005-1.755-4.666-3.069-7.985-1.314-3.318-2.884-7.299-4.711-11.942h-44.622c-1.815 4.643-3.361 8.607-4.637 11.891-1.276 3.285-2.322 5.969-3.137 8.053zm50.21-75.46c-.453.913-1.208 2.642-2.265 5.187-1.057 2.544-2.285 5.59-3.686 9.139-1.412 3.549-2.98 7.437-4.706 11.665-1.725 4.228-3.409 8.435-5.051 12.622h31.247c-1.635-4.179-3.294-8.386-4.978-12.622-1.683-4.236-3.252-8.101-4.705-11.597-1.461-3.499-2.713-6.52-3.755-9.06-1.042-2.541-1.742-4.319-2.101-5.334z"/><path d="m1053.07 277.512c.09 6.6-1.09 13.155-3.48 19.309-2.2 5.601-5.6 10.653-9.96 14.802-4.51 4.215-9.86 7.445-15.69 9.485-6.14 2.231-13.03 3.347-20.67 3.347h-34.8v-83.099c0-7.101 3.685-10.65 11.054-10.646h22.646c6.83 0 12.65.591 17.47 1.773 5.01 1.165 9.79 3.172 14.13 5.934 4.06 2.618 7.62 5.946 10.5 9.825 2.93 4.001 5.15 8.48 6.55 13.239 1.54 5.204 2.29 10.606 2.25 16.031zm-20.46 0c0-7.007-1.6-13.124-4.78-18.353-3.19-5.228-8.24-8.798-15.15-10.708-1.69-.487-3.43-.83-5.18-1.025-1.95-.228-3.91-.342-5.87-.34h-13.374v60.993h14.194c5 0 9.37-.797 13.1-2.39 3.56-1.474 6.76-3.681 9.41-6.478 2.58-2.784 4.53-6.087 5.73-9.689 1.3-3.87 1.95-7.929 1.92-12.01z"/><path d="m1061.26 324.455c1.99-5.369 4.16-10.918 6.48-16.649 2.33-5.73 4.65-11.393 6.96-16.987 2.32-5.595 4.58-11.031 6.8-16.309 2.21-5.277 4.29-10.121 6.22-14.53 1.92-4.409 3.61-8.299 5.1-11.671 1.49-3.371 2.69-5.962 3.61-7.774 2-4.274 4.23-7.184 6.69-8.732 2.67-1.606 5.75-2.412 8.87-2.322 3.55 0 6.25.5 8.12 1.501 1.4.69 2.71 1.562 3.89 2.593 1.64 2.82 3.59 6.618 5.87 11.393 2.27 4.776 4.66 10.052 7.16 15.827 2.5 5.784 5.03 11.788 7.57 18.013s4.96 12.252 7.24 18.081c2.26 5.821 4.34 11.142 6.23 15.963 1.88 4.821 3.36 8.688 4.43 11.603h-20.98c-.73-2.005-1.75-4.666-3.07-7.985-1.32-3.318-2.89-7.299-4.71-11.942h-44.62c-1.82 4.643-3.37 8.607-4.63 11.891-1.27 3.285-2.32 5.969-3.15 8.053zm50.21-75.46c-.45.913-1.21 2.642-2.26 5.186-1.05 2.545-2.28 5.591-3.68 9.14-1.42 3.549-2.99 7.437-4.71 11.665-1.73 4.228-3.41 8.435-5.05 12.622h31.25c-1.64-4.179-3.3-8.386-4.99-12.622-1.68-4.236-3.25-8.101-4.7-11.597-1.45-3.5-2.71-6.52-3.76-9.06-1.04-2.541-1.75-4.319-2.1-5.334z"/></g><path d="m592.869 184.404c.049 3.519-.581 7.015-1.857 10.295-1.173 2.986-2.984 5.68-5.306 7.893-2.41 2.248-5.26 3.969-8.37 5.057-3.541 1.234-7.27 1.837-11.019 1.784h-18.551v-44.304c0-3.776 1.963-5.663 5.889-5.663h12.079c3.129-.056 6.254.262 9.309.946 2.672.619 5.219 1.689 7.531 3.165 2.17 1.391 4.067 3.166 5.601 5.238 1.568 2.127 2.754 4.511 3.505 7.044.813 2.775 1.214 5.654 1.189 8.545zm-10.912 0c.078-3.435-.804-6.824-2.548-9.785-1.699-2.786-4.391-4.689-8.075-5.708-.904-.264-1.828-.453-2.763-.566-1.038-.121-2.082-.181-3.126-.181h-7.135v32.56h7.571c2.389.052 4.765-.382 6.982-1.274 1.898-.783 3.608-1.96 5.017-3.455 1.376-1.483 2.418-3.244 3.058-5.164.694-2.071 1.039-4.243 1.019-6.427z" fill="#eb0000"/><path d="m615.423 188.917v11.274h24.587v9.242h-35.136v-44.305c0-3.775 1.965-5.662 5.894-5.662h24.661c1.842 0 3.128.377 3.856 1.132.782.933 1.174 2.132 1.093 3.347.017 1.015-.144 2.025-.475 2.984-.197.605-.453 1.19-.765 1.744h-23.715v10.986h18.987c1.842 0 3.128.388 3.856 1.166.782.933 1.174 2.132 1.093 3.347.016 1.015-.145 2.024-.476 2.984-.196.605-.452 1.19-.764 1.744z" fill="#eb0000"/><path d="m684.026 172.036c-.438-.483-1.02-1.049-1.744-1.698-.858-.731-1.81-1.343-2.832-1.818-1.303-.615-2.668-1.089-4.071-1.416-1.779-.406-3.6-.596-5.425-.566-1.459-.036-2.915.136-4.326.51-.987.258-1.905.73-2.69 1.381-.619.529-1.094 1.204-1.382 1.965-.264.697-.4 1.435-.402 2.18.001.676.141 1.343.409 1.963.269.619.662 1.177 1.154 1.639 1.042 1.042 2.898 1.855 5.567 2.44l6.183 1.382c2.207.481 4.371 1.138 6.473 1.965 1.799.694 3.48 1.662 4.983 2.871 1.364 1.111 2.46 2.517 3.205 4.111.787 1.782 1.174 3.715 1.132 5.663.031 2.249-.365 4.483-1.166 6.585-.77 1.955-2.006 3.691-3.602 5.057-1.825 1.513-3.947 2.628-6.229 3.273-2.947.828-5.999 1.219-9.06 1.161-2.908.039-5.811-.24-8.658-.833-2.13-.456-4.214-1.102-6.229-1.931-1.394-.565-2.732-1.259-3.998-2.072-.974-.657-1.579-1.082-1.823-1.274l4.949-7.565c.474.416.971.806 1.489 1.166 1.012.701 2.085 1.309 3.205 1.818 1.56.707 3.178 1.275 4.836 1.699 2.068.531 4.196.788 6.331.764 1.606.033 3.209-.157 4.762-.566 1.047-.268 2.027-.75 2.877-1.416.648-.539 1.137-1.243 1.416-2.038.266-.773.402-1.584.402-2.401.023-.86-.167-1.712-.555-2.48-.387-.768-.96-1.428-1.665-1.92-1.48-1.095-3.556-1.909-6.229-2.441l-6.84-1.382c-1.682-.35-3.326-.862-4.91-1.528-1.605-.664-3.091-1.583-4.4-2.724-1.323-1.157-2.4-2.569-3.165-4.151-.837-1.784-1.248-3.738-1.201-5.708-.029-2.08.356-4.146 1.133-6.076.787-1.883 1.994-3.562 3.528-4.909 1.743-1.5 3.774-2.627 5.968-3.313 2.718-.843 5.553-1.244 8.398-1.189 2.093-.021 4.184.113 6.257.402 1.51.217 3.005.533 4.473.946 1.028.286 2.026.665 2.985 1.132.747.391 1.319.702 1.698.946.87.528 1.605 1.251 2.147 2.112.475.713.74 1.545.764 2.401.013.768-.162 1.528-.51 2.214-.309.625-.689 1.212-1.132 1.75-.393.469-.846.884-1.348 1.234-.361.255-.739.484-1.132.685z" fill="#eb0000"/><path d="m735.023 159.454c1.846 0 3.132.378 3.856 1.133.785.932 1.176 2.132 1.093 3.347.017 1.014-.144 2.024-.475 2.984-.191.607-.448 1.192-.765 1.744h-16.291v40.742h-10.55v-40.714h-11.568c-1.846 0-3.132-.387-3.857-1.161-.784-.932-1.175-2.131-1.092-3.346-.017-1.015.144-2.025.475-2.985.191-.607.448-1.192.765-1.744z" fill="#eb0000"/><path d="m749.067 164.109c0-1.699.492-2.899 1.489-3.601 1.204-.761 2.615-1.129 4.037-1.054 1.096-.018 2.188.129 3.239.436.944.291 1.539.48 1.784.567v48.964h-10.549z" fill="#eb0000"/><path d="m785.511 161.198c.583.674 1.129 1.379 1.637 2.112.849 1.159 1.88 2.601 3.091 4.327 1.212 1.725 2.558 3.641 4.038 5.747 1.484 2.11 2.977 4.292 4.479 6.546s2.969 4.474 4.4 6.659c1.427 2.182 2.699 4.17 3.816 5.963v-28.443c0-1.699.499-2.9 1.495-3.602 1.204-.761 2.615-1.129 4.038-1.053 1.071-.022 2.14.125 3.165.436.895.289 1.467.481 1.699.566v48.965h-10.334c-1.699-2.62-3.615-5.566-5.748-8.839s-4.266-6.499-6.399-9.678c-2.136-3.178-4.162-6.161-6.076-8.947-1.913-2.786-3.474-5.024-4.683-6.716v34.191h-10.328v-44.672c.003-.648.126-1.289.362-1.891.248-.634.619-1.212 1.093-1.699.535-.544 1.18-.967 1.892-1.24.858-.328 1.771-.487 2.689-.47 1.244-.057 2.486.153 3.641.617.707.318 1.387.693 2.033 1.121z" fill="#eb0000"/><path d="m826.112 209.433c1.072-2.862 2.224-5.819 3.454-8.874 1.231-3.054 2.469-6.074 3.715-9.06 1.234-2.986 2.446-5.883 3.635-8.692 1.19-2.808 2.294-5.393 3.313-7.752 1.012-2.348 1.92-4.424 2.724-6.229.804-1.795 1.444-3.177 1.931-4.145 1.064-2.265 2.251-3.818 3.561-4.66 1.429-.854 3.071-1.282 4.734-1.235 1.892 0 3.33.267 4.327.799.747.37 1.443.834 2.072 1.381.872 1.51 1.916 3.536 3.132 6.076 1.215 2.541 2.487 5.355 3.816 8.443 1.337 3.081 2.682 6.29 4.038 9.627 1.355 3.337 2.64 6.546 3.856 9.626 1.212 3.103 2.316 5.935 3.313 8.494.996 2.56 1.783 4.621 2.361 6.184h-11.201c-.377-1.065-.923-2.484-1.636-4.258-.708-1.767-1.541-3.891-2.515-6.365h-23.783l-2.474 6.331-1.671 4.292zm26.773-40.205c-.242.487-.642 1.408-1.2 2.764-.559 1.355-1.214 2.98-1.965 4.875-.755 1.888-1.592 3.964-2.509 6.229s-1.814 4.507-2.69 6.727h16.66c-.872-2.231-1.758-4.473-2.656-6.727-.899-2.254-1.735-4.315-2.509-6.184-.781-1.868-1.444-3.482-2.004-4.841-.561-1.359-.94-2.333-1.133-2.871z" fill="#eb0000"/><path d="m914.647 159.454c1.843 0 3.128.378 3.857 1.133.78.934 1.169 2.133 1.087 3.347.018 1.014-.141 2.024-.47 2.984-.196.605-.452 1.189-.765 1.744h-16.297v40.742h-10.549v-40.714h-11.563c-1.846 0-3.132-.387-3.856-1.161-.785-.932-1.176-2.131-1.093-3.346-.016-1.015.143-2.024.47-2.985.196-.605.452-1.189.764-1.744z" fill="#eb0000"/><path d="m928.685 164.109c0-1.699.498-2.9 1.495-3.602 1.204-.761 2.615-1.129 4.037-1.053 1.094-.018 2.184.129 3.234.436.947.291 1.542.48 1.783.566v48.965h-10.549z" fill="#eb0000"/><path d="m1003.35 184.404c.03 3.557-.61 7.089-1.89 10.408-1.2 3.101-3.006 5.932-5.311 8.33-2.332 2.387-5.13 4.268-8.222 5.526-6.829 2.665-14.411 2.665-21.24 0-3.092-1.256-5.891-3.138-8.222-5.526-2.307-2.396-4.113-5.228-5.312-8.33-2.521-6.708-2.521-14.103 0-20.81 1.184-3.106 2.998-5.934 5.327-8.306s5.123-4.236 8.207-5.477c6.828-2.673 14.412-2.673 21.24 0 3.084 1.241 5.878 3.105 8.207 5.477s4.146 5.2 5.326 8.306c1.28 3.317 1.92 6.846 1.89 10.402zm-10.91 0c.021-2.345-.337-4.677-1.058-6.908-.631-2.006-1.643-3.87-2.979-5.493-1.293-1.533-2.907-2.763-4.728-3.602-1.977-.894-4.127-1.341-6.297-1.308-2.192-.038-4.366.409-6.365 1.308-1.829.843-3.453 2.072-4.762 3.602-1.361 1.613-2.389 3.48-3.024 5.493-.717 2.232-1.073 4.564-1.053 6.908-.022 2.333.333 4.655 1.053 6.874.65 2.019 1.676 3.896 3.024 5.533 1.293 1.565 2.92 2.821 4.762 3.675 1.999.899 4.173 1.346 6.365 1.308 2.17.033 4.32-.413 6.297-1.308 1.834-.85 3.451-2.107 4.728-3.675 1.323-1.647 2.333-3.522 2.979-5.533.716-2.219 1.066-4.541 1.036-6.874z" fill="#eb0000"/><path d="m1027.04 161.198c.59.674 1.13 1.379 1.64 2.112.85 1.159 1.88 2.601 3.09 4.327 1.21 1.725 2.56 3.641 4.04 5.747 1.48 2.11 2.97 4.292 4.47 6.546 1.51 2.254 2.97 4.466 4.41 6.637 1.43 2.182 2.7 4.169 3.82 5.962v-28.42c0-1.699.49-2.9 1.49-3.602 1.2-.761 2.62-1.129 4.04-1.053 1.07-.022 2.13.125 3.16.436.9.289 1.46.481 1.7.566v48.965h-10.33c-1.7-2.62-3.62-5.566-5.75-8.839s-4.27-6.499-6.4-9.678c-2.14-3.178-4.16-6.161-6.07-8.947-1.92-2.786-3.48-5.024-4.69-6.716v34.191h-10.33v-44.672c.01-.648.13-1.289.37-1.891.24-.634.62-1.212 1.09-1.699.53-.545 1.18-.968 1.89-1.24.86-.328 1.77-.488 2.69-.47 1.24-.058 2.48.153 3.64.617.7.318 1.39.693 2.03 1.121z" fill="#eb0000"/><path d="m1103.29 172.037c-.44-.484-1.02-1.05-1.75-1.699-.85-.732-1.81-1.344-2.83-1.818-1.3-.614-2.67-1.089-4.07-1.416-1.78-.406-3.6-.596-5.42-.566-1.46-.036-2.92.136-4.33.51-.99.26-1.91.731-2.69 1.382-.62.528-1.1 1.204-1.38 1.964-.26.698-.4 1.436-.41 2.181.01.675.14 1.343.41 1.962s.67 1.177 1.16 1.639c1.04 1.042 2.9 1.855 5.56 2.441l6.19 1.381c2.21.482 4.37 1.139 6.48 1.965 1.79.695 3.48 1.663 4.98 2.871 1.36 1.113 2.45 2.518 3.2 4.111.79 1.781 1.17 3.715 1.13 5.663.04 2.247-.34 4.481-1.13 6.585-.77 1.955-2.01 3.691-3.6 5.057-1.83 1.514-3.95 2.629-6.23 3.273-2.95.828-6 1.219-9.06 1.161-2.91.039-5.81-.24-8.66-.832-2.13-.456-4.22-1.102-6.23-1.931-1.4-.566-2.74-1.26-4-2.073-.97-.657-1.58-1.081-1.82-1.274l4.94-7.565c.48.416.98.805 1.5 1.166 1.01.702 2.08 1.311 3.2 1.818 1.56.707 3.17 1.275 4.83 1.699 2.07.531 4.2.788 6.33.764 1.61.033 3.22-.157 4.77-.566 1.05-.268 2.02-.751 2.87-1.416.65-.54 1.14-1.244 1.42-2.038.27-.773.4-1.584.4-2.401.02-.86-.18-1.709-.58-2.473-.39-.763-.97-1.415-1.68-1.899-1.48-1.095-3.56-1.908-6.23-2.44l-6.84-1.382c-1.69-.35-3.33-.862-4.91-1.529-1.61-.663-3.09-1.583-4.4-2.724-1.33-1.158-2.4-2.569-3.17-4.15-.83-1.785-1.24-3.739-1.2-5.708-.02-2.083.38-4.149 1.17-6.076.78-1.886 1.99-3.566 3.53-4.91 1.74-1.5 3.76-2.628 5.96-3.312 2.72-.847 5.55-1.252 8.4-1.201 2.08-.02 4.17.115 6.23.402 1.51.217 3 .533 4.47.946 1.03.285 2.03.664 2.99 1.132.75.391 1.32.703 1.7.946.86.531 1.6 1.254 2.14 2.112.48.713.74 1.545.77 2.401.01.769-.17 1.529-.51 2.214-.32.626-.71 1.214-1.17 1.75-.39.471-.84.886-1.35 1.234-.34.249-.71.472-1.08.669z" fill="#eb0000"/></svg>