<svg fill="none" viewBox="0 0 335 300" xmlns="http://www.w3.org/2000/svg"><rect fill="#fcfcfc" height="298" rx="34" stroke="#fff" stroke-width="2" width="333" x="1" y="1"/><path d="m220.164 108.924c.009 6.288-1.07 12.53-3.189 18.449-.51 1.421-1.076 2.815-1.697 4.182-2.904.618-9.718 2.059-11.462 2.492-1.666.528-2.221-.554-2.778-1.666-.557-1.111-3.328-7.167-3.328-7.167s-11.676 13.276-12.228 13.841c-2.244 1.663-4.461 0-3.91-2.22 0-2.223 6.127-28.774 6.127-28.774s-6.678 3.859-8.898 4.968c-1.69 1.111-2.799 1.111-3.907-1.109-1.056-1.584-8.696-16.2903-9.385-17.6155.032-.0633.05-.095.05-.095h-.1s.018.0317.05.095c-.689 1.3199-8.326 16.0285-9.384 17.6155-1.109 2.22-2.22 2.22-3.907 1.109-2.22-1.109-8.902-4.968-8.902-4.968s6.127 26.543 6.127 28.774c.555 2.22-1.665 3.883-3.907 2.22-.554-.557-12.23-13.83-12.23-13.83s-2.782 6.058-3.329 7.167c-.546 1.108-1.108 2.199-2.774 1.665-1.745-.432-8.537-1.874-11.46-2.491-.607-1.331-1.16-2.688-1.66-4.071-2.714-7.504-3.753-15.511-3.044-23.459.71-7.9483 3.151-15.6447 7.152-22.5489 4.001-6.9043 9.465-12.849 16.008-17.4167 6.543-4.5678 14.007-7.6478 21.867-9.0239 7.86-1.376 15.926-1.0147 23.632 1.0586 7.705 2.0733 14.864 5.8083 20.972 10.9427 6.109 5.1345 11.019 11.5439 14.387 18.7782s5.111 15.118 5.107 23.098z" fill="#fff"/><path d="m215.278 131.566c-4.355 9.541-11.361 17.63-20.183 23.302-8.822 5.671-19.09 8.687-29.578 8.687s-20.755-3.016-29.578-8.687c-8.822-5.672-15.828-13.761-20.182-23.302 2.922.617 9.714 2.059 11.459 2.492 1.666.528 2.22-.555 2.774-1.666.555-1.111 3.329-7.167 3.329-7.167s11.676 13.273 12.231 13.83c2.241 1.663 4.461 0 3.906-2.22 0-2.223-6.127-28.774-6.127-28.774s6.682 3.859 8.902 4.968c1.687 1.111 2.798 1.111 3.907-1.109 1.056-1.584 8.695-16.2901 9.384-17.6153.689 1.3199 8.326 16.0293 9.385 17.6153 1.109 2.22 2.217 2.22 3.907 1.109 2.22-1.109 8.899-4.968 8.899-4.968s-6.127 26.543-6.127 28.774c-.552 2.22 1.665 3.883 3.909 2.22.552-.557 12.228-13.83 12.228-13.83s2.756 6.058 3.315 7.167c.56 1.109 1.112 2.199 2.778 1.666 1.744-.433 8.542-1.875 11.462-2.492z" fill="#eb0000"/><g fill="#333"><path d="m185.152 77.114-28.668 61.51 5.728 10.404 10.705-5.142z"/><path d="m123.589 130.077c1.836 0 3.324-1.488 3.324-3.324 0-1.835-1.488-3.323-3.324-3.323s-3.324 1.488-3.324 3.323c0 1.836 1.488 3.324 3.324 3.324z"/><path d="m123.412 94.8667c1.836 0 3.324-1.488 3.324-3.3235s-1.488-3.3235-3.324-3.3235c-1.835 0-3.323 1.488-3.323 3.3235s1.488 3.3235 3.323 3.3235z"/><path d="m148.184 69.8439c1.836 0 3.324-1.488 3.324-3.3235s-1.488-3.3235-3.324-3.3235c-1.835 0-3.323 1.488-3.323 3.3235s1.488 3.3235 3.323 3.3235z"/><path d="m183.394 69.6698c1.836 0 3.324-1.488 3.324-3.3235 0-1.8356-1.488-3.3236-3.324-3.3236s-3.324 1.488-3.324 3.3236c0 1.8355 1.488 3.3235 3.324 3.3235z"/><path d="m208.417 94.4418c1.835 0 3.323-1.488 3.323-3.3236 0-1.8355-1.488-3.3235-3.323-3.3235-1.836 0-3.324 1.488-3.324 3.3235 0 1.8356 1.488 3.3236 3.324 3.3236z"/><path d="m208.591 129.649c1.836 0 3.324-1.488 3.324-3.324 0-1.835-1.488-3.323-3.324-3.323-1.835 0-3.323 1.488-3.323 3.323 0 1.836 1.488 3.324 3.323 3.324z"/><path d="m119.999 112.49c1.835 0 3.323-1.488 3.323-3.323 0-1.836-1.488-3.324-3.323-3.324-1.836 0-3.324 1.488-3.324 3.324 0 1.835 1.488 3.323 3.324 3.323z"/><path d="m133.311 79.8911c1.836 0 3.324-1.488 3.324-3.3235 0-1.8356-1.488-3.3236-3.324-3.3236-1.835 0-3.323 1.488-3.323 3.3236 0 1.8355 1.488 3.3235 3.323 3.3235z"/><path d="m165.771 66.2565c1.835 0 3.323-1.488 3.323-3.3236 0-1.8355-1.488-3.3235-3.323-3.3235-1.836 0-3.324 1.488-3.324 3.3235 0 1.8356 1.488 3.3236 3.324 3.3236z"/><path d="m198.37 79.5664c1.835 0 3.323-1.488 3.323-3.3235 0-1.8356-1.488-3.3236-3.323-3.3236-1.836 0-3.324 1.488-3.324 3.3236 0 1.8355 1.488 3.3235 3.324 3.3235z"/><path d="m212.004 112.028c1.836 0 3.324-1.488 3.324-3.323 0-1.836-1.488-3.324-3.324-3.324-1.835 0-3.323 1.488-3.323 3.324 0 1.835 1.488 3.323 3.323 3.323z"/><path d="m165.509 49c-33.1 0-59.924 26.8337-59.924 59.924 0 15.896 6.315 31.141 17.555 42.381s26.485 17.554 42.381 17.554 31.141-6.314 42.381-17.554 17.555-26.485 17.555-42.381c-.013-33.0903-26.847-59.924-59.948-59.924zm49.769 82.565c-4.355 9.542-11.36 17.631-20.183 23.302-8.822 5.672-19.09 8.688-29.578 8.688s-20.755-3.016-29.578-8.688c-8.822-5.671-15.828-13.76-20.182-23.302-.608-1.33-1.161-2.687-1.661-4.07-2.962-8.245-3.898-17.08-2.73-25.763 1.169-8.6817 4.407-16.9557 9.443-24.124 5.036-7.1684 11.721-13.0209 19.493-17.0642 7.771-4.0433 16.401-6.1588 25.162-6.1682 8.76-.0095 17.394 2.0875 25.174 6.114 7.781 4.0265 14.479 9.8646 19.53 17.0221 5.051 7.1574 8.308 15.4244 9.495 24.1043 1.187 8.679.269 17.517-2.675 25.768-.519 1.42-1.089 2.814-1.71 4.181z"/></g><path d="m165.921 141.142c2.228 0 4.034-1.805 4.034-4.033s-1.806-4.034-4.034-4.034-4.034 1.806-4.034 4.034 1.806 4.033 4.034 4.033z" fill="#fff"/><path d="m91.9824 207.597c.006.476-.0931.948-.2904 1.381-.1812.4-.4137.774-.6916 1.114-.244.304-.5201.581-.8236.826-.2153.178-.4468.334-.6917.468-.2375-.238-.5719-.55-1.0031-.938-.5089-.438-1.0702-.813-1.671-1.114-.776-.392-1.5896-.705-2.4286-.934-1.0384-.28-2.1107-.415-3.1863-.401-1.3311-.019-2.6515.239-3.8779.757-1.1372.49-2.1555 1.22-2.9856 2.139-.8589.968-1.5175 2.096-1.9376 3.32-.4787 1.398-.7127 2.868-.6916 4.346 0 3.416.8693 6.016 2.6081 7.8 1.7388 1.785 4.0609 2.676 6.9665 2.674 1.101.013 2.1999-.099 3.276-.332.841-.186 1.6677-.432 2.4735-.737.5737-.209 1.1254-.474 1.6472-.792.4171-.264.6837-.443.792-.528l2.8536 4.813c-.3286.277-.6821.524-1.0559.736-.7404.423-1.5159.78-2.3178 1.069-1.1399.416-2.3101.744-3.5004.98-1.5187.299-3.064.441-4.6117.425-2.1236.017-4.2344-.331-6.2405-1.027-1.8758-.648-3.5875-1.698-5.0157-3.075-1.4524-1.428-2.5907-3.142-3.342-5.035-.8183-1.99-1.2266-4.308-1.2249-6.953-.038-2.295.3783-4.574 1.2249-6.708.7612-1.903 1.9152-3.625 3.3869-5.052 1.461-1.396 3.1897-2.48 5.0816-3.189 2.026-.756 4.1734-1.133 6.3356-1.114 2.4374 0 4.3988.252 5.8841.757 1.4854.506 2.5844 1.011 3.2972 1.516.5151.365.9544.827 1.2935 1.359.2864.431.4482.933.4672 1.449z" fill="#333"/><path d="m95.7626 233.893c.6512-1.76 1.3551-3.573 2.1119-5.438.7567-1.866 1.5143-3.714 2.2725-5.544.759-1.827 1.502-3.602 2.231-5.324.729-1.723 1.404-3.307 2.027-4.752.623-1.441 1.18-2.712 1.671-3.812s.885-1.946 1.18-2.54c.655-1.397 1.383-2.348 2.183-2.853.876-.525 1.884-.788 2.904-.758 1.158 0 2.038.164 2.64.491.465.227.898.515 1.286.858.528.922 1.167 2.163 1.916 3.722.75 1.56 1.53 3.282 2.342 5.169.815 1.888 1.639 3.849 2.473 5.882.834 2.032 1.622 4.001 2.363 5.905s1.417 3.643 2.027 5.216c.611 1.573 1.093 2.836 1.447 3.788h-6.864c-.237-.654-.571-1.524-1-2.608-.43-1.084-.942-2.387-1.537-3.909h-14.571c-.597 1.515-1.102 2.807-1.516 3.877-.413 1.07-.755 1.95-1.026 2.64zm16.3984-24.656c-.148.295-.392.86-.734 1.692-.341.832-.742 1.828-1.203 2.986-.462 1.159-.975 2.43-1.539 3.811-.565 1.382-1.117 2.759-1.656 4.132h10.206c-.528-1.364-1.07-2.738-1.626-4.121s-1.069-2.646-1.539-3.788c-.475-1.144-.884-2.132-1.225-2.965-.342-.832-.569-1.415-.684-1.747z" fill="#333"/><path d="m141.347 204.345c.357.412.692.843 1.003 1.291.528.704 1.16 1.584 1.895 2.64l2.474 3.519c.905 1.293 1.818 2.631 2.74 4.012.922 1.382 1.826 2.746 2.711 4.092.88 1.336 1.661 2.554 2.342 3.654v-17.423c0-1.04.303-1.774.913-2.207s1.431-.647 2.474-.647c.655-.014 1.309.075 1.937.264.549.177.898.296 1.056.357v29.996h-6.346c-1.04-1.605-2.213-3.411-3.519-5.417s-2.614-3.982-3.925-5.927c-1.308-1.944-2.549-3.771-3.722-5.48-1.174-1.709-2.132-3.083-2.875-4.123v20.947h-6.336v-27.365c.002-.397.078-.79.225-1.158.149-.394.376-.753.668-1.056.328-.332.723-.59 1.158-.758.526-.202 1.085-.301 1.648-.29.761-.035 1.521.094 2.228.38.435.198.854.432 1.251.699z" fill="#333"/><path d="m166.222 233.893c.651-1.76 1.355-3.573 2.112-5.438.756-1.866 1.514-3.714 2.273-5.544.758-1.827 1.502-3.602 2.23-5.324.729-1.723 1.405-3.307 2.028-4.752.623-1.441 1.18-2.712 1.671-3.812s.884-1.946 1.18-2.54c.654-1.397 1.382-2.348 2.183-2.853.875-.525 1.883-.788 2.904-.758 1.158 0 2.04.164 2.639.491.46.225.887.51 1.27.848.528.922 1.167 2.162 1.917 3.722.749 1.559 1.532 3.282 2.346 5.169.815 1.888 1.64 3.848 2.474 5.881s1.621 4.001 2.36 5.905c.744 1.904 1.421 3.643 2.03 5.217.609 1.573 1.091 2.836 1.447 3.788h-6.864c-.238-.655-.571-1.524-1-2.608-.43-1.085-.943-2.384-1.539-3.899h-14.572c-.597 1.515-1.103 2.807-1.518 3.877s-.757 1.95-1.024 2.64zm16.398-24.656c-.147.295-.392.86-.733 1.692-.342.832-.744 1.831-1.207 2.996-.461 1.16-.974 2.431-1.539 3.812-.565 1.382-1.114 2.755-1.647 4.121h10.208c-.528-1.364-1.07-2.738-1.626-4.121s-1.069-2.646-1.539-3.788c-.475-1.144-.884-2.132-1.225-2.965-.341-.832-.572-1.415-.692-1.747z" fill="#333"/><path d="m232.267 218.561c.03 2.155-.355 4.296-1.135 6.306-.719 1.83-1.83 3.481-3.255 4.836-1.475 1.375-3.22 2.43-5.123 3.097-2.17.755-4.456 1.125-6.753 1.093h-11.351v-27.143c0-2.318 1.203-3.477 3.611-3.477h7.391c1.918-.032 3.833.163 5.705.581 1.634.384 3.191 1.044 4.604 1.951 1.328.855 2.491 1.942 3.432 3.21.958 1.306 1.682 2.768 2.141 4.321.499 1.697.746 3.457.733 5.225zm-6.684 0c0-2.288-.52-4.287-1.56-5.995-1.04-1.709-2.689-2.875-4.947-3.498-.555-.158-1.121-.27-1.694-.335-.636-.074-1.275-.111-1.914-.111h-4.369v19.922h4.635c1.466.028 2.921-.241 4.279-.791 1.162-.479 2.21-1.199 3.073-2.112.844-.91 1.482-1.99 1.872-3.168.423-1.261.634-2.583.625-3.912z" fill="#333"/><path d="m234.942 233.893c.652-1.76 1.356-3.573 2.111-5.438.755-1.866 1.513-3.714 2.273-5.544.757-1.827 1.5-3.601 2.228-5.324.729-1.723 1.405-3.307 2.028-4.752.626-1.441 1.183-2.712 1.671-3.812.487-1.1.881-1.946 1.182-2.539.653-1.398 1.381-2.349 2.183-2.854.876-.526 1.884-.789 2.904-.758 1.158 0 2.038.164 2.64.491.459.226.886.511 1.27.848.528.922 1.167 2.163 1.916 3.722.75 1.559 1.53 3.282 2.339 5.169.819 1.888 1.643 3.848 2.474 5.881.83 2.033 1.618 4.001 2.362 5.905.743 1.905 1.419 3.643 2.028 5.217.609 1.573 1.092 2.836 1.449 3.788h-6.864c-.237-.655-.572-1.524-1.003-2.608s-.943-2.384-1.536-3.899h-14.561c-.593 1.515-1.098 2.807-1.516 3.877l-1.024 2.64zm16.401-24.656c-.15.296-.395.86-.737 1.692-.341.832-.742 1.828-1.204 2.986-.459 1.159-.971 2.43-1.536 3.812-.565 1.381-1.115 2.755-1.65 4.12h10.206c-.528-1.364-1.07-2.737-1.626-4.12-.556-1.384-1.069-2.646-1.537-3.789-.475-1.144-.884-2.132-1.227-2.964-.343-.833-.573-1.412-.689-1.737z" fill="#333"/><path d="m90.6361 188.432c.0155 1.125-.1862 2.243-.5939 3.292-.3759.954-.9552 1.814-1.6974 2.521-.77.718-1.6806 1.268-2.6742 1.616-1.1315.394-2.3233.587-3.5215.57h-5.929v-14.16c0-1.207.6283-1.811 1.8848-1.811h3.8594c1.0001-.017 1.9987.084 2.9751.301.8532.198 1.6665.54 2.4049 1.011.6931.446 1.3002 1.013 1.7924 1.673.4972.683.8739 1.445 1.114 2.255.2624.887.3922 1.807.3854 2.732zm-3.4872 0c.0254-1.097-.2571-2.18-.8157-3.125-.5403-.893-1.4-1.502-2.5791-1.827-.2896-.082-.5854-.14-.8843-.174-.3321-.039-.6662-.058-1.0005-.058h-2.2782v10.392h2.4181c.7643.017 1.524-.121 2.2333-.406.6055-.252 1.1514-.628 1.6024-1.104.44-.474.7731-1.038.9767-1.652.2213-.659.3319-1.351.3273-2.046z" fill="#eb0000"/><path d="m97.8428 189.874v3.603h7.8662v2.954h-11.2372v-14.16c0-1.207.6274-1.811 1.8822-1.811h7.882c.59 0 1 .123 1.231.37.25.298.375.682.348 1.071.005.324-.046.647-.15.953-.063.193-.144.38-.243.557h-7.5792v3.511h6.0712c.588 0 .999.124 1.233.372.247.295.371.673.349 1.056.001.529-.136 1.05-.396 1.51z" fill="#eb0000"/><path d="m119.767 184.48c-.177-.191-.364-.374-.56-.546-.271-.233-.572-.429-.895-.581-.417-.196-.853-.348-1.301-.454-.568-.13-1.15-.193-1.732-.185-.467-.011-.932.043-1.383.161-.316.084-.61.235-.861.444-.197.169-.349.385-.441.628-.085.223-.129.459-.129.697.001.216.045.429.132.627.086.198.212.376.369.524.333.333.925.592 1.777.779l1.977.441c.705.154 1.397.365 2.07.628.572.222 1.106.532 1.584.919.435.358.784.809 1.024 1.319.25.572.373 1.191.359 1.814.011.721-.115 1.438-.372 2.112-.246.625-.641 1.179-1.151 1.615-.585.489-1.266.849-1.999 1.056-.944.266-1.922.392-2.903.373-.928.006-1.853-.089-2.759-.286-.683-.144-1.352-.349-1.998-.615-.446-.182-.875-.403-1.281-.662-.309-.209-.501-.346-.58-.407l1.583-2.418c.153.133.312.257.478.372.323.224.665.419 1.022.581.499.226 1.016.409 1.547.547.66.169 1.34.251 2.022.242.513.013 1.026-.045 1.523-.174.334-.085.647-.239.919-.451.206-.173.363-.398.454-.652.084-.248.127-.507.127-.768.007-.275-.054-.547-.178-.792s-.307-.456-.533-.613c-.596-.406-1.275-.676-1.987-.792l-2.183-.443c-.539-.111-1.065-.275-1.571-.489-.513-.212-.988-.506-1.407-.871-.422-.368-.766-.817-1.011-1.32-.267-.57-.398-1.194-.383-1.824-.006-.666.12-1.326.372-1.943.252-.601.637-1.138 1.127-1.568.557-.478 1.206-.837 1.906-1.056.869-.27 1.775-.399 2.685-.382.669-.007 1.338.035 2.001.126.482.071.959.172 1.428.304.328.09.647.21.953.359.24.124.422.224.547.303.278.168.513.398.686.674.152.227.237.494.245.768.004.245-.052.488-.163.707-.102.201-.227.389-.372.56-.126.149-.271.281-.431.393-.112.082-.23.155-.353.219z" fill="#eb0000"/><path d="m136.067 180.463c.588 0 .999.123 1.233.369.25.299.375.683.349 1.072.005.324-.046.646-.151.953-.062.194-.144.38-.245.557h-5.211v13.019h-3.366v-13.022h-3.696c-.589 0-.999-.124-1.23-.372-.251-.298-.376-.681-.351-1.069-.006-.324.046-.647.153-.953.062-.193.143-.38.243-.557z" fill="#eb0000"/><path d="m140.555 181.946c0-.541.158-.926.478-1.151.384-.242.834-.36 1.288-.335.35-.006.699.04 1.035.137.303.095.493.156.57.188v15.646h-3.371z" fill="#eb0000"/><path d="m152.197 181.017c.188.214.365.439.528.673.272.373.602.834.99 1.383l1.288 1.848c.473.672.95 1.37 1.431 2.094.48.723.949 1.432 1.407 2.127.457.704.864 1.339 1.219 1.906v-9.102c0-.541.159-.927.478-1.151.385-.243.836-.36 1.291-.335.342-.007.683.04 1.011.137.285.095.467.156.546.188v15.646h-3.307c-.544-.837-1.154-1.78-1.848-2.825-.695-1.045-1.362-2.077-2.046-3.091s-1.32-1.969-1.94-2.862c-.621-.892-1.112-1.607-1.5-2.148v10.926h-3.292v-14.276c.002-.206.041-.41.117-.602.079-.204.198-.39.348-.549.172-.173.378-.307.605-.394.274-.105.566-.156.86-.15.398-.018.794.049 1.164.195.226.104.443.225.65.362z" fill="#eb0000"/><path d="m165.169 196.431c.34-.914.71-1.848 1.106-2.835.396-.988.792-1.943 1.185-2.904s.792-1.88 1.162-2.777c.369-.898.733-1.727 1.055-2.476.323-.75.616-1.415.872-1.988s.462-1.016.617-1.32c.34-.729.719-1.225 1.138-1.489.456-.274.981-.412 1.513-.396.475-.022.949.068 1.383.264.239.118.462.267.663.444.277.48.612 1.127.997 1.94.386.813.792 1.713 1.223 2.695.43.982.855 2.009 1.288 3.07s.845 2.088 1.233 3.081c.388.992.741 1.898 1.056 2.719.314.821.57 1.481.755 1.977h-3.583c-.123-.34-.299-.793-.528-1.359-.224-.568-.493-1.244-.792-2.036h-7.602l-.792 2.022-.528 1.373zm8.555-12.856c-.076.153-.203.449-.382.882-.18.433-.389.953-.629 1.557-.24.605-.507 1.267-.792 1.988s-.58 1.439-.858 2.151h5.322c-.277-.712-.562-1.43-.847-2.151s-.555-1.378-.792-1.975c-.238-.596-.462-1.111-.639-1.547-.177-.435-.319-.736-.383-.905z" fill="#eb0000"/><path d="m193.462 180.463c.592 0 1.001.124 1.233.369.25.299.375.683.348 1.072.006.324-.045.646-.15.953-.063.193-.144.38-.243.557h-5.208v13.019h-3.371v-13.022h-3.696c-.591 0-1-.124-1.233-.372-.25-.298-.374-.681-.348-1.069-.005-.324.045-.646.15-.953.062-.193.144-.38.243-.557z" fill="#eb0000"/><path d="m197.95 181.946c0-.541.158-.927.478-1.151.385-.243.836-.36 1.291-.335.349-.006.696.041 1.032.137.303.095.493.156.57.188v15.646h-3.371z" fill="#eb0000"/><path d="m221.803 188.432c.011 1.137-.194 2.266-.604 3.326-.384.991-.961 1.896-1.698 2.661-.744.763-1.639 1.365-2.626 1.766-2.183.856-4.608.856-6.79 0-.988-.401-1.882-1.003-2.627-1.766-.737-.765-1.315-1.67-1.7-2.661-.806-2.143-.806-4.506 0-6.649.379-.993.958-1.897 1.702-2.655s1.637-1.354 2.622-1.751c2.184-.852 4.607-.852 6.79 0 .986.397 1.878.993 2.622 1.751.745.758 1.324 1.662 1.702 2.655.411 1.059.617 2.187.607 3.323zm-3.487 0c.006-.749-.108-1.494-.338-2.207-.201-.641-.525-1.237-.953-1.755-.413-.49-.928-.883-1.51-1.151-.631-.287-1.318-.431-2.011-.42-.701-.012-1.396.131-2.036.42-.584.27-1.103.663-1.523 1.151-.433.516-.761 1.113-.963 1.755-.23.713-.344 1.458-.338 2.207-.007.747.107 1.489.338 2.199.208.644.535 1.243.963 1.766.414.5.935.901 1.523 1.175.64.287 1.335.429 2.036.417.693.01 1.379-.132 2.011-.417.586-.272 1.103-.674 1.51-1.175.423-.525.746-1.124.953-1.766.23-.71.345-1.452.338-2.199z" fill="#eb0000"/><path d="m229.382 181.017c.188.215.364.439.528.673.271.373.6.834.987 1.383l1.291 1.848c.472.672.949 1.37 1.431 2.094.482.723.951 1.432 1.407 2.127.458.704.864 1.339 1.22 1.906v-9.102c0-.541.158-.926.477-1.151.385-.242.835-.36 1.289-.335.342-.007.683.039 1.011.137.288.095.47.156.546.188v15.646h-3.3l-1.847-2.825c-.682-1.045-1.363-2.076-2.046-3.091-.683-1.016-1.33-1.969-1.941-2.862-.612-.89-1.112-1.606-1.499-2.148v10.926h-3.297v-14.276c.001-.206.041-.41.116-.602.078-.205.196-.392.349-.549.171-.173.377-.307.604-.394.275-.105.567-.156.861-.15.396-.018.792.049 1.161.195.227.103.445.224.652.362z" fill="#eb0000"/><path d="m253.748 184.48c-.177-.191-.364-.374-.56-.546-.271-.233-.572-.429-.895-.581-.417-.196-.853-.348-1.301-.454-.568-.131-1.149-.193-1.732-.185-.466-.012-.932.043-1.383.161-.316.084-.61.235-.861.444-.197.169-.349.385-.441.628-.085.223-.128.459-.129.697.001.216.046.429.132.627s.212.376.37.524c.332.333.924.592 1.776.779l1.977.441c.706.154 1.398.364 2.07.628.572.223 1.106.533 1.584.918.435.359.785.81 1.024 1.32.251.571.373 1.19.359 1.814.012.721-.115 1.438-.372 2.112-.245.625-.641 1.179-1.151 1.615-.584.489-1.265.849-1.998 1.056-.945.266-1.923.392-2.904.372-.929.015-1.857-.074-2.767-.264-.683-.144-1.352-.349-1.998-.615-.446-.181-.874-.403-1.28-.662-.309-.209-.502-.346-.581-.407l1.584-2.418c.152.133.312.257.478.372.322.224.664.419 1.021.581.499.226 1.017.409 1.547.547.66.169 1.34.251 2.022.243.514.012 1.026-.046 1.523-.175.335-.085.647-.239.919-.451.206-.173.363-.398.454-.652.084-.248.127-.507.127-.768.012-.277-.046-.552-.168-.8-.121-.249-.303-.463-.529-.623-.597-.406-1.275-.677-1.988-.792l-2.186-.444c-.537-.111-1.062-.274-1.568-.488-.513-.213-.988-.507-1.407-.871-.421-.368-.765-.817-1.011-1.32-.266-.57-.397-1.195-.383-1.824-.006-.666.121-1.327.373-1.943.251-.602.637-1.138 1.127-1.568.557-.478 1.205-.838 1.906-1.056.868-.271 1.775-.4 2.684-.383.67-.007 1.338.035 2.001.127.483.07.96.172 1.429.303.328.09.647.211.953.359.24.125.422.225.546.304.278.168.513.399.686.673.153.228.238.494.246.768.004.246-.053.489-.164.708-.102.2-.226.388-.372.56-.126.149-.271.281-.43.393-.115.081-.235.153-.359.216z" fill="#eb0000"/></svg>
