<svg fill="none" viewBox="0 0 1400 500" xmlns="http://www.w3.org/2000/svg" xmlns:xlink="http://www.w3.org/1999/xlink"><linearGradient id="a"><stop offset=".7" stop-color="#f2f2f2"/><stop offset="1" stop-color="#bfbfbf"/></linearGradient><radialGradient id="b" cx="0" cy="0" gradientTransform="matrix(122.843 0 0 123.143 407.374 252.972)" gradientUnits="userSpaceOnUse" r="1" xlink:href="#a"/><radialGradient id="c" cx="0" cy="0" gradientTransform="matrix(122.965 0 0 123.265 407.373 252.813)" gradientUnits="userSpaceOnUse" r="1" xlink:href="#a"/><linearGradient id="d"><stop offset=".7" stop-color="#eb0000"/><stop offset="1" stop-color="#c80000"/></linearGradient><radialGradient id="e" cx="0" cy="0" gradientTransform="matrix(126.97 0 0 127.28 404.427 249.555)" gradientUnits="userSpaceOnUse" r="1" xlink:href="#d"/><radialGradient id="f" cx="0" cy="0" gradientTransform="matrix(126.97 0 0 127.28 404.427 249.554)" gradientUnits="userSpaceOnUse" r="1" xlink:href="#d"/><radialGradient id="g" cx="0" cy="0" gradientTransform="matrix(126.969 0 0 127.279 404.427 249.553)" gradientUnits="userSpaceOnUse" r="1" xlink:href="#d"/><radialGradient id="h" cx="0" cy="0" gradientTransform="matrix(168.54 0 0 168.951 405.963 250.268)" gradientUnits="userSpaceOnUse" r="1"><stop offset="0" stop-color="#ffbe00"/><stop offset="1" stop-color="#ff9600"/></radialGradient><radialGradient id="i" cx="0" cy="0" gradientTransform="matrix(126.969 0 0 127.279 404.427 249.555)" gradientUnits="userSpaceOnUse" r="1" xlink:href="#d"/><path d="m0 0h1400v500h-1400z" fill="#1a1a1a"/><g fill="#e6e6e6"><path d="m877.024 146.021c0 9.308-7.154 16.937-18.266 16.937-10.655 0-17.809-7.629-17.505-16.937-.152-9.765 6.85-17.089 17.809-17.089 10.808 0 17.809 7.324 17.962 17.089z"/><path d="m660.577 134.273-28.464 28.839h-28.616l19.636-28.839z"/><path d="m664.839 266.562h-57.994v37.536h64.843v29.297h-100.613v-158.079h97.264v29.297h-61.494v32.806h57.994z"/><path d="m708.828 175.316h35.77v128.019h62.712v30.06h-98.482z"/><path d="m877.024 175.316v158.079h-35.77v-158.079z"/><path d="m951.151 205.376h-42.315v-30.06h121.164v30.06h-43.079v128.019h-35.77z"/><path d="m1155.73 266.562h-58v37.536h64.85v29.297h-100.62v-158.079h97.27v29.297h-61.5v32.806h58z"/></g><path d="m444.739 370.321c-4.719 2.594-13.091-1.525-24.811-13.274-29.53-29.602-68.953-96.129-88.132-148.771-11.568-31.738-13.09-51.116-5.936-55.083 10.959-6.104 21.919-12.054 32.878-18.158-7.154 3.967-5.632 23.346 5.936 55.083 19.179 52.642 58.602 119.322 88.132 148.771 11.72 11.749 20.092 15.869 24.811 13.275-10.96 5.951-21.919 12.054-32.878 18.157z" fill="url(#b)"/><path d="m512.016 193.781c10.046 13.581 12.786 32.654 6.089 55.084-15.374 51.879-75.041 102.232-133.187 112.455-32.878 5.798-58.298-2.441-71.388-20.141l-21.919-29.754c13.091 17.699 38.51 25.939 71.388 20.141 58.146-10.223 117.813-60.576 133.187-112.455 6.697-22.43 3.958-41.504-6.089-55.084 7.307 9.918 14.613 19.836 21.919 29.754z" fill="url(#c)"/><path d="m512.017 193.781c-7.307-9.918-14.613-19.836-21.919-29.754-13.091-17.7-38.51-25.94-71.388-20.141-6.089 1.068-12.329 2.594-18.418 4.577 7.458 8.85 15.069 18.768 22.832 29.449 5.784-1.831 11.72-3.204 17.505-4.272 32.878-5.799 58.297 2.441 71.388 20.141z" fill="url(#e)"/><path d="m438.802 315.238c11.568 31.738 13.09 51.116 5.936 55.083 10.959-6.103 21.919-12.054 32.878-18.157 7.154-3.967 5.632-23.193-5.784-54.778l-25.724-14.191z" fill="url(#f)"/><path d="m358.89 134.882c-10.96 6.104-21.919 12.054-32.878 18.158 3.957-2.136 10.655.458 19.635 8.545 10.807-6.714 21.919-12.665 33.183-17.853-9.133-8.239-15.983-10.986-19.94-8.85z" fill="url(#g)"/><path d="m465.135 279.227-47.947-13.885 2.74 50.048-19.179-46.234-37.293 33.417 24.355-43.945-150.387-8.392 150.387-8.392-24.355-43.792 37.293 33.416 19.179-46.386-2.74 50.048 47.947-13.885-40.793 28.991z" fill="url(#h)"/><path d="m322.055 197.443c-17.353 17.699-30.443 38.146-36.684 58.897-6.697 22.43-3.957 41.504 6.089 55.084l22.071 29.754c-10.046-13.58-12.786-32.653-6.089-55.083 6.241-20.905 19.636-41.656 37.292-59.509l7.154-31.127z" fill="url(#i)"/></svg>