<svg fill="none" viewBox="0 0 1400 500" xmlns="http://www.w3.org/2000/svg" xmlns:xlink="http://www.w3.org/1999/xlink"><linearGradient id="a"><stop offset=".7" stop-color="#f2f2f2"/><stop offset="1" stop-color="#bfbfbf"/></linearGradient><radialGradient id="b" cx="0" cy="0" gradientTransform="matrix(122.843 0 0 123.143 407.95 253.041)" gradientUnits="userSpaceOnUse" r="1" xlink:href="#a"/><radialGradient id="c" cx="0" cy="0" gradientTransform="matrix(122.965 0 0 123.265 407.95 252.881)" gradientUnits="userSpaceOnUse" r="1" xlink:href="#a"/><linearGradient id="d"><stop offset=".7" stop-color="#eb0000"/><stop offset="1" stop-color="#c80000"/></linearGradient><radialGradient id="e" cx="0" cy="0" gradientTransform="matrix(126.97 0 0 127.28 405.003 249.622)" gradientUnits="userSpaceOnUse" r="1" xlink:href="#d"/><radialGradient id="f" cx="0" cy="0" gradientTransform="matrix(126.97 0 0 127.28 405.003 249.623)" gradientUnits="userSpaceOnUse" r="1" xlink:href="#d"/><radialGradient id="g" cx="0" cy="0" gradientTransform="matrix(126.969 0 0 127.279 405.004 249.622)" gradientUnits="userSpaceOnUse" r="1" xlink:href="#d"/><radialGradient id="h" cx="0" cy="0" gradientTransform="matrix(168.54 0 0 168.951 406.54 250.337)" gradientUnits="userSpaceOnUse" r="1"><stop offset="0" stop-color="#ffbe00"/><stop offset="1" stop-color="#ff9600"/></radialGradient><radialGradient id="i" cx="0" cy="0" gradientTransform="matrix(126.969 0 0 127.279 405.003 249.624)" gradientUnits="userSpaceOnUse" r="1" xlink:href="#d"/><rect fill="#fcfcfc" height="500" width="1400"/><g fill="#000"><path d="m877.6 146.09c0 9.307-7.154 16.936-18.265 16.936-10.655 0-17.809-7.629-17.505-16.936-.152-9.766 6.85-17.09 17.809-17.09 10.807 0 17.809 7.324 17.961 17.09z"/><path d="m661.153 134.341-28.464 28.838h-28.616l19.635-28.838z"/><path d="m665.415 266.632h-57.994v37.536h64.843v29.296h-100.613v-158.078h97.265v29.296h-61.495v32.806h57.994z"/><path d="m709.405 175.386h35.77v128.019h62.712v30.059h-98.482z"/><path d="m877.6 175.386v158.078h-35.77v-158.078z"/><path d="m951.728 205.445h-42.315v-30.059h121.157v30.059h-43.072v128.019h-35.77z"/><path d="m1156.3 266.632h-57.99v37.536h64.84v29.296h-100.61v-158.078h97.26v29.296h-61.49v32.806h57.99z"/></g><path d="m445.314 370.39c-4.718 2.594-13.09-1.526-24.81-13.275-29.53-29.602-68.953-96.129-88.132-148.771-11.568-31.737-13.09-51.116-5.936-55.083 10.959-6.103 21.919-12.054 32.878-18.157-7.154 3.967-5.632 23.345 5.936 55.083 19.179 52.642 58.602 119.321 88.132 148.77 11.72 11.749 20.092 15.869 24.811 13.275-10.96 5.951-21.919 12.054-32.879 18.158z" fill="url(#b)"/><path d="m512.593 193.849c10.046 13.58 12.786 32.653 6.088 55.083-15.373 51.879-75.041 102.232-133.186 112.455-32.878 5.799-58.298-2.441-71.388-20.141l-21.919-29.754c13.09 17.7 38.51 25.939 71.388 20.141 58.145-10.223 117.813-60.576 133.187-112.455 6.697-22.43 3.957-41.503-6.089-55.083 7.306 9.918 14.613 19.836 21.919 29.754z" fill="url(#c)"/><path d="m512.593 193.848c-7.307-9.918-14.613-19.836-21.919-29.754-13.09-17.7-38.51-25.939-71.388-20.141-6.089 1.068-12.329 2.594-18.418 4.578 7.459 8.849 15.069 18.767 22.832 29.448 5.784-1.831 11.721-3.204 17.505-4.272 32.878-5.798 58.297 2.441 71.388 20.141z" fill="url(#e)"/><path d="m439.378 315.307c11.568 31.737 13.091 51.116 5.936 55.083 10.96-6.104 21.919-12.054 32.879-18.158 7.154-3.967 5.631-23.193-5.785-54.778l-25.724-14.19z" fill="url(#f)"/><path d="m359.466 134.951c-10.959 6.103-21.919 12.054-32.878 18.157 3.958-2.136 10.655.458 19.636 8.545 10.807-6.714 21.918-12.665 33.182-17.853-9.133-8.239-15.982-10.986-19.94-8.849z" fill="url(#g)"/><path d="m465.711 279.296-47.947-13.885 2.74 50.048-19.179-46.233-37.292 33.416 24.354-43.945-150.387-8.392 150.387-8.392-24.354-43.792 37.292 33.416 19.179-46.386-2.74 50.048 47.947-13.885-40.793 28.991z" fill="url(#h)"/><path d="m322.631 197.511c-17.353 17.7-30.443 38.146-36.684 58.898-6.697 22.43-3.957 41.503 6.089 55.083l22.071 29.754c-10.046-13.58-12.786-32.653-6.089-55.083 6.241-20.904 19.636-41.656 37.292-59.508l7.154-31.128z" fill="url(#i)"/></svg>
