<svg fill="none" viewBox="0 0 335 200" xmlns="http://www.w3.org/2000/svg" xmlns:xlink="http://www.w3.org/1999/xlink"><linearGradient id="a"><stop offset=".7" stop-color="#f2f2f2"/><stop offset="1" stop-color="#bfbfbf"/></linearGradient><radialGradient id="b" cx="0" cy="0" gradientTransform="matrix(39.1703 0 0 39.17 75.1913 100.456)" gradientUnits="userSpaceOnUse" r="1" xlink:href="#a"/><radialGradient id="c" cx="0" cy="0" gradientTransform="matrix(39.2094 0 0 39.209 75.1913 100.405)" gradientUnits="userSpaceOnUse" r="1" xlink:href="#a"/><linearGradient id="d"><stop offset=".7" stop-color="#eb0000"/><stop offset="1" stop-color="#c80000"/></linearGradient><radialGradient id="e" cx="0" cy="0" gradientTransform="matrix(40.4863 0 0 40.486 74.2518 99.3686)" gradientUnits="userSpaceOnUse" r="1" xlink:href="#d"/><radialGradient id="f" cx="0" cy="0" gradientTransform="matrix(40.4864 0 0 40.4861 74.2516 99.3686)" gradientUnits="userSpaceOnUse" r="1" xlink:href="#d"/><radialGradient id="g" cx="0" cy="0" gradientTransform="matrix(40.4861 0 0 40.4858 74.252 99.3682)" gradientUnits="userSpaceOnUse" r="1" xlink:href="#d"/><radialGradient id="h" cx="0" cy="0" gradientTransform="matrix(53.7416 0 0 53.7412 74.7416 99.5951)" gradientUnits="userSpaceOnUse" r="1"><stop offset="0" stop-color="#ffbe00"/><stop offset="1" stop-color="#ff9600"/></radialGradient><radialGradient id="i" cx="0" cy="0" gradientTransform="matrix(40.486 0 0 40.4857 74.2516 99.3684)" gradientUnits="userSpaceOnUse" r="1" xlink:href="#d"/><rect fill="#fcfcfc" height="198" rx="34" stroke="#fff" stroke-width="2" width="333" x="1" y="1"/><g fill="#000"><path d="m224.947 66.436c0 2.9606-2.281 5.3874-5.824 5.3874-3.398 0-5.679-2.4268-5.582-5.3874-.048-3.1063 2.184-5.436 5.679-5.436 3.446 0 5.678 2.3297 5.727 5.436z"/><path d="m155.929 62.6982-9.076 9.1732h-9.125l6.261-9.1732z"/><path d="m157.288 104.778h-18.492v11.94h20.676v9.318h-32.082v-50.2821h31.015v9.3188h-19.609v10.4351h18.492z"/><path d="m171.315 75.7539h11.406v40.7211h19.997v9.561h-31.403z"/><path d="m224.947 75.7539v50.2821h-11.406v-50.2821z"/><path d="m248.584 85.3154h-13.493v-9.5615h38.634v9.5615h-13.735v40.7206h-11.406z"/><path d="m313.816 104.778h-18.492v11.94h20.676v9.318h-32.082v-50.2821h31.014v9.3188h-19.608v10.4351h18.492z"/></g><path d="m87.1056 137.783c-1.5046.825-4.174-.486-7.9113-4.223-9.4159-9.416-21.9866-30.577-28.1021-47.3217-3.6888-10.0953-4.1741-16.2593-1.8929-17.5212 3.4945-1.9414 6.9891-3.8343 10.4837-5.7757-2.2812 1.2619-1.7958 7.4259 1.8929 17.5212 6.1155 16.7447 18.6862 37.9544 28.1021 47.3224 3.7373 3.737 6.4067 5.047 7.9114 4.222-3.4946 1.893-6.9892 3.834-10.4838 5.776z" fill="url(#b)"/><path d="m108.558 81.6275c3.204 4.3196 4.077 10.3865 1.942 17.5212-4.902 16.5023-23.9282 32.5183-42.4688 35.7703-10.4837 1.845-18.5892-.776-22.7633-6.406l-6.9891-9.465c4.1741 5.63 12.2795 8.251 22.7632 6.407 18.5407-3.252 37.5667-19.269 42.469-35.7707 2.135-7.1347 1.262-13.2016-1.942-17.5212 2.33 3.1548 4.66 6.3096 6.989 9.4644z" fill="url(#c)"/><path d="m108.558 81.6278c-2.329-3.1548-4.659-6.3096-6.989-9.4644-4.1738-5.6301-12.2793-8.251-22.763-6.4067-1.9414.3398-3.9313.8251-5.8728 1.4561 2.3783 2.815 4.8051 5.9698 7.2804 9.3673 1.8443-.5824 3.7372-1.0192 5.5816-1.359 10.4837-1.8443 18.5888.7766 22.7628 6.4067z" fill="url(#e)"/><path d="m85.2126 120.262c3.6888 10.095 4.1741 16.259 1.8929 17.521 3.4946-1.941 6.9892-3.834 10.4837-5.776 2.2812-1.262 1.7959-7.377-1.8443-17.424l-8.2025-4.514z" fill="url(#f)"/><path d="m59.7316 62.8928c-3.4945 1.9415-6.9891 3.8343-10.4837 5.7757 1.262-.6795 3.3975.1456 6.2611 2.718 3.4461-2.1355 6.9892-4.0284 10.5808-5.6786-2.9121-2.6209-5.0962-3.4946-6.3582-2.8151z" fill="url(#g)"/><path d="m93.6094 108.807-15.2887-4.417.8736 15.919-6.1155-14.706-11.8912 10.63 7.7657-13.979-47.9533-2.6691 47.9533-2.6694-7.7657-13.9296 11.8912 10.6292 6.1155-14.7547-.8736 15.9195 15.2887-4.4167-13.0076 9.2217z" fill="url(#h)"/><path d="m47.9857 82.7921c-5.533 5.6301-9.7071 12.1338-11.6971 18.7349-2.1355 7.134-1.2619 13.201 1.9415 17.521l7.0376 9.464c-3.2033-4.319-4.0769-10.386-1.9414-17.521 1.99-6.649 6.2611-13.25 11.8913-18.9287l2.2811-9.9012z" fill="url(#i)"/></svg>
