<svg fill="none" viewBox="0 0 335 200" xmlns="http://www.w3.org/2000/svg" xmlns:xlink="http://www.w3.org/1999/xlink"><linearGradient id="a"><stop offset=".7" stop-color="#f2f2f2"/><stop offset="1" stop-color="#bfbfbf"/></linearGradient><radialGradient id="b" cx="0" cy="0" gradientTransform="matrix(39.1703 0 0 39.17 74.1914 100.946)" gradientUnits="userSpaceOnUse" r="1" xlink:href="#a"/><radialGradient id="c" cx="0" cy="0" gradientTransform="matrix(39.2094 0 0 39.209 74.1913 100.895)" gradientUnits="userSpaceOnUse" r="1" xlink:href="#a"/><linearGradient id="d"><stop offset=".7" stop-color="#eb0000"/><stop offset="1" stop-color="#c80000"/></linearGradient><radialGradient id="e" cx="0" cy="0" gradientTransform="matrix(40.4863 0 0 40.486 73.2517 99.8589)" gradientUnits="userSpaceOnUse" r="1" xlink:href="#d"/><radialGradient id="f" cx="0" cy="0" gradientTransform="matrix(40.4864 0 0 40.4861 73.2519 99.8589)" gradientUnits="userSpaceOnUse" r="1" xlink:href="#d"/><radialGradient id="g" cx="0" cy="0" gradientTransform="matrix(40.4861 0 0 40.4858 73.2521 99.8585)" gradientUnits="userSpaceOnUse" r="1" xlink:href="#d"/><radialGradient id="h" cx="0" cy="0" gradientTransform="matrix(53.7416 0 0 53.7412 73.7416 100.085)" gradientUnits="userSpaceOnUse" r="1"><stop offset="0" stop-color="#ffbe00"/><stop offset="1" stop-color="#ff9600"/></radialGradient><radialGradient id="i" cx="0" cy="0" gradientTransform="matrix(40.486 0 0 40.4857 73.2516 99.8587)" gradientUnits="userSpaceOnUse" r="1" xlink:href="#d"/><path d="m0 0h335v200h-335z" fill="#1a1a1a"/><g fill="#e6e6e6"><path d="m223.947 66.9262c0 2.9606-2.281 5.3874-5.824 5.3874-3.398 0-5.679-2.4268-5.582-5.3874-.048-3.1063 2.184-5.436 5.679-5.436 3.446 0 5.678 2.3297 5.727 5.436z"/><path d="m154.929 63.1885-9.076 9.1731h-9.124l6.261-9.1731z"/><path d="m156.289 105.268h-18.492v11.94h20.676v9.319h-32.082v-50.2829h31.014v9.3188h-19.608v10.4351h18.492z"/><path d="m170.315 76.2441h11.406v40.7209h19.997v9.562h-31.403z"/><path d="m223.947 76.2441v50.2829h-11.406v-50.2829z"/><path d="m247.584 85.8056h-13.493v-9.5615h38.634v9.5615h-13.735v40.7214h-11.406z"/><path d="m312.816 105.268h-18.492v11.94h20.676v9.319h-32.082v-50.2829h31.014v9.3188h-19.608v10.4351h18.492z"/></g><path d="m86.1058 138.273c-1.5046.825-4.1741-.485-7.9113-4.223-9.416-9.415-21.9867-30.577-28.1022-47.3214-3.6887-10.0954-4.1741-16.2593-1.8929-17.5213 3.4946-1.9414 6.9891-3.8342 10.4837-5.7757-2.2812 1.262-1.7958 7.4259 1.8929 17.5213 6.1155 16.7447 18.6862 37.9541 28.1022 47.3221 3.7372 3.737 6.4067 5.047 7.9113 4.222-3.4946 1.893-6.9892 3.835-10.4837 5.776z" fill="url(#b)"/><path d="m107.558 82.1177c3.204 4.3196 4.077 10.3866 1.942 17.5212-4.902 16.5021-23.9282 32.5191-42.4688 35.7701-10.4837 1.845-18.5892-.776-22.7633-6.406l-6.9891-9.465c4.1741 5.63 12.2795 8.251 22.7632 6.407 18.5407-3.252 37.5667-19.268 42.469-35.7704 2.135-7.1347 1.262-13.2016-1.942-17.5213 2.33 3.1548 4.66 6.3096 6.989 9.4644z" fill="url(#c)"/><path d="m107.558 82.118c-2.329-3.1548-4.659-6.3096-6.989-9.4644-4.1739-5.6301-12.2794-8.251-22.7631-6.4066-1.9414.3397-3.9314.8251-5.8728 1.456 2.3783 2.8151 4.805 5.9699 7.2804 9.3673 1.8443-.5824 3.7372-1.0192 5.5816-1.3589 10.4837-1.8444 18.5889.7765 22.7629 6.4066z" fill="url(#e)"/><path d="m84.2129 120.752c3.6887 10.095 4.1741 16.259 1.8929 17.521 3.4945-1.941 6.9891-3.834 10.4837-5.775 2.2812-1.262 1.7958-7.378-1.8444-17.425l-8.2025-4.513z" fill="url(#f)"/><path d="m58.7318 63.3831c-3.4946 1.9414-6.9892 3.8343-10.4838 5.7757 1.262-.6795 3.3975.1456 6.2611 2.718 3.4461-2.1356 6.9892-4.0285 10.5808-5.6787-2.9121-2.6209-5.0962-3.4945-6.3581-2.815z" fill="url(#g)"/><path d="m92.6094 109.297-15.2887-4.417.8736 15.92-6.1155-14.706-11.8912 10.629 7.7657-13.978-47.9533-2.67 47.9533-2.6693-7.7657-13.9296 11.8912 10.6292 6.1155-14.7547-.8736 15.9196 15.2887-4.4167-13.0076 9.2215z" fill="url(#h)"/><path d="m46.9857 83.2823c-5.533 5.6301-9.7071 12.1338-11.6971 18.7347-2.1355 7.135-1.2619 13.202 1.9415 17.521l7.0376 9.465c-3.2033-4.32-4.0769-10.387-1.9414-17.522 1.99-6.649 6.2611-13.2498 11.8913-18.9284l2.2811-9.9012z" fill="url(#i)"/></svg>