<svg fill="none" height="200" viewBox="0 0 335 200" width="335" xmlns="http://www.w3.org/2000/svg" xmlns:xlink="http://www.w3.org/1999/xlink"><clipPath id="a"><path d="m32.5 52.0449h270v75.9105h-270z"/></clipPath><rect fill="#fcfcfc" height="198" rx="1" width="333" x="1" y="1"/><rect height="198" rx="1" stroke="#fff" stroke-width="2" width="333" x="1" y="1"/><g clip-path="url(#a)"><path d="m153.107 59.3643c1.118.8766 1.759 1.9395 1.433 2.3705-.326.4346-1.498.0767-2.616-.7999s-1.759-1.9358-1.433-2.3742c.326-.4346 1.498-.0767 2.616.8036z" fill="#fc0"/><path d="m161.84 55.2878c.502 1.3441.498 2.5897 0 2.7832-.502.1936-1.315-.7378-1.813-2.0819-.502-1.3441-.498-2.5896 0-2.7869.501-.1936 1.315.7378 1.813 2.082z" fill="#fc0"/><path d="m171.799 54.7693c-.208 1.4208-.806 2.5092-1.337 2.4289-.53-.0804-.795-1.3003-.587-2.7211.207-1.4209.806-2.5093 1.336-2.429.531.0804.796 1.2967.588 2.7212z" fill="#fc0"/><path d="m180.528 58.3053c-.946 1.0665-2.035 1.6327-2.436 1.2638-.398-.3653.046-1.5268.996-2.5933.946-1.0629 2.035-1.6327 2.437-1.2638.397.3689-.047 1.5304-.993 2.5933z" fill="#fc0"/><path d="m186.165 62.0306c1.294-.5735 2.516-.6319 2.731-.1279.215.5004-.663 1.3734-1.953 1.9468-1.294.5735-2.516.6319-2.731.1315-.215-.504.66-1.3733 1.953-1.9468z" fill="#fc0"/><path d="m183.56 73.9967c-10.399.946-16.789 4.2698-16.789 4.2698-4.336-3.4772-9.124-5.5555-13.901-6.7097.649-1.8847 1.634-3.627 2.892-5.1391 2.43-2.9184 5.877-4.9784 9.884-5.5628 6.615-.9643 12.861 2.3668 16.026 7.9186.903 1.5743 1.551 3.3348 1.888 5.2232z" fill="#fc0"/><path d="m212.462 78.1787c-11.202-4.2771-21.161-4.8907-28.902-4.1858-10.399.9461-16.789 4.2699-16.789 4.2699-4.336-3.4773-9.124-5.5555-13.901-6.7097-15.08-3.6416-30.013 1.9504-30.013 1.9504 12.389-9.1788 24.383-9.1459 32.905-7.0896 7.511 1.8044 12.321 5.1793 12.321 5.1793 4.863-1.6728 9.403-2.5348 13.589-2.8234 19.176-1.3258 30.79 9.4089 30.79 9.4089z" fill="#36f"/><g fill="#00001e"><path d="m41.1437 120.401h14.2018v6.984h-22.8455v-43.9289h8.6437v36.9419z"/><path d="m55.5855 83.46h9.0773l-6.6691 15.8592h-5.9273z"/><path d="m78.026 90.5718v11.0122h14.51v6.984h-14.51v11.644h16.3628v7.174h-25.0065v-43.9915h25.0065v7.1736h-16.3628z"/><path d="m105.204 126.41c-2.222-1.026-3.981-2.421-5.2785-4.185-1.2972-1.761-2.0068-3.715-2.1286-5.852h8.7041c.165 1.344.814 2.455 1.946 3.335 1.133.88 2.541 1.322 4.229 1.322s2.931-.336 3.86-1.008c.924-.672 1.39-1.53 1.39-2.579 0-1.132-.566-1.983-1.699-2.549-1.132-.566-2.931-1.183-5.404-1.856-2.551-.628-4.64-1.278-6.267-1.95s-3.025-1.698-4.2-3.083c-1.1723-1.384-1.76-3.25-1.76-5.603 0-1.928.5447-3.6924 1.638-5.2849 1.089-1.5925 2.655-2.8526 4.691-3.7767 2.039-.9241 4.436-1.3843 7.192-1.3843 4.075 0 7.325 1.0373 9.755 3.1156 2.429 2.0783 3.766 4.8761 4.013 8.4003h-8.274c-.122-1.384-.688-2.487-1.699-3.305-1.011-.8182-2.358-1.2273-4.046-1.2273-1.566 0-2.77.2959-3.612.8803-.846.588-1.265 1.406-1.265 2.454 0 1.177.577 2.068 1.727 2.674 1.15.61 2.942 1.227 5.372 1.856 2.469.628 4.508 1.282 6.114 1.95 1.605.672 2.996 1.709 4.167 3.116 1.172 1.406 1.781 3.261 1.821 5.57 0 2.012-.545 3.817-1.638 5.413-1.089 1.596-2.655 2.841-4.694 3.744-2.039.902-4.415 1.351-7.132 1.351-2.716 0-5.311-.515-7.533-1.541z"/><path d="m141.227 99.758v16.867c0 1.176.279 2.024.835 2.55.555.526 1.491.785 2.809.785h4.014v7.426h-5.433c-7.285 0-10.93-3.609-10.93-10.826v-16.802h-4.074v-7.2357h4.074v-8.62h8.705v8.62h7.658v7.2357z"/><path d="m185.56 92.5215v34.8675h-8.705v-4.405c-1.111 1.512-2.562 2.695-4.354 3.557-1.792.859-3.734 1.29-5.834 1.29-2.677 0-5.042-.578-7.099-1.732-2.061-1.154-3.674-2.852-4.849-5.099-1.172-2.242-1.76-4.92-1.76-8.024v-20.4545h8.644v19.1945c0 2.768.681 4.898 2.039 6.388s3.211 2.235 5.558 2.235c2.348 0 4.261-.745 5.619-2.235 1.359-1.49 2.04-3.62 2.04-6.388v-19.1945h8.704z"/><path d="m192.358 100.452c1.38-2.7286 3.25-4.8252 5.619-6.2935 2.365-1.4683 5.01-2.2024 7.934-2.2024 2.552 0 4.784.5259 6.698 1.5742s3.447 2.3705 4.601 3.963v-4.9711h8.705v34.8668h-8.705v-5.099c-1.111 1.637-2.644 2.988-4.601 4.058s-4.211 1.604-6.762 1.604c-2.882 0-5.505-.756-7.874-2.265-2.368-1.508-4.239-3.638-5.619-6.388-1.379-2.747-2.067-5.906-2.067-9.471s.688-6.648 2.067-9.376zm23.62 3.996c-.825-1.531-1.936-2.707-3.333-3.525-1.401-.818-2.903-1.2272-4.508-1.2272-1.606 0-3.089.3982-4.448 1.1942-1.358.796-2.462 1.962-3.304 3.492-.845 1.53-1.265 3.346-1.265 5.442 0 2.097.423 3.934 1.265 5.508s1.953 2.78 3.333 3.62 2.849 1.26 4.415 1.26 3.107-.409 4.508-1.227c1.398-.818 2.512-1.995 3.333-3.525.824-1.53 1.236-3.368 1.236-5.508s-.412-3.974-1.236-5.508z"/><path d="m233.1 86.8897c-1.011-.9862-1.513-2.2135-1.513-3.6818s.506-2.6956 1.513-3.6818c1.007-.9861 2.275-1.4792 3.798-1.4792s2.788.4931 3.799 1.4792c1.007.9862 1.512 2.2135 1.512 3.6818s-.505 2.6956-1.512 3.6818c-1.011.9861-2.276 1.4792-3.799 1.4792s-2.788-.4931-3.798-1.4792zm8.056 5.6322v34.8671h-8.644v-34.8671z"/><path d="m260.79 93.5918c1.792-1.0483 3.838-1.5742 6.143-1.5742v9.2514h-2.287c-2.716 0-4.766.651-6.142 1.951-1.38 1.3-2.068 3.565-2.068 6.797v17.372h-8.644v-34.8674h8.644v5.4131c1.111-1.8446 2.562-3.2946 4.354-4.3429z"/><path d="m302.253 112.596h-25.007c.205 2.517 1.072 4.489 2.595 5.917s3.397 2.141 5.619 2.141c3.211 0 5.494-1.406 6.856-4.215h9.324c-.989 3.356-2.881 6.114-5.68 8.276-2.799 2.163-6.235 3.24-10.31 3.24-3.293 0-6.246-.745-8.862-2.235s-4.652-3.598-6.114-6.326c-1.462-2.729-2.193-5.874-2.193-9.442 0-3.569.72-6.776 2.161-9.504 1.44-2.7285 3.458-4.8251 6.049-6.2934 2.595-1.4683 5.576-2.2025 8.952-2.2025s6.164.7123 8.737 2.1404c2.573 1.4282 4.569 3.4517 5.988 6.0745 1.419 2.622 2.129 5.632 2.129 9.032 0 1.261-.083 2.393-.248 3.397zm-8.705-5.913c-.043-2.265-.845-4.08-2.408-5.442-1.566-1.3629-3.48-2.0459-5.741-2.0459-2.139 0-3.942.6611-5.404 1.9829-1.462 1.323-2.358 3.16-2.688 5.508h16.241z"/></g></g></svg>