<svg fill="none" height="500" viewBox="0 0 1400 500" width="1400" xmlns="http://www.w3.org/2000/svg" xmlns:xlink="http://www.w3.org/1999/xlink"><clipPath id="a"><path d="m237 102h926v256h-926z"/></clipPath><path d="m1 1h1398v498h-1398z" fill="#1a1a1a"/><path d="m1 1h1398v498h-1398z" stroke="#1f1f1f" stroke-width="2"/><g clip-path="url(#a)"><path d="m650.636 126.685c3.835 2.956 6.035 6.54 4.917 7.994-1.119 1.466-5.138.258-8.972-2.698-3.835-2.956-6.035-6.528-4.917-8.006 1.119-1.466 5.138-.259 8.972 2.71z" fill="#fc0"/><path d="m680.589 112.938c1.721 4.533 1.708 8.733 0 9.386-1.721.653-4.511-2.488-6.219-7.021-1.721-4.533-1.708-8.734 0-9.399 1.721-.653 4.511 2.488 6.219 7.021z" fill="#fc0"/><path d="m714.743 111.189c-.712 4.791-2.765 8.462-4.584 8.191s-2.728-4.385-2.016-9.177c.713-4.791 2.766-8.462 4.585-8.191s2.728 4.373 2.015 9.177z" fill="#fc0"/><path d="m744.683 123.113c-3.244 3.597-6.981 5.506-8.357 4.262-1.364-1.232.16-5.149 3.417-8.746 3.244-3.584 6.981-5.506 8.357-4.262 1.364 1.244-.16 5.161-3.404 8.746z" fill="#fc0"/><path d="m764.015 135.676c4.437-1.934 8.628-2.131 9.365-.431.738 1.688-2.274 4.632-6.698 6.566-4.437 1.933-8.628 2.13-9.365.443-.738-1.7 2.261-4.632 6.698-6.565z" fill="#fc0"/><path d="m755.08 176.029c-35.667 3.191-57.581 14.4-57.581 14.4-14.872-11.727-31.292-18.735-47.675-22.628 2.225-6.356 5.605-12.231 9.919-17.331 8.333-9.842 20.156-16.789 33.897-18.76 22.688-3.252 44.11 7.982 54.963 26.705 3.097 5.309 5.321 11.246 6.477 17.614z" fill="#fc0"/><path d="m854.203 190.133c-38.42-14.424-72.575-16.493-99.122-14.116-35.667 3.19-57.581 14.399-57.581 14.399-14.872-11.726-31.292-18.735-47.675-22.627-51.718-12.281-102.932 6.577-102.932 6.577 42.488-30.954 83.624-30.843 112.851-23.908 25.76 6.085 42.254 17.466 42.254 17.466 16.678-5.641 32.25-8.548 46.606-9.521 65.766-4.472 105.599 31.73 105.599 31.73z" fill="#36f"/><g fill="#fff"><path d="m266.645 332.527h48.707v23.551h-78.352v-148.145h29.645v124.581z"/><path d="m316.175 207.945h31.131l-22.872 53.484h-20.329z"/><path d="m393.139 231.928v37.138h49.764v23.552h-49.764v39.269h56.118v24.192h-85.763v-148.355h85.763v24.192h-56.118z"/><path d="m486.35 352.79c-7.62-3.461-13.655-8.167-18.104-14.116-4.449-5.937-6.883-12.527-7.301-19.733h29.854c.565 4.533 2.79 8.277 6.674 11.246 3.883 2.969 8.713 4.459 14.502 4.459s10.054-1.133 13.237-3.4c3.171-2.266 4.769-5.161 4.769-8.696 0-3.818-1.942-6.689-5.826-8.598s-10.053-3.991-18.534-6.257c-8.751-2.119-15.916-4.311-21.496-6.578-5.58-2.266-10.373-5.728-14.404-10.396-4.019-4.669-6.035-10.963-6.035-18.896 0-6.503 1.868-12.453 5.617-17.823 3.736-5.371 9.107-9.62 16.088-12.737 6.993-3.116 15.216-4.668 24.667-4.668 13.974 0 25.122 3.498 33.455 10.507s12.917 16.444 13.765 28.331h-28.379c-.418-4.669-2.36-8.389-5.825-11.148-3.466-2.759-8.088-4.139-13.876-4.139-5.371 0-9.501.998-12.389 2.969-2.901 1.983-4.339 4.742-4.339 8.277 0 3.967 1.979 6.972 5.924 9.017 3.946 2.057 10.091 4.139 18.424 6.257 8.468 2.119 15.461 4.324 20.967 6.578 5.506 2.267 10.275 5.765 14.294 10.507s6.108 11 6.244 18.785c0 6.787-1.869 12.872-5.617 18.255-3.736 5.382-9.107 9.583-16.101 12.625-6.993 3.043-15.141 4.558-24.458 4.558-9.316 0-18.214-1.737-25.834-5.198z"/><path d="m609.892 262.907v56.883c0 3.967.959 6.824 2.864 8.598s5.113 2.648 9.636 2.648h13.765v25.042h-18.632c-24.987 0-37.486-12.169-37.486-36.509v-56.662h-13.975v-24.402h13.975v-29.069h29.853v29.069h26.265v24.402z"/><path d="m761.937 238.506v117.585h-29.853v-14.855c-3.81 5.1-8.788 9.09-14.933 11.997-6.146 2.895-12.807 4.349-20.009 4.349-9.181 0-17.293-1.947-24.348-5.839-7.067-3.892-12.597-9.62-16.629-17.196-4.019-7.563-6.034-16.592-6.034-27.062v-68.979h29.644v64.73c0 9.337 2.336 16.518 6.994 21.543 4.658 5.026 11.012 7.539 19.062 7.539s14.614-2.513 19.272-7.539c4.658-5.025 6.993-12.206 6.993-21.543v-64.73h29.853z"/><path d="m785.252 265.248c4.732-9.202 11.148-16.272 19.272-21.224 8.111-4.951 17.182-7.427 27.211-7.427 8.751 0 16.408 1.773 22.971 5.309 6.563 3.535 11.823 7.994 15.781 13.364v-16.764h29.853v117.585h-29.853v-17.195c-3.81 5.518-9.071 10.076-15.781 13.685-6.711 3.609-14.442 5.407-23.192 5.407-9.882 0-18.879-2.55-27.003-7.637s-14.539-12.268-19.271-21.544c-4.732-9.263-7.092-19.917-7.092-31.94 0-12.022 2.36-22.418 7.092-31.619zm81.007 13.475c-2.827-5.161-6.637-9.127-11.43-11.886-4.806-2.759-9.956-4.139-15.462-4.139s-10.594 1.343-15.252 4.028-8.444 6.615-11.332 11.776c-2.901 5.161-4.339 11.283-4.339 18.353 0 7.071 1.451 13.266 4.339 18.575s6.698 9.374 11.43 12.207 9.771 4.25 15.142 4.25 10.656-1.38 15.461-4.139c4.794-2.759 8.616-6.725 11.43-11.887 2.827-5.161 4.241-11.357 4.241-18.575s-1.414-13.401-4.241-18.575z"/><path d="m924.983 219.512c-3.465-3.326-5.186-7.465-5.186-12.417 0-4.951 1.733-9.09 5.186-12.416 3.454-3.326 7.805-4.989 13.028-4.989 5.224 0 9.562 1.663 13.028 4.989 3.454 3.326 5.187 7.465 5.187 12.416 0 4.952-1.733 9.091-5.187 12.417-3.466 3.326-7.804 4.988-13.028 4.988-5.223 0-9.562-1.662-13.028-4.988zm27.629 18.994v117.585h-29.644v-117.585z"/><path d="m1019.95 242.115c6.15-3.536 13.16-5.309 21.07-5.309v31.201h-7.84c-9.32 0-16.35 2.192-21.07 6.577-4.73 4.385-7.09 12.022-7.09 22.924v58.583h-29.647v-117.585h29.647v18.254c3.81-6.22 8.79-11.11 14.93-14.645z"/><path d="m1162.15 306.204h-85.76c.7 8.487 3.67 15.138 8.9 19.955 5.22 4.816 11.65 7.218 19.27 7.218 11.01 0 18.84-4.742 23.51-14.215h31.98c-3.39 11.32-9.88 20.62-19.48 27.912s-21.39 10.926-35.36 10.926c-11.3 0-21.42-2.513-30.39-7.538-8.98-5.026-15.96-12.133-20.97-21.335-5.02-9.201-7.52-19.807-7.52-31.841 0-12.035 2.47-22.85 7.41-32.051s11.86-16.272 20.74-21.223c8.9-4.952 19.13-7.428 30.71-7.428 11.57 0 21.13 2.402 29.96 7.218 8.82 4.816 15.67 11.64 20.54 20.485 4.86 8.844 7.3 18.994 7.3 30.461 0 4.25-.29 8.069-.85 11.456zm-29.85-19.943c-.15-7.637-2.9-13.758-8.26-18.353-5.37-4.594-11.94-6.898-19.69-6.898-7.34 0-13.52 2.23-18.53 6.689-5.02 4.459-8.09 10.655-9.22 18.575h55.7z"/></g></g></svg>