<svg fill="none" viewBox="0 0 335 200" xmlns="http://www.w3.org/2000/svg"><rect fill="#fcfcfc" height="198" width="333"/><g fill="#0e00cc"><path d="m294.538 53.0265c-1.546-2.8222-3.821-5.1769-6.587-6.8184-2.766-1.6414-5.922-2.5092-9.137-2.5128h-229.0953c-4.7529.007-9.3092 1.8999-12.6701 5.2636-3.3608 3.3637-5.252 7.9239-5.259 12.6809v70.8472c.0013 3.363.9454 6.659 2.725 9.511 1.7796 2.853 4.3233 5.149 7.3418 6.626 1.6177 2.054 3.6794 3.714 6.0303 4.856 2.3508 1.142 4.9297 1.736 7.5428 1.737h229.0945c4.577-.007 8.965-1.83 12.201-5.069s5.058-7.63 5.065-12.211v-70.8474c-.003-2.7527-.662-5.4651-1.923-7.9112-1.261-2.4462-3.088-4.5554-5.329-6.1519zm-256.108 11.0857v-2.4724c0-2.9965 1.1893-5.8703 3.3064-7.9892 2.117-2.1188 4.9884-3.3092 7.9823-3.3092h229.0953c2.38.0055 4.696.769 6.614 2.1799 1.226.8773 2.257 1.9998 3.028 3.2965 1.073 1.752 1.643 3.7666 1.646 5.822v70.8472c0 1.484-.292 2.953-.859 4.324s-1.399 2.616-2.447 3.666c-1.048 1.049-2.293 1.881-3.662 2.449-1.37.568-2.838.86-4.32.86h-229.0953c-1.8741.008-3.72-.458-5.3655-1.356-1.3271-.723-2.5001-1.698-3.453-2.871-1.6029-2.008-2.4742-4.502-2.4702-7.072z"/><path d="m53.8358 103.405 29.5366 13.132c.5936.274 1.2466.392 1.8983.345.6517-.046 1.2811-.257 1.8296-.613.5485-.355.9983-.843 1.3079-1.419.3095-.576.4686-1.221.4625-1.875-.003-.774-.234-1.529-.6639-2.173-.4299-.643-1.0398-1.145-1.7532-1.443l-24.5165-10.1016v-.1595l24.5165-10.1021c.7134-.298 1.3233-.7999 1.7532-1.443s.6609-1.3988.6639-2.1725c.0061-.6539-.153-1.2988-.4625-1.8747-.3096-.5759-.7594-1.0642-1.3079-1.4196s-1.1779-.5663-1.8296-.6131c-.6517-.0469-1.3047.0718-1.8983.3451l-29.5366 13.1327c-.6895.3121-1.2742.8168-1.6842 1.4534-.4099.6366-.6275 1.3781-.6267 2.1355v1.276c-.0008.7574.2168 1.4984.6267 2.1354.41.637.9947 1.141 1.6842 1.454z"/><path d="m94.7408 89.8997h4.303v18.1303c0 14.515 11.9532 16.297 17.9562 16.297.876 0 1.593-.054 2.151-.107.319-.027.617-.173.834-.409.216-.237.336-.546.335-.867v-6.832c0-.17-.034-.338-.1-.495-.065-.156-.162-.298-.283-.417s-.265-.212-.423-.275c-.157-.062-.326-.093-.496-.089h-.664c-2.948 0-8.553-1.037-8.553-8.162v-16.7743h8.553c.168 0 .333-.033.488-.0972.155-.0641.295-.1581.414-.2766.118-.1185.212-.2591.276-.4139.064-.1549.097-.3208.097-.4884v-6.0081c.004-.1685-.027-.3361-.09-.4925-.062-.1565-.156-.2986-.275-.4178-.119-.1193-.261-.2131-.418-.276-.156-.0628-.323-.0933-.492-.0897h-8.553v-11.1921c.004-.1685-.027-.3361-.089-.4925-.063-.1565-.157-.2986-.276-.4178-.119-.1193-.261-.2131-.417-.276-.157-.0628-.324-.0933-.493-.0897h-7.942c-.168-.0036-.335.0269-.492.0897-.1561.0629-.2981.1567-.4172.276-.1191.1192-.2129.2613-.2757.4178-.0628.1564-.0933.324-.0897.4925v11.1921h-4.5686c-.1684-.0036-.3358.0269-.4921.0897-.1564.0629-.2984.1567-.4175.276-.1191.1192-.2129.2613-.2757.4178-.0628.1564-.0933.324-.0896.4925v6.0081c0 .3385.1343.663.3734.9023s.5634.3738.9015.3738z"/><path d="m138.222 80.6475h-8.207c-.704 0-1.275.5713-1.275 1.276v40.6955c0 .705.571 1.276 1.275 1.276h8.207c.704 0 1.275-.571 1.275-1.276v-40.6955c0-.7047-.571-1.276-1.275-1.276z"/><path d="m227.098 124.671c.845.006 1.67-.26 2.353-.757.684-.498 1.19-1.201 1.445-2.007l10.652-32.965.079.0532 24.517 10.1021v.1595l-24.517 10.1022c-.713.298-1.323.8-1.753 1.443s-.661 1.399-.664 2.172c-.004.651.156 1.292.464 1.864.308.573.755 1.059 1.3 1.414.544.354 1.169.566 1.817.616s1.299-.064 1.891-.331l29.563-13.133c.69-.312 1.274-.817 1.684-1.454.41-.636.628-1.378.627-2.135v-1.276c.001-.7574-.217-1.4989-.627-2.1355s-.994-1.1413-1.684-1.4534l-29.563-13.1327c-.232-.1276-.483-.2173-.744-.2659l4.17-12.8934c.198-.6003.251-1.239.154-1.8635-.098-.6246-.342-1.217-.713-1.7285-.371-.5116-.858-.9275-1.421-1.2135-.563-.2861-1.186-.434-1.818-.4317h-.053c-.846.0046-1.67.2772-2.352.7785-.682.5014-1.188 1.206-1.446 2.0129l-17.159 53.2217c-.192.6-.24 1.237-.14 1.86.1.622.344 1.212.714 1.721.37.51.854.926 1.415 1.214.56.287 1.18.439 1.809.442z"/><path d="m134.052 74.2668c3.007 0 5.445-2.44 5.445-5.4498s-2.438-5.4498-5.445-5.4498-5.445 2.44-5.445 5.4498 2.438 5.4498 5.445 5.4498z"/><path d="m150.945 123.901h8.208c.338 0 .662-.135.901-.374.24-.239.374-.564.374-.902v-17.732c0-1.941.106-3.881.505-5.5031 1.354-5.5029 5.02-9.916 10.598-9.916 5.1 0 5.843 3.9877 5.843 8.64v24.5111c.007.336.144.657.381.895.238.237.558.374.894.381h8.208c.338 0 .662-.135.901-.374s.374-.564.374-.902v-17.732c0-2.021.106-3.881.531-5.5828 1.248-5.4232 4.914-9.8363 10.412-9.8363 4.994 0 5.923 3.7219 5.923 8.64v24.5111c.007.336.144.657.381.895.238.237.558.374.894.381h8.208c.338 0 .662-.135.902-.374.239-.239.373-.564.373-.902v-26.5315c0-11.3782-5.153-16.4558-14.131-16.4558-6.8 0-12.378 4.2269-14.742 8.9058h-.186c-1.779-5.8486-6.003-8.9058-12.616-8.9058-6.614 0-11.953 4.732-14.078 8.9855h-.159c.104-.989.158-1.9828.159-2.9774v-3.7218c0-.3385-.134-.663-.374-.9023-.239-.2394-.563-.3738-.901-.3738h-7.783c-.336.0068-.656.1434-.894.3813-.237.2378-.374.5585-.381.8948v40.701c.007.336.144.657.381.895.238.237.558.374.894.381z"/></g></svg>
