<svg fill="none" viewBox="0 0 335 200" xmlns="http://www.w3.org/2000/svg"><path d="m0 0h335v200h-335z" fill="#fcfcfc"/><g fill="#0e00cc"><path d="m295.249 53.5704c-1.546-2.8221-3.821-5.1769-6.587-6.8183s-5.922-2.5093-9.138-2.5128h-229.0948c-4.753.007-9.3093 1.8998-12.6701 5.2635-3.3609 3.3638-5.2521 7.9239-5.2591 12.681v70.8472c.0013 3.363.9454 6.659 2.7251 9.511 1.7796 2.853 4.3233 5.149 7.3418 6.626 1.6176 2.054 3.6793 3.714 6.0302 4.856s4.9297 1.736 7.5428 1.737h229.0951c4.577-.007 8.964-1.83 12.2-5.069 3.237-3.239 5.058-7.63 5.065-12.211v-70.8474c-.002-2.7527-.661-5.4651-1.923-7.9113-1.261-2.4461-3.088-4.5553-5.328-6.1519zm-256.1087 8.6134c0-2.9965 1.1894-5.8703 3.3064-7.9891 2.1171-2.1189 4.9884-3.3093 7.9824-3.3093h229.0949c2.38.0055 4.696.769 6.614 2.18 1.226.8772 2.257 1.9997 3.028 3.2964 1.074 1.752 1.644 3.7667 1.647 5.822v70.8472c0 1.484-.292 2.953-.859 4.324-.568 1.371-1.399 2.616-2.448 3.666-1.048 1.049-2.292 1.881-3.662 2.449-1.369.567-2.838.86-4.32.86h-229.0949c-1.8742.008-3.72-.458-5.3655-1.356-1.3271-.723-2.5001-1.698-3.453-2.871-1.603-2.008-2.4743-4.502-2.4703-7.072z"/><path d="m54.5462 103.948 29.5367 13.133c.5936.273 1.2466.392 1.8983.345s1.281-.258 1.8295-.613.9984-.844 1.3079-1.42c.3095-.575.4686-1.22.4626-1.874-.0031-.774-.234-1.53-.664-2.173-.4299-.643-1.0397-1.145-1.7532-1.443l-24.5164-10.1018v-.1595l24.5164-10.1021c.7135-.298 1.3233-.8 1.7532-1.443.43-.6431.6609-1.3988.664-2.1725.006-.6539-.1531-1.2988-.4626-1.8747s-.7594-1.0642-1.3079-1.4196-1.1778-.5663-1.8295-.6131c-.6517-.0469-1.3047.0718-1.8983.3451l-29.5367 13.1327c-.6894.3121-1.2742.8168-1.6841 1.4534s-.6275 1.3781-.6268 2.1355v1.2756c-.0007.758.2169 1.499.6268 2.136s.9947 1.141 1.6841 1.453z"/><path d="m95.4513 90.4435h4.303v18.1305c0 14.515 11.9527 16.296 17.9557 16.296.877 0 1.594-.053 2.152-.106.319-.027.617-.173.833-.409.217-.237.336-.546.335-.867v-6.832c0-.17-.034-.338-.099-.495-.066-.156-.162-.298-.284-.417-.121-.119-.264-.212-.422-.275-.158-.062-.327-.093-.496-.089h-.664c-2.949 0-8.553-1.037-8.553-8.162v-16.7745h8.553c.167 0 .333-.033.488-.0971.154-.0641.295-.1581.413-.2766.119-.1185.213-.2592.277-.414s.097-.3207.097-.4883v-6.0081c.003-.1686-.027-.3361-.09-.4926s-.157-.2986-.276-.4178-.261-.2131-.417-.2759c-.157-.0629-.324-.0934-.492-.0898h-8.553v-11.192c.003-.1686-.027-.3361-.09-.4926s-.156-.2986-.276-.4178c-.119-.1192-.261-.2131-.417-.2759-.156-.0629-.324-.0934-.492-.0898h-7.942c-.169-.0036-.336.0269-.492.0898-.157.0628-.299.1567-.418.2759s-.213.2613-.275.4178c-.063.1565-.094.324-.09.4926v11.192h-4.5687c-.1684-.0036-.3359.0269-.4922.0898-.1563.0628-.2983.1567-.4174.2759s-.2129.2613-.2757.4178-.0933.324-.0897.4926v6.0081c0 .3384.1343.663.3735.9023.2391.2393.5633.3737.9015.3737z"/><path d="m138.933 81.1919h-8.208c-.704 0-1.275.5713-1.275 1.276v40.6951c0 .705.571 1.276 1.275 1.276h8.208c.704 0 1.275-.571 1.275-1.276v-40.6951c0-.7047-.571-1.276-1.275-1.276z"/><path d="m227.809 125.216c.845.005 1.669-.26 2.353-.758.683-.497 1.19-1.201 1.445-2.007l10.651-32.9648.08.0532 24.516 10.102v.1595l-24.516 10.1021c-.714.298-1.323.8-1.753 1.443s-.661 1.399-.664 2.173c-.004.65.155 1.291.463 1.864.308.572.755 1.058 1.3 1.413s1.17.567 1.818.616c.648.05 1.298-.064 1.89-.331l29.564-13.133c.689-.312 1.274-.817 1.684-1.453.41-.637.627-1.378.626-2.136v-1.2758c.001-.7574-.216-1.4989-.626-2.1355s-.995-1.1413-1.684-1.4534l-29.564-13.1328c-.232-.1275-.483-.2172-.743-.2658l4.17-12.8934c.198-.6003.25-1.239.153-1.8636-.097-.6245-.341-1.2169-.712-1.7285-.371-.5115-.859-.9274-1.422-1.2134-.563-.2861-1.186-.434-1.817-.4317h-.054c-.846.0046-1.669.2771-2.352.7785-.682.5014-1.188 1.206-1.446 2.0129l-17.159 53.2225c-.192.6-.24 1.237-.14 1.859s.345 1.212.715 1.722c.369.51.854.925 1.414 1.213s1.18.439 1.81.443z"/><path d="m134.762 74.811c3.008 0 5.446-2.4399 5.446-5.4498 0-3.0098-2.438-5.4498-5.446-5.4498-3.007 0-5.445 2.44-5.445 5.4498 0 3.0099 2.438 5.4498 5.445 5.4498z"/><path d="m151.656 124.445h8.208c.338 0 .662-.134.901-.374.239-.239.373-.564.373-.902v-17.732c0-1.941.107-3.881.505-5.5028 1.355-5.503 5.02-9.916 10.598-9.916 5.1 0 5.844 3.9876 5.844 8.6399v24.5109c.007.336.143.657.381.895.237.238.558.374.894.381h8.207c.339 0 .663-.134.902-.374.239-.239.373-.564.373-.902v-17.732c0-2.02.107-3.881.532-5.5826 1.248-5.4232 4.914-9.8362 10.412-9.8362 4.993 0 5.923 3.7218 5.923 8.6399v24.5109c.007.336.143.657.381.895s.558.374.894.381h8.208c.338 0 .662-.134.901-.374.239-.239.374-.564.374-.902v-26.5313c0-11.3781-5.153-16.4558-14.131-16.4558-6.8 0-12.378 4.227-14.742 8.9058h-.186c-1.78-5.8486-6.003-8.9058-12.617-8.9058s-11.953 4.7321-14.078 8.9856h-.159c.105-.989.158-1.9829.159-2.9775v-3.7218c0-.3384-.134-.663-.373-.9023s-.563-.3738-.901-.3738h-7.783c-.336.0068-.656.1435-.894.3813-.238.2379-.374.5585-.381.8948v40.7008c.007.336.143.657.381.895s.558.374.894.381z"/></g></svg>