<svg fill="none" viewBox="0 0 1400 500" xmlns="http://www.w3.org/2000/svg"><path d="m0 0h1400v500h-1400z" fill="#fcfcfc"/><g fill="#0e00cc"><path d="m1026.47 125.846c-3.95-7.212-9.77-13.23-16.83-17.424-7.07-4.195-15.138-6.413-23.356-6.422h-585.465c-12.146.018-23.79 4.855-32.379 13.451-8.589 8.597-13.422 20.25-13.44 32.407v181.055c.003 8.594 2.416 17.016 6.964 24.306s11.049 13.156 18.763 16.932c4.133 5.249 9.402 9.492 15.41 12.411 6.008 2.918 12.598 4.435 19.276 4.438h585.467c11.69-.018 22.91-4.676 31.18-12.954s12.92-19.499 12.94-31.206v-181.055c-.01-7.034-1.69-13.966-4.91-20.217-3.23-6.251-7.9-11.642-13.62-15.722zm-654.5 28.33v-6.318c0-7.658 3.039-15.002 8.45-20.417 5.41-5.414 12.748-8.456 20.399-8.456h585.465c6.082.013 12.002 1.965 16.906 5.57 3.13 2.242 5.77 5.111 7.73 8.425 2.75 4.477 4.2 9.626 4.21 14.878v181.055c0 3.792-.74 7.546-2.19 11.049-1.45 3.504-3.58 6.687-6.26 9.368s-5.86 4.808-9.356 6.259c-3.5 1.451-7.252 2.198-11.04 2.198h-585.465c-4.79.022-9.507-1.17-13.712-3.465-3.391-1.847-6.389-4.339-8.824-7.338-4.097-5.13-6.323-11.504-6.313-18.071z"/><path d="m411.34 254.589 75.483 33.561c1.517.698 3.185 1.002 4.851.882 1.665-.12 3.274-.659 4.675-1.567 1.402-.908 2.552-2.156 3.343-3.628.791-1.471 1.197-3.119 1.182-4.791-.008-1.977-.598-3.908-1.697-5.551-1.098-1.644-2.657-2.927-4.48-3.688l-62.653-25.817v-.407l62.653-25.817c1.823-.761 3.382-2.044 4.48-3.687 1.099-1.644 1.689-3.575 1.697-5.552.015-1.671-.391-3.319-1.182-4.791s-1.941-2.72-3.343-3.628c-1.401-.908-3.01-1.447-4.675-1.567-1.666-.12-3.334.184-4.851.882l-75.483 33.561c-1.762.798-3.256 2.088-4.304 3.715-1.047 1.627-1.603 3.522-1.601 5.457v3.261c-.002 1.936.554 3.83 1.601 5.457 1.048 1.627 2.542 2.917 4.304 3.715z"/><path d="m515.876 220.077h10.997v46.333c0 37.095 30.546 41.646 45.887 41.646 2.24 0 4.072-.135 5.498-.271.816-.069 1.577-.442 2.13-1.046.554-.605.859-1.396.857-2.215v-17.46c0-.434-.087-.864-.255-1.264s-.414-.763-.724-1.067c-.309-.303-.677-.542-1.08-.702s-.834-.238-1.268-.229h-1.697c-7.534 0-21.857-2.649-21.857-20.856v-42.869h21.857c.428 0 .852-.085 1.247-.249.396-.163.755-.404 1.057-.706.303-.303.543-.663.707-1.058.163-.396.248-.82.248-1.248v-15.354c.009-.431-.069-.859-.229-1.259-.161-.4-.401-.763-.705-1.068s-.667-.544-1.067-.705c-.399-.161-.827-.239-1.258-.229h-21.857v-28.602c.009-.431-.069-.859-.229-1.259-.161-.4-.4-.763-.705-1.068-.304-.305-.667-.544-1.066-.705-.4-.161-.828-.239-1.258-.229h-20.296c-.431-.01-.858.068-1.258.229-.399.161-.762.4-1.067.705-.304.305-.544.668-.704 1.068-.161.4-.239.828-.229 1.259v28.602h-11.676c-.43-.01-.858.068-1.258.229-.399.161-.762.4-1.066.705-.305.305-.544.668-.705 1.068-.16.4-.238.828-.229 1.259v15.354c0 .865.343 1.694.954 2.306.611.611 1.44.955 2.304.955z"/><path d="m626.995 196.434h-20.975c-1.8 0-3.258 1.46-3.258 3.261v103.999c0 1.801 1.458 3.261 3.258 3.261h20.975c1.799 0 3.258-1.46 3.258-3.261v-103.999c0-1.801-1.459-3.261-3.258-3.261z"/><path d="m854.122 308.939c2.16.014 4.267-.664 6.014-1.935 1.746-1.272 3.04-3.069 3.693-5.13l27.22-84.243.203.136 62.653 25.816v.408l-62.653 25.816c-1.823.762-3.382 2.044-4.48 3.688-1.099 1.643-1.689 3.574-1.697 5.552-.01 1.662.397 3.3 1.185 4.764.787 1.463 1.929 2.705 3.321 3.611 1.393.907 2.99 1.449 4.646 1.576s3.317-.164 4.831-.848l75.551-33.561c1.762-.798 3.256-2.087 4.304-3.714 1.047-1.627 1.603-3.522 1.601-5.458v-3.261c.002-1.935-.554-3.83-1.601-5.457-1.048-1.627-2.542-2.917-4.304-3.714l-75.551-33.562c-.593-.326-1.235-.555-1.9-.679l10.657-32.95c.506-1.534.64-3.166.391-4.762-.248-1.596-.872-3.11-1.82-4.418-.948-1.307-2.193-2.37-3.633-3.101-1.439-.731-3.031-1.109-4.645-1.103h-.136c-2.163.012-4.267.708-6.01 1.99-1.744 1.281-3.038 3.082-3.697 5.144l-43.85 136.012c-.49 1.533-.613 3.161-.358 4.751s.881 3.097 1.826 4.4 2.183 2.366 3.614 3.101c1.432.735 3.016 1.123 4.625 1.131z"/><path d="m616.337 180.129c7.686 0 13.916-6.235 13.916-13.927s-6.23-13.928-13.916-13.928c-7.685 0-13.915 6.236-13.915 13.928s6.23 13.927 13.915 13.927z"/><path d="m659.51 306.969h20.975c.864 0 1.693-.343 2.304-.955.611-.611.954-1.441.954-2.306v-45.314c0-4.96.272-9.919 1.29-14.064 3.462-14.063 12.829-25.34 27.084-25.34 13.033 0 14.934 10.19 14.934 22.079v62.639c.017.86.366 1.679.973 2.287.608.608 1.426.957 2.285.974h20.975c.864 0 1.693-.343 2.304-.955.611-.611.954-1.441.954-2.306v-45.314c0-5.164.272-9.919 1.358-14.267 3.19-13.86 12.558-25.137 26.609-25.137 12.761 0 15.137 9.511 15.137 22.079v62.639c.017.86.366 1.679.973 2.287.608.608 1.426.957 2.285.974h20.975c.864 0 1.693-.343 2.304-.955.611-.611.954-1.441.954-2.306v-67.802c0-29.077-13.168-42.053-36.112-42.053-17.377 0-31.632 10.802-37.673 22.759h-.475c-4.548-14.947-15.341-22.759-32.243-22.759s-30.546 12.093-35.977 22.963h-.407c.268-2.528.404-5.068.407-7.609v-9.512c0-.865-.343-1.694-.954-2.306-.611-.611-1.44-.955-2.304-.955h-19.889c-.859.018-1.677.367-2.285.975-.607.607-.956 1.427-.973 2.286v104.013c.017.86.366 1.679.973 2.287.608.608 1.426.957 2.285.974z"/></g></svg>