<svg fill="none" viewBox="0 0 562 138" xmlns="http://www.w3.org/2000/svg" xmlns:xlink="http://www.w3.org/1999/xlink"><clipPath id="a"><path d="m0 0h561.77v137.56h-561.77z"/></clipPath><g clip-path="url(#a)"><path d="m137.04 23.74v90.58c-.009 4.094-1.098 8.113-3.158 11.651s-5.016 6.47-8.572 8.499c-3.498 2.014-7.463 3.076-11.5 3.08h-90.59c-6.1593-.003-12.0653-2.451-16.41962-6.807-4.35431-4.357-6.80038057-10.264-6.80038-16.423v-90.58c.018451-6.1536 2.47045-12.05 6.82076-16.40217 4.35034-4.35219 10.24564-6.80672 16.39924-6.82782h90.59c6.154.021086 12.051 2.47529 16.403 6.82719s6.806 10.2483 6.827 16.4028z" fill="#ffe100"/><path d="m131.14 92.45c-4.7 4.12-9.2 8.07-13.57 11.8-6-38.59 3-70.2 6.57-82.76 1.59-5.57 1.92-6.73.72-8.24-.31-.3863-.708-.6937-1.16-.8971-.451-.2033-.945-.2968-1.44-.2729-.627.0388-1.228.2691-1.72.66-25.87 20.77-48.23 33.92-66.51 39.12 6.8-15.84 2.6-28.79-5.47-35.18-7.41-5.88-19.63-7.18996-30.2 3.13-8.87001 8.66-9.59 23.0501-1.6 32.0701 3 3.39 10.57 9.3699 25.77 8.1999-11 16.74-28.39 36.52-42.52999932 51.62v2.6c-.00044731 1.853.22113532 3.7.66000332 5.5 15.999996-16.82 37.749996-41.19 49.679996-60.85 15.49-3.21 37.21-13.12 67.21-36.21-4.19 14.95-12.24 47.29-5.31 86-2.567 2.14-5.1 4.19-7.6 6.15-16.41-14.07-34.26-19.46-51.93-15.6-26.07 5.68-34.1 19-33.06 28.62.4251 3.611 2.0154 6.984 4.53 9.61h10.64c-5.78-2.28-8.78-6.28-9.21-10.26-.83-7.74 7.62-17.59 28.38-22.11 3.2283-.711 6.5243-1.07 9.83-1.07 14 0 26.16 6.51 35.88 14.59-12.31 9.13-24.16 15.79-37.2 18.85h18.06c8.3917-4.102 16.3401-9.054 23.72-14.78 4.656 4.475 8.924 9.335 12.76 14.53 2.916-.404 5.725-1.372 8.27-2.85-2.752-7.613-4.932-15.422-6.52-23.36 5.23-4.42 10.63-9.15 16.3-14.13l1.95-1.7v-8zm-84.62-38.87c-11.41 1.92-20.28 0-25.27-5.68-5.8-6.55-5.2-17.45 1.3-23.8 3.54-3.45 8.37-5.92 13.29-5.92 3.2785.0012 6.4567 1.1312 9 3.2001 6.83 5.41 9.81 17.3599 1.68 32.1999zm62.82 65.62-.2-.19c1.47-1.16 2.94-2.35 4.43-3.57.83 3.77 1.81 7.6 3 11.46-2.21-2.53-4.64-5.16-7.23-7.7z" fill="#fff"/><g fill="#000"><path d="m227.42 50.15c-2.388 2.7081-5.458 4.7279-8.89 5.85-4.091 1.4236-8.399 2.124-12.73 2.07-4.495.0988-8.935-1.006-12.86-3.2-3.721-2.1661-6.698-5.4085-8.54-9.3-2.103-4.4771-3.16-9.374-3.09-14.32v-3.84c-.125-5.0388.847-10.0445 2.85-14.67 1.724-3.91806 4.593-7.22285 8.23-9.47997 3.813-2.24422 8.177-3.380129 12.6-3.2800001 6.7 0 11.94 1.5999901 15.72 4.7999901s6.017 7.85338 6.71 13.95998h-11.33c-.52-3.23-1.66-5.6-3.44-7.1-2.089-1.6002-4.683-2.39852-7.31-2.24998-1.764-.09044-3.521.27192-5.105 1.05258-1.584.7807-2.942 1.9537-3.945 3.4074-2.073 2.98-3.12 7.4067-3.14 13.28v3.61c0 5.92 1.127 10.3967 3.38 13.43 2.253 3.0334 5.55 4.5467 9.89 4.54 4.38 0 7.5-.9333 9.36-2.8v-9.74h-10.6v-8.58h22.24z"/><path d="m279.18 45.65h-20.41l-3.84 11.65h-12.43l21-56.520032h10.83l21.16 56.520032h-12.39zm-17.25-9.43h14.13l-7.13-21.16z"/><path d="m311.99 57.3v-56.56001h19.79c6.86 0 12.063 1.31334 15.61 3.94 3.547 2.62667 5.32 6.47661 5.32 11.55001.048 2.5978-.698 5.1483-2.14 7.31-1.445 2.1311-3.523 3.7543-5.94 4.64 2.725.621 5.148 2.1736 6.85 4.39 1.712 2.3354 2.595 5.1755 2.51 8.07 0 5.44-1.733 9.5567-5.2 12.35s-8.42 4.23-14.86 4.31zm11.64-32.84h8.62c5.873-.1133 8.81-2.4467 8.81-7 0-2.56-.743-4.4033-2.23-5.53-1.49-1.12-3.84-1.69-7-1.69h-8.2zm0 8.23v15.25h10c2.311.1291 4.591-.5811 6.42-2 .77-.6676 1.378-1.5015 1.778-2.4388.401-.9373.582-1.9533.532-2.9712 0-5.18-2.667-7.8067-8-7.88z"/><path d="m394.44 36.61h-9.28v20.69h-11.64v-56.56001h21c6.667 0 11.817 1.48667 15.45 4.46001 3.633 2.97333 5.447 7.18 5.44 12.62.124 3.3896-.748 6.7413-2.51 9.64-1.872 2.7486-4.507 4.8898-7.58 6.16l12.21 23.12v.55h-12.5zm-9.28-9.43h9.39c2.47.155 4.905-.6472 6.8-2.24.815-.7953 1.45-1.7553 1.864-2.8159s.597-2.1973.536-3.3341c.065-1.1473-.103-2.2959-.493-3.3767-.39-1.0809-.994-2.0718-1.777-2.9133-1.51-1.52-3.83-2.29-7-2.29h-9.35z"/><path d="m447.07 57.3h-11.64v-56.56001h11.64z"/><path d="m502.81 32.8h-22.35v15.14h26.24v9.36h-37.89v-56.56001h37.81v9.43001h-26.16v13.47h22.35z"/><path d="m537.05 47.94h24.72v9.36h-36.37v-56.56001h11.65z"/><path d="m227.07 117.96c-.44 6.087-2.683 10.877-6.73 14.37s-9.38 5.24-16 5.24c-7.247 0-12.947-2.44-17.1-7.32s-6.23-11.577-6.23-20.09v-3.42c-.1-4.939.879-9.8394 2.87-14.36 1.727-3.9228 4.586-7.241 8.21-9.53 3.733-2.2647 8.035-3.4165 12.4-3.32 6.52 0 11.773 1.7467 15.76 5.24s6.29 8.3967 6.91 14.71h-11.65c-.29-3.65-1.3-6.29-3.05-7.94s-4.41-2.46-8-2.46c-3.88 0-6.783 1.39-8.71 4.17s-2.927 7.093-3 12.94v4.27c0 6.113.927 10.58 2.78 13.4s4.77 4.23 8.75 4.23c3.59 0 6.28-.82 8.05-2.47s2.79-4.18 3.05-7.63z"/><path d="m276.25 125.15h-20.41l-3.91 11.64h-12.36l21-56.52h10.79l21.16 56.52h-12.35zm-17.27-9.41h14.13l-7.1-21.15z"/><path d="m329.98 116.1h-9.28v20.69h-11.64v-56.52h21c6.667 0 11.817 1.49 15.45 4.47s5.44 7.1833 5.42 12.61c.126 3.392-.743 6.746-2.5 9.65-1.879 2.743-4.517 4.88-7.59 6.15l12.23 23.1v.54h-12.5zm-9.28-9.43h9.4c2.479.167 4.927-.632 6.83-2.23.816-.794 1.454-1.754 1.869-2.815.416-1.06.6-2.1974.541-3.335.064-1.1472-.104-2.2956-.494-3.3764s-.994-2.0718-1.776-2.9136c-1.52-1.5266-3.853-2.29-7-2.29h-9.36z"/><path d="m416.15 109.81c.095 5.042-.93 10.042-3 14.64-1.798 3.993-4.734 7.367-8.44 9.7-3.813 2.226-8.149 3.4-12.565 3.4-4.415 0-8.752-1.174-12.565-3.4-3.732-2.308-6.702-5.665-8.54-9.65-2.093-4.515-3.143-9.444-3.07-14.42v-2.79c-.11-5.059.915-10.079 3-14.69 1.814-4.0142 4.771-7.4052 8.5-9.75 3.812-2.2207 8.144-3.3906 12.555-3.3906s8.744 1.1699 12.555 3.3906c3.729 2.3448 6.686 5.7358 8.5 9.75 2.083 4.5975 3.108 9.604 3 14.65zm-11.8-2.56c0-5.92-1.06-10.4233-3.18-13.51-1.04-1.4269-2.401-2.5887-3.974-3.3913s-3.313-1.2233-5.078-1.2282c-1.766-.0049-3.508.4063-5.085 1.2002s-2.945 1.9482-3.993 3.3693c-2.12 3.04-3.193 7.497-3.22 13.37v2.75c0 5.767 1.06 10.243 3.18 13.43 1.017 1.459 2.367 2.654 3.94 3.485 1.572.831 3.32 1.274 5.099 1.291 1.778.018 3.535-.39 5.123-1.19 1.589-.799 2.963-1.967 4.008-3.406 2.09-3.07 3.16-7.54 3.18-13.41z"/><path d="m481.53 136.79h-11.6l-22.67-37.19v37.19h-11.69v-56.52h11.65l22.71 37.27v-37.27h11.6z"/></g></g></svg>