<svg viewBox="0 0 561.77 137.56" xmlns="http://www.w3.org/2000/svg"><path d="m137 23.72v90.58a23.26 23.26 0 0 1 -11.73 20.15 23.09 23.09 0 0 1 -11.5 3.08h-90.55a23.23 23.23 0 0 1 -23.22-23.23v-90.58a23.3 23.3 0 0 1 23.22-23.23h90.59a23.31 23.31 0 0 1 23.19 23.23z"/><path d="m131.14 92.45c-4.7 4.12-9.2 8.07-13.57 11.8-6-38.59 3-70.2 6.57-82.76 1.59-5.57 1.92-6.73.72-8.24a3.14 3.14 0 0 0 -2.6-1.17 3.07 3.07 0 0 0 -1.72.66c-25.87 20.77-48.23 33.92-66.54 39.12 6.8-15.84 2.6-28.79-5.47-35.18-7.41-5.88-19.63-7.19-30.2 3.13-8.87 8.66-9.59 23.05-1.6 32.07 3 3.39 10.57 9.37 25.77 8.2-10.96 16.74-28.36 36.52-42.5 51.62v2.6a23.2 23.2 0 0 0 .66 5.5c15.98-16.8 37.75-41.19 49.68-60.8 15.49-3.23 37.21-13.12 67.21-36.23-4.19 15-12.24 47.29-5.31 86q-3.85 3.21-7.6 6.15c-16.41-14.09-34.26-19.48-51.93-15.62-26.07 5.68-34.1 19-33.06 28.62a16.72 16.72 0 0 0 4.53 9.61h10.64c-5.78-2.28-8.78-6.28-9.21-10.26-.83-7.74 7.62-17.59 28.38-22.11a45.69 45.69 0 0 1 9.83-1.07c14 0 26.16 6.51 35.88 14.59-12.31 9.13-24.16 15.79-37.2 18.85h18.06a136.44 136.44 0 0 0 23.72-14.76 114.4 114.4 0 0 1 12.72 14.53 22.66 22.66 0 0 0 8.27-2.85 162.48 162.48 0 0 1 -6.52-23.36c5.23-4.42 10.63-9.15 16.3-14.13l1.95-1.7v-8zm-84.62-38.87c-11.41 1.92-20.28 0-25.27-5.68-5.8-6.55-5.2-17.45 1.3-23.8 3.54-3.45 8.37-5.92 13.29-5.92a14.27 14.27 0 0 1 9 3.2c6.83 5.41 9.81 17.35 1.68 32.2zm62.82 65.62-.2-.19c1.47-1.16 2.94-2.35 4.43-3.57.83 3.77 1.81 7.6 3 11.46-2.21-2.53-4.57-5.13-7.23-7.7z" fill="#fff"/><path d="m227.42 50.15a20.14 20.14 0 0 1 -8.89 5.85 37.07 37.07 0 0 1 -12.73 2.08 25.22 25.22 0 0 1 -12.86-3.2 21.37 21.37 0 0 1 -8.54-9.3 32.63 32.63 0 0 1 -3.09-14.32v-3.86a34.78 34.78 0 0 1 2.85-14.65 21.18 21.18 0 0 1 8.23-9.47 23.69 23.69 0 0 1 12.61-3.28q10 0 15.72 4.79t6.71 14h-11.34c-.52-3.24-1.66-5.6-3.44-7.11a11 11 0 0 0 -7.31-2.25 10.33 10.33 0 0 0 -9.05 4.47q-3.1 4.45-3.14 13.27v3.61q0 8.9 3.38 13.43t9.89 4.54q6.57 0 9.36-2.79v-9.78h-10.6v-8.58h22.24z"/><path d="m279.18 45.65h-20.41l-3.89 11.64h-12.38l21-56.51h10.79l21.16 56.51h-12.35zm-17.27-9.44h14.09l-7.1-21.15z"/><path d="m312 57.29v-56.51h19.79q10.29 0 15.61 3.94t5.32 11.54a12.81 12.81 0 0 1 -2.14 7.32 12.28 12.28 0 0 1 -5.94 4.64 11.94 11.94 0 0 1 6.85 4.38 13 13 0 0 1 2.51 8.08q0 8.15-5.2 12.34t-14.8 4.27zm11.64-32.84h8.62q8.81-.15 8.81-7c0-2.56-.74-4.41-2.23-5.53s-3.84-1.69-7.05-1.69h-8.15zm0 8.23v15.26h10a9.66 9.66 0 0 0 6.36-1.94 6.73 6.73 0 0 0 2.31-5.42q0-7.76-8-7.88z"/><path d="m394.44 36.6h-9.28v20.69h-11.64v-56.51h21q10 0 15.45 4.46t5.44 12.61a17.38 17.38 0 0 1 -2.51 9.65 17 17 0 0 1 -7.58 6.15l12.22 23.1v.54h-12.54zm-9.28-9.43h9.39a9.63 9.63 0 0 0 6.8-2.23 8 8 0 0 0 2.4-6.15 8.52 8.52 0 0 0 -2.27-6.29q-2.26-2.29-7-2.29h-9.35z"/><path d="m447.07 57.29h-11.64v-56.51h11.64z"/><path d="m502.81 32.8h-22.35v15.14h26.24v9.35h-37.89v-56.51h37.81v9.43h-26.16v13.47h22.35z"/><path d="m537.05 47.94h24.72v9.35h-36.37v-56.51h11.65z"/><path d="m227.07 118q-.66 9.12-6.73 14.36t-16 5.24q-10.87 0-17.1-7.31t-6.24-20.13v-3.46a34 34 0 0 1 2.87-14.36 21.59 21.59 0 0 1 8.21-9.53 23 23 0 0 1 12.4-3.32q9.78 0 15.76 5.24t6.91 14.72h-11.64c-.29-3.65-1.3-6.3-3-7.94s-4.41-2.47-8-2.47q-5.82 0-8.71 4.18t-3 12.94v4.27q0 9.16 2.78 13.39t8.75 4.23c3.59 0 6.28-.82 8-2.46s2.79-4.19 3.05-7.63z"/><path d="m276.25 125.14h-20.41l-3.84 11.65h-12.43l21-56.52h10.83l21.16 56.52h-12.39zm-17.25-9.43h14.13l-7.13-21.16z"/><path d="m330 116.1h-9.3v20.69h-11.64v-56.52h21q10 0 15.45 4.46t5.43 12.62a17.34 17.34 0 0 1 -2.5 9.64 17.08 17.08 0 0 1 -7.59 6.16l12.23 23.09v.55h-12.5zm-9.28-9.44h9.4a9.62 9.62 0 0 0 6.79-2.23 8 8 0 0 0 2.41-6.15 8.57 8.57 0 0 0 -2.32-6.28c-1.52-1.52-3.84-2.29-7-2.29h-9.3z"/><path d="m416.15 109.81a34.06 34.06 0 0 1 -2.95 14.63 22.29 22.29 0 0 1 -8.44 9.71 25 25 0 0 1 -25.13 0 22.4 22.4 0 0 1 -8.54-9.65 33.19 33.19 0 0 1 -3.09-14.38v-2.8a33.87 33.87 0 0 1 3-14.69 22.4 22.4 0 0 1 8.5-9.74 24.88 24.88 0 0 1 25.11 0 22.4 22.4 0 0 1 8.5 9.74 33.8 33.8 0 0 1 3 14.66zm-11.8-2.56q0-8.9-3.18-13.51a11.25 11.25 0 0 0 -18.17-.06q-3.18 4.56-3.22 13.37v2.76q0 8.66 3.18 13.43a11.15 11.15 0 0 0 18.17.17c2.09-3.06 3.16-7.53 3.18-13.41z"/><path d="m481.53 136.79h-11.64l-22.67-37.19v37.19h-11.65v-56.52h11.65l22.71 37.26v-37.26h11.6z"/></svg>