<svg fill="none" viewBox="0 0 35 50" xmlns="http://www.w3.org/2000/svg"><path d="m17.76 3 14.24 14.24v24.58c0 .6802-.134 1.3538-.3943 1.9823s-.6419 1.1995-1.1229 1.6805-1.052.8626-1.6805 1.1229-1.3021.3943-1.9823.3943h-18.64c-.68025 0-1.35383-.134-1.9823-.3943s-1.1995-.6419-1.68051-1.1229-.86257-1.052-1.12289-1.6805-.3943-1.3021-.3943-1.9823v-33.64c0-1.37382.54575-2.69138 1.51719-3.66281.97144-.97144 2.28899-1.51719 3.66281-1.51719zm1.24-3h-10.82c-2.16785.00528102-4.24539.868795-5.7783 2.4017-1.532901 1.5329-2.39641898 3.61045-2.4017 5.7783v33.64c.00528102 2.1678.868799 4.2454 2.4017 5.7783 1.53291 1.5329 3.61045 2.3964 5.7783 2.4017h18.64c2.1678-.0053 4.2454-.8688 5.7783-2.4017s2.3964-3.6105 2.4017-5.7783v-25.82z" fill="#404040"/><path d="m33.5 17h-11.5c-1.0609 0-2.0783-.4214-2.8284-1.1716-.7502-.7501-1.1716-1.7675-1.1716-2.8284v-11.5" stroke="#404040" stroke-miterlimit="10" stroke-width="3"/><path d="m13.7999 37.7129h-1.6523v3.2871h-1.4824v-8.5312h3c.9843 0 1.7441.2207 2.2793.6621.5351.4414.8027 1.08.8027 1.916 0 .5703-.1387 1.0488-.416 1.4355-.2735.3828-.6563.6778-1.1485.8848l1.9161 3.5566v.0762h-1.5879zm-1.6523-1.1895h1.5234c.5 0 .8906-.125 1.1719-.375.2812-.2539.4219-.5996.4219-1.0371 0-.457-.1309-.8105-.3926-1.0605-.2578-.25-.6445-.3789-1.1602-.3867h-1.5644zm7.7283 1.3067v3.1699h-1.4825v-8.5312h3.2637c.9531 0 1.709.248 2.2676.7441.5625.4961.8437 1.1523.8437 1.9687 0 .836-.2754 1.4864-.8261 1.9512-.5469.4649-1.3145.6973-2.3028.6973zm0-1.1895h1.7812c.5274 0 .9297-.123 1.207-.3691.2774-.25.4161-.6094.4161-1.0781 0-.461-.1407-.8282-.4219-1.1016-.2813-.2773-.668-.4199-1.1602-.4277h-1.8222z" fill="#404040"/></svg>