<svg fill="none" viewBox="0 0 35 50" xmlns="http://www.w3.org/2000/svg"><path d="m26.82 50h-18.64001c-2.16784-.0053-4.24538-.8688-5.77829-2.4017-1.532901-1.5329-2.39641898-3.6105-2.4017-5.7783v-33.64c.00528102-2.16785.868799-4.2454 2.4017-5.7783 1.53291-1.532905 3.61045-2.39641898 5.77829-2.4017h6.82001l20 20v21.82c-.0053 2.1678-.8688 4.2454-2.4017 5.7783s-3.6104 2.3964-5.7783 2.4017z" fill="#7f1d8b"/><g fill="#fff"><path d="m15 4 16 16h-10.67c-.6999 0-1.393-.1379-2.0397-.4057-.6467-.2679-1.2342-.6605-1.7292-1.1554-.4949-.495-.8875-1.0825-1.1554-1.7292-.2678-.6467-.4057-1.3398-.4057-2.0397z"/><path d="m13.7999 37.7129h-1.6523v3.2871h-1.4824v-8.5312h3c.9843 0 1.7441.2207 2.2793.6621.5351.4414.8027 1.08.8027 1.916 0 .5703-.1387 1.0488-.416 1.4355-.2735.3828-.6563.6778-1.1485.8848l1.9161 3.5566v.0762h-1.5879zm-1.6523-1.1895h1.5234c.5 0 .8906-.125 1.1719-.375.2812-.2539.4219-.5996.4219-1.0371 0-.457-.1309-.8105-.3926-1.0605-.2578-.25-.6445-.3789-1.1602-.3867h-1.5644zm7.7283 1.3067v3.1699h-1.4825v-8.5312h3.2637c.9531 0 1.709.248 2.2676.7441.5625.4961.8437 1.1523.8437 1.9687 0 .836-.2754 1.4864-.8261 1.9512-.5469.4649-1.3145.6973-2.3028.6973zm0-1.1895h1.7812c.5274 0 .9297-.123 1.207-.3691.2774-.25.4161-.6094.4161-1.0781 0-.461-.1407-.8282-.4219-1.1016-.2813-.2773-.668-.4199-1.1602-.4277h-1.8222z"/></g></svg>