<svg fill="none" viewBox="0 0 35 50" xmlns="http://www.w3.org/2000/svg"><path d="m17.76 3 14.24 14.24v24.58c0 .6802-.134 1.3538-.3943 1.9823s-.6419 1.1995-1.1229 1.6805-1.052.8626-1.6805 1.1229-1.3021.3943-1.9823.3943h-18.64c-.68025 0-1.35383-.134-1.9823-.3943s-1.1995-.6419-1.68051-1.1229-.86257-1.052-1.12289-1.6805-.3943-1.3021-.3943-1.9823v-33.64c0-1.37382.54575-2.69138 1.51719-3.66281.97144-.97144 2.28899-1.51719 3.66281-1.51719zm1.24-3h-10.82c-2.16785.00528102-4.24539.868795-5.7783 2.4017-1.532901 1.5329-2.39641898 3.61045-2.4017 5.7783v33.64c.00528102 2.1678.868799 4.2454 2.4017 5.7783 1.53291 1.5329 3.61045 2.3964 5.7783 2.4017h18.64c2.1678-.0053 4.2454-.8688 5.7783-2.4017s2.3964-3.6105 2.4017-5.7783v-25.82z" fill="#A6A6A6"/><path d="m33.5 17h-11.5c-1.0609 0-2.0783-.4214-2.8284-1.1716-.7502-.7501-1.1716-1.7675-1.1716-2.8284v-11.5" stroke="#A6A6A6" stroke-miterlimit="10" stroke-width="3"/><path d="m15.3323 39.8926c-.3086.4023-.7364.707-1.2832.914-.5469.2071-1.168.3106-1.8633.3106-.7149 0-1.3477-.1621-1.8985-.4863-.55074-.3243-.97652-.7871-1.2773-1.3887-.29687-.6055-.45117-1.3106-.46289-2.1152v-.668c0-1.2891.30859-2.2949.92578-3.0176.61721-.7266 1.47851-1.0898 2.58401-1.0898.9492 0 1.7031.2343 2.2617.7031.5586.4687.8945 1.1445 1.0078 2.0273h-1.4531c-.1641-1.0273-.7598-1.541-1.7871-1.541-.6641 0-1.1699.2402-1.5176.7207-.3438.4766-.5215 1.1778-.5332 2.1035v.6563c0 .9219.1934 1.6387.5801 2.1504.3906.5078.9316.7617 1.623.7617.7578 0 1.2969-.1719 1.6172-.5156v-1.67h-1.7578v-1.125h3.2344zm3.4333 1.1074h-1.4765v-8.5312h1.4765zm8.0506-7.3359h-2.6602v7.3359h-1.4707v-7.3359h-2.6367v-1.1953h6.7676z" fill="#A6A6A6"/></svg>
