<svg fill="none" viewBox="0 0 35 50" xmlns="http://www.w3.org/2000/svg"><path d="m26.82 50h-18.64001c-2.16784-.0053-4.24538-.8688-5.77829-2.4017-1.532901-1.5329-2.39641898-3.6105-2.4017-5.7783v-33.64c.00528102-2.16785.868799-4.2454 2.4017-5.7783 1.53291-1.532905 3.61045-2.39641898 5.77829-2.4017h6.82001l20 20v21.82c-.0053 2.1678-.8688 4.2454-2.4017 5.7783s-3.6104 2.3964-5.7783 2.4017z" fill="#022862"/><g fill="#fff"><path d="m15 4 16 16h-10.67c-.6999 0-1.393-.1379-2.0397-.4057-.6467-.2679-1.2342-.6605-1.7292-1.1554-.4949-.495-.8875-1.0825-1.1554-1.7292-.2678-.6467-.4057-1.3398-.4057-2.0397z"/><path d="m15.3323 39.8926c-.3086.4023-.7364.707-1.2832.914-.5469.2071-1.168.3106-1.8633.3106-.7149 0-1.3477-.1621-1.8985-.4863-.55074-.3243-.97652-.7871-1.2773-1.3887-.29687-.6055-.45117-1.3106-.46289-2.1152v-.668c0-1.2891.30859-2.2949.92578-3.0176.61721-.7266 1.47851-1.0898 2.58401-1.0898.9492 0 1.7031.2343 2.2617.7031.5586.4687.8945 1.1445 1.0078 2.0273h-1.4531c-.1641-1.0273-.7598-1.541-1.7871-1.541-.6641 0-1.1699.2402-1.5176.7207-.3438.4766-.5215 1.1778-.5332 2.1035v.6563c0 .9219.1934 1.6387.5801 2.1504.3906.5078.9316.7617 1.623.7617.7578 0 1.2969-.1719 1.6172-.5156v-1.67h-1.7578v-1.125h3.2344zm3.4333 1.1074h-1.4765v-8.5312h1.4765zm8.0506-7.3359h-2.6602v7.3359h-1.4707v-7.3359h-2.6367v-1.1953h6.7676z"/></g></svg>