<svg enable-background="new 0 0 83.1 80.4" viewBox="0 0 83.1 80.4" xmlns="http://www.w3.org/2000/svg"><g fill="#404040"><path d="m34.1 80.4c-12.1 0-24.2-4.1-32.3-12.2-2.3-2.3-2.3-6.1 0-8.5 2.3-2.3 6.1-2.3 8.5 0 11.6 11.6 36.1 11.6 47.7 0 2.3-2.3 6.1-2.3 8.5 0 2.3 2.3 2.3 6.1 0 8.5-8.3 8.1-20.3 12.2-32.4 12.2z"/><path d="m78.5 36.9-11.4-11.4-27.5 27.5c-2.6 2.6-6.9 2.6-9.5 0-2.6-2.6-2.6-6.9 0-9.5l27.6-27.5-11.3-11.4c-.7-.6-.3-1.6.6-1.8l34.8-2.8c.7 0 1.4.6 1.3 1.3l-2.8 34.9c-.1.9-1.1 1.3-1.8.7z"/></g></svg>