<svg fill="none" viewBox="0 0 35 50" xmlns="http://www.w3.org/2000/svg"><path d="m26.82 50h-18.64001c-2.16784-.0053-4.24538-.8688-5.77829-2.4017-1.532901-1.5329-2.39641898-3.6105-2.4017-5.7783v-33.64c.00528102-2.16785.868799-4.2454 2.4017-5.7783 1.53291-1.532905 3.61045-2.39641898 5.77829-2.4017h6.82001l20 20v21.82c-.0053 2.1678-.8688 4.2454-2.4017 5.7783s-3.6104 2.3964-5.7783 2.4017z" fill="#b20900"/><g fill="#fff"><path d="m15 4 16 16h-10.67c-.6999 0-1.393-.1379-2.0397-.4057-.6467-.2679-1.2342-.6605-1.7292-1.1554-.4949-.495-.8875-1.0825-1.1554-1.7292-.2678-.6467-.4057-1.3398-.4057-2.0397z"/><path d="m8.55297 37.8301v3.1699h-1.48242v-8.5312h3.26365c.9531 0 1.709.248 2.2676.7441.5625.4961.8437 1.1523.8437 1.9687 0 .836-.2753 1.4864-.8261 1.9512-.5469.4649-1.3145.6973-2.3028.6973zm0-1.1895h1.78123c.5274 0 .9297-.123 1.2071-.3691.2773-.25.416-.6094.416-1.0781 0-.461-.1407-.8282-.4219-1.1016-.2813-.2773-.668-.4199-1.1602-.4277h-1.82223zm6.43333 4.3594v-8.5312h2.5196c.7539 0 1.4218.1679 2.0039.5039.5859.3359 1.039.8125 1.3593 1.4296.3204.6172.4805 1.3243.4805 2.1211v.4278c0 .8086-.1621 1.5195-.4863 2.1328-.3203.6133-.7793 1.0859-1.377 1.418-.5937.332-1.2754.498-2.0449.498zm1.4825-7.3359v6.1523h.9667c.7774 0 1.3731-.2422 1.7872-.7266.4179-.4882.6308-1.1875.6386-2.0976v-.4746c0-.9258-.2011-1.6328-.6035-2.1211-.4023-.4883-.9863-.7324-1.7519-.7324zm11.5134 3.7207h-3.4336v3.6152h-1.4824v-8.5312h5.4199v1.1953h-3.9375v2.5371h3.4336z"/></g></svg>