<svg fill="none" viewBox="0 0 35 50" xmlns="http://www.w3.org/2000/svg"><path d="m17.76 3 14.24 14.24v24.58c0 .6802-.134 1.3538-.3943 1.9823s-.6419 1.1995-1.1229 1.6805-1.052.8626-1.6805 1.1229-1.3021.3943-1.9823.3943h-18.64c-.68025 0-1.35383-.134-1.9823-.3943s-1.1995-.6419-1.68051-1.1229-.86257-1.052-1.12289-1.6805-.3943-1.3021-.3943-1.9823v-33.64c0-1.37382.54575-2.69138 1.51719-3.66281.97144-.97144 2.28899-1.51719 3.66281-1.51719zm1.24-3h-10.82c-2.16785.00528102-4.24539.868795-5.7783 2.4017-1.532901 1.5329-2.39641898 3.61045-2.4017 5.7783v33.64c.00528102 2.1678.868799 4.2454 2.4017 5.7783 1.53291 1.5329 3.61045 2.3964 5.7783 2.4017h18.64c2.1678-.0053 4.2454-.8688 5.7783-2.4017s2.3964-3.6105 2.4017-5.7783v-25.82z" fill="#A6A6A6"/><path d="m33.5 17h-11.5c-1.0609 0-2.0783-.4214-2.8284-1.1716-.7502-.7501-1.1716-1.7675-1.1716-2.8284v-11.5" stroke="#A6A6A6" stroke-miterlimit="10" stroke-width="3"/><path d="m8.55297 37.8301v3.1699h-1.48242v-8.5312h3.26365c.9531 0 1.709.248 2.2676.7441.5625.4961.8437 1.1523.8437 1.9687 0 .836-.2753 1.4864-.8261 1.9512-.5469.4649-1.3145.6973-2.3028.6973zm0-1.1895h1.78123c.5274 0 .9297-.123 1.2071-.3691.2773-.25.416-.6094.416-1.0781 0-.461-.1407-.8282-.4219-1.1016-.2813-.2773-.668-.4199-1.1602-.4277h-1.82223zm6.43333 4.3594v-8.5312h2.5196c.7539 0 1.4218.1679 2.0039.5039.5859.3359 1.039.8125 1.3593 1.4296.3204.6172.4805 1.3243.4805 2.1211v.4278c0 .8086-.1621 1.5195-.4863 2.1328-.3203.6133-.7793 1.0859-1.377 1.418-.5937.332-1.2754.498-2.0449.498zm1.4825-7.3359v6.1523h.9667c.7774 0 1.3731-.2422 1.7872-.7266.4179-.4882.6308-1.1875.6386-2.0976v-.4746c0-.9258-.2011-1.6328-.6035-2.1211-.4023-.4883-.9863-.7324-1.7519-.7324zm11.5134 3.7207h-3.4336v3.6152h-1.4824v-8.5312h5.4199v1.1953h-3.9375v2.5371h3.4336z" fill="#A6A6A6"/></svg>
