<svg fill="none" viewBox="0 0 35 50" xmlns="http://www.w3.org/2000/svg"><path d="m26.82 50h-18.64001c-2.16784-.0053-4.24538-.8688-5.77829-2.4017-1.532901-1.5329-2.39641898-3.6105-2.4017-5.7783v-33.64c.00528102-2.16785.868799-4.2454 2.4017-5.7783 1.53291-1.532905 3.61045-2.39641898 5.77829-2.4017h6.82001l20 20v21.82c-.0053 2.1678-.8688 4.2454-2.4017 5.7783s-3.6104 2.3964-5.7783 2.4017z" fill="#365871"/><g fill="#fff"><path d="m15 4 16 16h-10.67c-.6999 0-1.393-.1379-2.0397-.4057-.6467-.2679-1.2342-.6605-1.7292-1.1554-.4949-.495-.8875-1.0825-1.1554-1.7292-.2678-.6467-.4057-1.3398-.4057-2.0397z"/><path d="m10.7209 37.7129h-1.65231v3.2871h-1.48242v-8.5312h3.00003c.9843 0 1.7441.2207 2.2793.6621.5351.4414.8027 1.08.8027 1.916 0 .5703-.1387 1.0488-.416 1.4355-.2734.3828-.6563.6778-1.1484.8848l1.916 3.5566v.0762h-1.5879zm-1.65231-1.1895h1.52341c.5 0 .8907-.125 1.1719-.375.2813-.2539.4219-.5996.4219-1.0371 0-.457-.1309-.8105-.3926-1.0605-.2578-.25-.6445-.3789-1.1602-.3867h-1.56441zm12.11691-2.8593h-2.6601v7.3359h-1.4707v-7.3359h-2.6367v-1.1953h6.7675zm6.2811 3.7207h-3.4336v3.6152h-1.4825v-8.5312h5.42v1.1953h-3.9375v2.5371h3.4336z"/></g></svg>