<svg fill="none" viewBox="0 0 35 50" xmlns="http://www.w3.org/2000/svg"><path d="m26.82 50h-18.64001c-2.16784-.0053-4.24538-.8688-5.77829-2.4017-1.532901-1.5329-2.39641898-3.6105-2.4017-5.7783v-33.64c.00528102-2.16785.868799-4.2454 2.4017-5.7783 1.53291-1.532905 3.61045-2.39641898 5.77829-2.4017h6.82001l20 20v21.82c-.0053 2.1678-.8688 4.2454-2.4017 5.7783s-3.6104 2.3964-5.7783 2.4017z" fill="#fed700"/><path d="m15 4 16 16h-10.67c-.6999 0-1.393-.1379-2.0397-.4057-.6467-.2679-1.2342-.6605-1.7292-1.1554-.4949-.495-.8875-1.0825-1.1554-1.7292-.2678-.6467-.4057-1.3398-.4057-2.0397z" fill="#fff"/><path d="m9.99156 38.8027c0-.375-.13281-.664-.39843-.8672-.26172-.2031-.73633-.4082-1.42383-.6152s-1.23438-.4375-1.64063-.6914c-.77734-.4883-1.16601-1.125-1.16601-1.9101 0-.6876.27929-1.254.83789-1.6993.5625-.4453 1.29101-.6679 2.18554-.6679.59375 0 1.12305.1093 1.58789.3281.46482.2187.83012.5312 1.09572.9375.2656.4023.3984.8496.3984 1.3418h-1.47654c0-.4453-.14062-.793-.42187-1.043-.27735-.2539-.67578-.3808-1.19531-.3808-.48438 0-.86133.1035-1.13086.3105-.26563.207-.39844.4961-.39844.8672 0 .3125.14453.5742.43359.7851.28906.2071.76563.4102 1.42969.6094.66406.1953 1.19727.4199 1.59964.6738.4023.25.6972.5391.8847.8672.1875.3243.2813.7051.2813 1.1426 0 .711-.2735 1.2774-.8203 1.6992-.543.418-1.28128.627-2.21487.627-.61719 0-1.18555-.1133-1.70508-.3399-.51562-.2304-.91797-.5468-1.20703-.9492-.28516-.4023-.42774-.8711-.42774-1.4062h1.48243c0 .4843.16015.8593.48047 1.125.32031.2656.77929.3984 1.37695.3984.51562 0 .90234-.1035 1.16015-.3105.26172-.211.39258-.4883.39258-.8321zm5.47244-1.4882-.9668 1.0253v2.6602h-1.4824v-8.5312h1.4824v4.0019l.8203-1.0137 2.4961-2.9882h1.793l-3.17 3.7792 3.3516 4.752h-1.7578zm10.3474-.1231h-3.5039v2.625h4.0957v1.1836h-5.5781v-8.5312h5.5371v1.1953h-4.0547v2.3554h3.5039zm2.7888 2.3086c.2657 0 .4707.0762.6153.2285.1445.1485.2168.336.2168.5625 0 .2227-.0723.4082-.2168.5567-.1446.1445-.3496.2168-.6153.2168-.2539 0-.455-.0723-.6035-.2168-.1484-.1446-.2226-.3301-.2226-.5567 0-.2265.0722-.414.2168-.5625.1445-.1523.3476-.2285.6093-.2285z" fill="#000"/></svg>