<svg fill="none" viewBox="0 0 35 50" xmlns="http://www.w3.org/2000/svg"><path d="m17.76 3 14.24 14.24v24.58c0 .6802-.134 1.3538-.3943 1.9823s-.6419 1.1995-1.1229 1.6805-1.052.8626-1.6805 1.1229-1.3021.3943-1.9823.3943h-18.64c-.68025 0-1.35383-.134-1.9823-.3943s-1.1995-.6419-1.68051-1.1229-.86257-1.052-1.12289-1.6805-.3943-1.3021-.3943-1.9823v-33.64c0-1.37382.54575-2.69138 1.51719-3.66281.97144-.97144 2.28899-1.51719 3.66281-1.51719zm1.24-3h-10.82c-2.16785.00528102-4.24539.868795-5.7783 2.4017-1.532901 1.5329-2.39641898 3.61045-2.4017 5.7783v33.64c.00528102 2.1678.868799 4.2454 2.4017 5.7783 1.53291 1.5329 3.61045 2.3964 5.7783 2.4017h18.64c2.1678-.0053 4.2454-.8688 5.7783-2.4017s2.3964-3.6105 2.4017-5.7783v-25.82z" fill="#A6A6A6"/><path d="m33.5 17h-11.5c-1.0609 0-2.0783-.4214-2.8284-1.1716-.7502-.7501-1.1716-1.7675-1.1716-2.8284v-11.5" stroke="#A6A6A6" stroke-miterlimit="10" stroke-width="3"/><path d="m9.99156 38.8027c0-.375-.13281-.664-.39843-.8672-.26172-.2031-.73633-.4082-1.42383-.6152s-1.23438-.4375-1.64063-.6914c-.77734-.4883-1.16601-1.125-1.16601-1.9101 0-.6876.27929-1.254.83789-1.6993.5625-.4453 1.29101-.6679 2.18554-.6679.59375 0 1.12305.1093 1.58789.3281.46482.2187.83012.5312 1.09572.9375.2656.4023.3984.8496.3984 1.3418h-1.47654c0-.4453-.14062-.793-.42187-1.043-.27735-.2539-.67578-.3808-1.19531-.3808-.48438 0-.86133.1035-1.13086.3105-.26563.207-.39844.4961-.39844.8672 0 .3125.14453.5742.43359.7851.28906.2071.76563.4102 1.42969.6094.66406.1953 1.19727.4199 1.59964.6738.4023.25.6972.5391.8847.8672.1875.3243.2813.7051.2813 1.1426 0 .711-.2735 1.2774-.8203 1.6992-.543.418-1.28128.627-2.21487.627-.61719 0-1.18555-.1133-1.70508-.3399-.51562-.2304-.91797-.5468-1.20703-.9492-.28516-.4023-.42774-.8711-.42774-1.4062h1.48243c0 .4843.16015.8593.48047 1.125.32031.2656.77929.3984 1.37695.3984.51562 0 .90234-.1035 1.16015-.3105.26172-.211.39258-.4883.39258-.8321zm5.47244-1.4882-.9668 1.0253v2.6602h-1.4824v-8.5312h1.4824v4.0019l.8203-1.0137 2.4961-2.9882h1.793l-3.17 3.7792 3.3516 4.752h-1.7578zm10.3474-.1231h-3.5039v2.625h4.0957v1.1836h-5.5781v-8.5312h5.5371v1.1953h-4.0547v2.3554h3.5039zm2.7888 2.3086c.2657 0 .4707.0762.6153.2285.1445.1485.2168.336.2168.5625 0 .2227-.0723.4082-.2168.5567-.1446.1445-.3496.2168-.6153.2168-.2539 0-.455-.0723-.6035-.2168-.1484-.1446-.2226-.3301-.2226-.5567 0-.2265.0722-.414.2168-.5625.1445-.1523.3476-.2285.6093-.2285z" fill="#A6A6A6"/></svg>
