<svg fill="none" viewBox="0 0 35 50" xmlns="http://www.w3.org/2000/svg"><path d="m26.82 50h-18.64001c-2.16784-.0053-4.24538-.8688-5.77829-2.4017-1.532901-1.5329-2.39641898-3.6105-2.4017-5.7783v-33.64c.00528102-2.16785.868799-4.2454 2.4017-5.7783 1.53291-1.532905 3.61045-2.39641898 5.77829-2.4017h6.82001l20 20v21.82c-.0053 2.1678-.8688 4.2454-2.4017 5.7783s-3.6104 2.3964-5.7783 2.4017z" fill="#0036e5"/><g fill="#fff"><path d="m15 4 16 16h-10.67c-.6999 0-1.393-.1379-2.0397-.4057-.6467-.2679-1.2342-.6605-1.7292-1.1554-.4949-.495-.8875-1.0825-1.1554-1.7292-.2678-.6467-.4057-1.3398-.4057-2.0397z"/><path d="m12.3616 38.8906 1.3125-6.4218h1.4707l-1.9688 8.5312h-1.418l-1.623-6.2285-1.6582 6.2285h-1.42383l-1.96875-8.5312h1.4707l1.32422 6.4101 1.62891-6.4101h1.24215zm9.0935-1.6992h-3.5039v2.625h4.0957v1.1836h-5.5781v-8.5312h5.5371v1.1953h-4.0547v2.3554h3.5039zm2.0388 3.8086v-8.5312h2.9238c.9649 0 1.6993.1933 2.2032.58s.7558.9629.7558 1.7285c0 .3907-.1055.7422-.3164 1.0547s-.5195.5547-.9258.7266c.461.125.8164.3613 1.0664.709.2539.3437.3809.7578.3809 1.2422 0 .8007-.2578 1.416-.7734 1.8457-.5118.4297-1.2461.6445-2.2032.6445zm1.4824-3.8496v2.666h1.6465c.4649 0 .8281-.1152 1.0899-.3457.2617-.2305.3925-.5508.3925-.9609 0-.8868-.4531-1.3399-1.3593-1.3594zm0-1.0899h1.4532c.4609 0 .8203-.1035 1.0781-.3105.2617-.2109.3926-.5078.3926-.8906 0-.4219-.1211-.7266-.3633-.9141-.2383-.1875-.6114-.2812-1.1192-.2812h-1.4414z"/></g></svg>