<svg fill="none" height="50" viewBox="0 0 35 50" width="35" xmlns="http://www.w3.org/2000/svg"><path d="m17.76 3 14.24 14.24v24.58c0 .6802-.134 1.3538-.3943 1.9823s-.6419 1.1995-1.1229 1.6805-1.052.8626-1.6805 1.1229-1.3021.3943-1.9823.3943h-18.64c-.68025 0-1.35383-.134-1.9823-.3943s-1.1995-.6419-1.68051-1.1229-.86257-1.052-1.12289-1.6805-.3943-1.3021-.3943-1.9823v-33.64c0-1.37382.54575-2.69138 1.51719-3.66281.97144-.97144 2.28899-1.51719 3.66281-1.51719zm1.24-3h-10.82c-2.16785.00528102-4.24539.868795-5.7783 2.4017-1.532901 1.5329-2.39641898 3.61045-2.4017 5.7783v33.64c.00528102 2.1678.868799 4.2454 2.4017 5.7783 1.53291 1.5329 3.61045 2.3964 5.7783 2.4017h18.64c2.1678-.0053 4.2454-.8688 5.7783-2.4017s2.3964-3.6105 2.4017-5.7783v-25.82z" fill="#404040"/><path d="m33.5 17h-11.5c-1.0609 0-2.0783-.4214-2.8284-1.1716-.7502-.7501-1.1716-1.7675-1.1716-2.8284v-11.5" stroke="#404040" stroke-miterlimit="10" stroke-width="3"/><path d="m12.3616 38.8906 1.3125-6.4218h1.4707l-1.9688 8.5312h-1.418l-1.623-6.2285-1.6582 6.2285h-1.42383l-1.96875-8.5312h1.4707l1.32422 6.4101 1.62891-6.4101h1.24215zm9.0935-1.6992h-3.5039v2.625h4.0957v1.1836h-5.5781v-8.5312h5.5371v1.1953h-4.0547v2.3554h3.5039zm2.0388 3.8086v-8.5312h2.9238c.9649 0 1.6993.1933 2.2032.58s.7558.9629.7558 1.7285c0 .3907-.1055.7422-.3164 1.0547s-.5195.5547-.9258.7266c.461.125.8164.3613 1.0664.709.2539.3437.3809.7578.3809 1.2422 0 .8007-.2578 1.416-.7734 1.8457-.5118.4297-1.2461.6445-2.2032.6445zm1.4824-3.8496v2.666h1.6465c.4649 0 .8281-.1152 1.0899-.3457.2617-.2305.3925-.5508.3925-.9609 0-.8868-.4531-1.3399-1.3593-1.3594zm0-1.0899h1.4532c.4609 0 .8203-.1035 1.0781-.3105.2617-.2109.3926-.5078.3926-.8906 0-.4219-.1211-.7266-.3633-.9141-.2383-.1875-.6114-.2812-1.1192-.2812h-1.4414z" fill="#404040"/></svg>