<svg fill="none" viewBox="0 0 35 50" xmlns="http://www.w3.org/2000/svg"><path d="m26.82 50h-18.64001c-2.16784-.0053-4.24538-.8688-5.77829-2.4017-1.532901-1.5329-2.39641898-3.6105-2.4017-5.7783v-33.64c.00528102-2.16785.868799-4.2454 2.4017-5.7783 1.53291-1.532905 3.61045-2.39641898 5.77829-2.4017h6.82001l20 20v21.82c-.0053 2.1678-.8688 4.2454-2.4017 5.7783s-3.6104 2.3964-5.7783 2.4017z" fill="#460136"/><g fill="#fff"><path d="m15 4 16 16h-10.67c-.6999 0-1.393-.1379-2.0397-.4057-.6467-.2679-1.2342-.6605-1.7292-1.1554-.4949-.495-.8875-1.0825-1.1554-1.7292-.2678-.6467-.4057-1.3398-.4057-2.0397z"/><path d="m13.4659 35.5508 1.793-3.082h1.7109l-2.5781 4.2304 2.6367 4.3008h-1.7285l-1.834-3.1289-1.8398 3.1289h-1.72266l2.64256-4.3008-2.58397-4.2304h1.71097zm4.8982 5.4492v-8.5312h2.5196c.7539 0 1.4218.1679 2.0039.5039.5859.3359 1.039.8125 1.3594 1.4296.3203.6172.4804 1.3243.4804 2.1211v.4278c0 .8086-.1621 1.5195-.4863 2.1328-.3203.6133-.7793 1.0859-1.377 1.418-.5937.332-1.2754.498-2.0449.498zm1.4825-7.3359v6.1523h.9668c.7773 0 1.373-.2422 1.7871-.7266.4179-.4882.6308-1.1875.6386-2.0976v-.4746c0-.9258-.2011-1.6328-.6035-2.1211-.4023-.4883-.9863-.7324-1.7519-.7324z"/></g></svg>