<svg fill="none" height="253" viewBox="0 0 993 253" width="993" xmlns="http://www.w3.org/2000/svg"><g fill="#ffe100"><path d="m222.205 252.02h-218.18828c-2.24937 0-4.01674337-1.767-4.01674337-4.017 0-2.249 1.76737337-4.016 4.01674337-4.016h218.18828c2.25 0 4.017 1.767 4.017 4.016 0 2.25-1.767 4.017-4.017 4.017z"/><path d="m620.827 252.02h-86.279c-2.25 0-4.017-1.767-4.017-4.017 0-2.249 1.767-4.016 4.017-4.016h86.279c62.18 0 119.378-8.515 169.828-25.544 2.089-.643 4.338.482 5.142 2.571.642 2.088-.482 4.337-2.571 5.14-51.414 17.19-109.416 25.866-172.399 25.866zm-112.469 0h-260.124c-2.25 0-4.017-1.767-4.017-4.017 0-2.249 1.767-4.016 4.017-4.016h260.124c2.25 0 4.017 1.767 4.017 4.016 0 2.25-1.767 4.017-4.017 4.017z"/><path d="m816.2 217.479c-1.607 0-3.053-.964-3.696-2.57-.803-2.089.161-4.338 2.25-5.302 47.397-19.278 79.371-43.055 97.848-59.603 20.084-17.993 28.92-31.649 29.081-31.649 1.285-1.927 3.695-2.409 5.623-1.124 1.929 1.285 2.411 3.695 1.125 5.623-1.446 2.249-37.436 56.55-130.624 94.304-.643.16-1.125.321-1.607.321z"/><path d="m940.88 63.5724c-.964 0-1.768-.3213-2.571-.9639-1.767-1.4459-1.928-4.0163-.482-5.6229 57.52-67.796 80.653-135.4314 80.973-136.2347.65-2.0885 3.06-3.2131 5.15-2.5705 2.08.6426 3.21 3.0524 2.57 5.1409-.16.6427-23.78 69.72395-82.427 138.8052-.964.964-2.089 1.4459-3.213 1.4459z"/><path d="m648.943 207.519c-2.089 0-3.857-1.768-4.017-3.856-.161-2.249 1.606-4.016 3.856-4.177 105.239-4.338 195.535-44.662 268.801-120.1694 1.606-1.6066 4.016-1.6066 5.623-.1607 1.607 1.6066 1.607 4.0164.161 5.6229-74.712 76.9532-166.936 118.2412-274.264 122.5792 0 .161-.16.161-.16.161z"/><path d="m618.417 207.84h-160.67c-2.249 0-4.016-1.767-4.016-4.017 0-2.249 1.767-4.016 4.016-4.016h160.67c2.25 0 4.017 1.767 4.017 4.016 0 2.25-1.928 4.017-4.017 4.017z"/></g></svg>