<svg fill="none" height="239" viewBox="0 0 1478 239" width="1478" xmlns="http://www.w3.org/2000/svg" xmlns:xlink="http://www.w3.org/1999/xlink"><clipPath id="a"><path d="m0 0h1478v239h-1478z"/></clipPath><g clip-path="url(#a)" fill="#fff"><path d="m5.57104 12.7009c-3.11978 0-5.57104-2.4512-5.57104-5.57102 0-3.11978 2.45126-5.57103 5.57104-5.57103 0 0 132.14496-.44569 278.55196-.89137 3.12 0 5.571 2.45126 5.571 5.57104s-2.451 5.57108-5.571 5.57108c-146.407.4456-278.55196.8913-278.55196.8913z"/><path d="m793.984 26.5181c-.223 0-.668 0-.891 0-61.504-10.2507-126.574-15.376-193.649-15.376-57.939 0-151.087.2228-277.438.4457-3.12 0-5.571-2.4513-5.571-5.57108s2.451-5.571037 5.571-5.571037c126.351-.222841 219.499-.445683 277.438-.445683 67.521 0 133.482 5.12535 195.432 15.3761 3.119.4456 5.125 3.3426 4.679 6.4624-.668 2.6741-2.897 4.6796-5.571 4.6796z"/><path d="m1089.47 132.591c-1.11 0-2.23-.446-3.34-1.114-.89-.669-86.909-63.9558-256.268-98.2734-3.12-.6686-4.903-3.5655-4.457-6.4624.668-3.1198 3.565-4.9026 6.462-4.4569 172.033 34.9861 257.163 97.6047 260.723 100.2787 2.45 1.783 2.9 5.348 1.12 7.799-.9 1.56-2.46 2.229-4.24 2.229z"/><path d="m880.447 114.317c-.446 0-1.115 0-1.56-.223-77.326-24.0665-166.908-35.4314-273.65-34.7629-3.119 0-5.571-2.4512-5.571-5.571s2.452-5.571 5.571-5.571c107.856-.6685 198.329 10.9192 276.992 35.4319 2.897.891 4.68 4.011 3.566 6.908-.891 2.228-3.12 3.788-5.348 3.788z"/><path d="m1168.36 258.719c-.89 0-1.56-.223-2.45-.446-35.44-16.936-67.97-36.1-99.39-54.596-46.57-27.632-94.931-56.156-155.321-78.663-2.897-1.114-4.457-4.234-3.343-7.131s4.234-4.457 7.131-3.343c61.504 22.73 110.083 51.477 157.103 79.332 31.2 18.496 63.51 37.437 98.5 54.15 2.67 1.337 4.01 4.68 2.67 7.354-.89 2.229-2.9 3.343-4.9 3.343z"/></g></svg>